<svg width="148" height="151" viewBox="0 0 148 151" fill="none" xmlns="http://www.w3.org/2000/svg">
<path fill-rule="evenodd" clip-rule="evenodd" d="M12.8107 62.6905C12.5283 62.748 12.2457 62.8075 11.9637 62.8669C13.3451 60.9133 14.7119 58.9508 16.0692 56.9816C17.8609 54.4028 19.6338 51.8076 21.3927 49.2077C23.649 45.8749 25.889 42.5306 28.1293 39.1858L28.1296 39.1854L28.13 39.1849L28.1303 39.1844L28.1329 39.1804L28.1339 39.179L28.1349 39.1776C29.3879 37.3067 30.6411 35.4358 31.8972 33.5666C35.2099 28.6396 38.4975 23.6958 41.7857 18.7512L42.355 17.8952L47.5617 10.0442L51.976 3.3442L52.2632 3.52939L52.265 3.53058L52.2657 3.53102C52.4036 3.61988 52.5416 3.7088 52.6796 3.79806C53.3056 4.20451 53.9387 4.60161 54.5717 4.99871C55.8401 5.79058 57.1155 6.57076 58.3955 7.34161C58.6842 7.51324 58.9727 7.68547 59.2612 7.85773L59.2613 7.85778L59.2615 7.85791C60.2568 8.4522 61.2528 9.04688 62.2614 9.6191C63.5695 10.3526 64.894 11.0557 66.2815 11.6653C66.4614 11.7448 66.6786 11.7074 66.8187 11.5555C66.9963 11.364 66.9869 11.065 66.7954 10.8851C65.6882 9.85035 64.5202 8.90899 63.3336 7.99566C62.3609 7.2571 61.3758 6.54181 60.3897 5.82578C60.1657 5.66312 59.9416 5.50043 59.7176 5.33741C58.5053 4.46379 57.286 3.59718 56.0596 2.74458C55.4453 2.31945 54.831 1.89431 54.2096 1.47853C54.0585 1.377 53.9075 1.27507 53.7564 1.17308L53.7564 1.17307C53.2888 0.857376 52.8205 0.541266 52.3456 0.235832L52.3339 0.228825C51.6892 -0.186963 50.8273 -0.00709999 50.4045 0.635269L45.2118 8.49554L40.0448 16.3722L39.2135 17.6427L39.2123 17.6445L39.2119 17.6452L39.2115 17.6458C36.0507 22.4768 32.8901 27.3074 29.7552 32.1558C28.5958 33.9456 27.4342 35.7339 26.2727 37.5221L26.272 37.5232L26.2719 37.5234C24.0124 41.0019 21.753 44.4802 19.51 47.9697C18.5734 49.4248 17.6418 50.882 16.7151 52.3425C16.4217 52.371 16.1331 52.414 15.8474 52.464C15.3265 52.5551 14.8149 52.6789 14.3127 52.8214C13.8685 52.9474 13.4317 53.099 12.9957 53.2503L12.9956 53.2503L12.9955 53.2504L12.9954 53.2504L12.9953 53.2504L12.9952 53.2505L12.9951 53.2505L12.995 53.2505L12.9947 53.2506L12.8247 53.3096L11.3438 53.8235C11.08 53.9164 10.8174 54.0071 10.5545 54.098L10.5536 54.0983C9.83198 54.3476 9.10804 54.5978 8.35149 54.8956C7.34005 55.3138 6.33795 55.7716 5.38024 56.3579C4.42253 56.9419 3.49051 57.6146 2.67295 58.4882C2.56783 58.591 2.46972 58.7055 2.37395 58.8269L2.08664 59.182C2.02027 59.2699 1.95861 59.3638 1.89749 59.4568L1.89747 59.4568C1.87255 59.4947 1.84771 59.5325 1.82268 59.5697C1.73392 59.6982 1.64983 59.8314 1.57741 59.9785C1.26207 60.5321 1.02614 61.1909 0.967747 61.929C0.914021 62.6601 1.07753 63.5081 1.58442 64.1738C1.82969 64.5032 2.13336 64.7694 2.44403 64.9727C2.75704 65.1806 3.07705 65.3184 3.39006 65.4305C4.01842 65.6501 4.61874 65.7388 5.20271 65.7879C5.78668 65.8346 6.35431 65.8299 6.91025 65.8019C8.02213 65.7412 9.09664 65.5823 10.1548 65.3814C10.9076 65.2381 11.6301 65.0681 12.3479 64.8992C12.648 64.8286 12.9472 64.7582 13.2475 64.69C15.2844 64.2182 17.3213 63.7463 19.3512 63.2581L22.3995 62.5363L25.4455 61.8005L31.5352 60.3289C39.6524 58.3598 47.7649 56.3789 55.8541 54.3023C56.4628 54.147 57.0716 53.9919 57.6803 53.8368L57.7001 53.8317L57.713 53.8285L57.7132 53.8284C65.1866 51.9243 72.6635 50.0194 80.0189 47.6941L80.2506 47.6217C84.1606 46.4008 88.0693 45.1803 92.0184 44.0968L98.0636 42.4477C100.077 41.8871 102.079 41.2961 104.072 40.6677L107.059 39.7264L108.554 39.2545L108.928 39.1377L109.115 39.0793L109.271 39.0396L109.577 38.9602L109.731 38.9182C109.761 38.9115 109.791 38.9079 109.821 38.9043C109.843 38.9015 109.866 38.8988 109.888 38.8948C111.546 38.5911 113.326 39.0863 114.695 40.1585C115.38 40.6911 115.961 41.3662 116.393 42.1253C116.492 42.2779 116.566 42.4431 116.641 42.608C116.656 42.6426 116.672 42.6772 116.688 42.7116C116.694 42.7273 116.701 42.7429 116.708 42.7584C116.718 42.779 116.727 42.7994 116.737 42.8198L116.737 42.82L116.738 42.8205L116.738 42.821L116.738 42.8215C116.768 42.884 116.798 42.9466 116.818 43.013L116.924 43.3236C116.93 43.3445 116.937 43.3644 116.944 43.384C116.951 43.405 116.958 43.4254 116.966 43.446C116.988 43.5074 117.01 43.5694 117.031 43.646L117.139 44.0221L117.351 44.7742L119.042 50.7915C120.012 54.2585 120.96 57.7342 121.907 61.2096L122.357 62.8587C123.464 66.8811 124.543 70.9128 125.604 74.9516L125.649 75.1246L125.649 75.1252L125.65 75.1258L125.65 75.1264L125.65 75.127L125.65 75.1276L125.65 75.1282L125.65 75.1288L125.651 75.1294C126.165 77.0884 126.68 79.0495 127.213 81.0039C127.309 81.3535 127.404 81.7032 127.499 82.053C127.951 83.7178 128.404 85.3836 128.888 87.0398C129.125 87.8905 129.378 88.7361 129.632 89.581L129.771 90.0461L129.882 90.4173L129.882 90.4198C130.144 91.2972 130.405 92.1737 130.689 93.043C131.098 94.2957 131.538 95.5392 132.038 96.764C130.555 95.9938 129.069 95.2323 127.578 94.4796L127.576 94.4785C126.712 94.0444 125.849 93.6103 124.98 93.1878C124.783 93.0913 124.586 92.9945 124.389 92.8978C123.717 92.5684 123.046 92.239 122.371 91.9194L122.322 91.8961C122.014 91.7536 121.647 91.7512 121.325 91.9194L96.6202 104.423L96.5992 104.433C96.3142 104.58 96.1017 104.858 96.0526 105.201C95.9568 105.82 95.8961 106.379 95.8424 106.965C95.7887 107.544 95.7489 108.121 95.7186 108.7C95.6532 109.857 95.6415 111.015 95.6578 112.172C95.6952 114.486 95.8961 116.799 96.2535 119.09C96.6468 121.594 97.2354 124.08 98.0431 126.499C93.3814 127.437 88.7873 128.637 84.1935 129.837L84.1874 129.839L84.1825 129.84L84.1788 129.841L84.1751 129.842L84.1726 129.843L84.1701 129.843L84.1689 129.844L84.1677 129.844C82.8833 130.179 81.599 130.515 80.3132 130.845C73.99 132.499 67.6784 134.194 61.3738 135.914C55.0716 137.645 48.7881 139.436 42.5045 141.237L33.0885 143.968L31.937 144.304L31.4651 144.4C31.3692 144.425 31.266 144.433 31.1623 144.442C31.0994 144.447 31.0363 144.452 30.9746 144.461C30.3135 144.517 29.6478 144.468 29.0007 144.323C28.3584 144.162 27.737 143.909 27.1671 143.564C26.5971 143.223 26.0622 142.802 25.6324 142.284C25.2003 141.772 24.8429 141.19 24.5836 140.562L24.4084 140.081C24.35 139.899 24.2893 139.695 24.2332 139.502L23.8898 138.327C23.5173 137.029 23.1606 135.727 22.8042 134.426C22.7293 134.152 22.6544 133.879 22.5794 133.606L19.9889 124.157L17.3984 114.708L14.8336 105.253C14.3901 103.613 13.9447 101.974 13.4993 100.335L13.499 100.333L13.4988 100.333L13.4987 100.332C12.2318 95.6696 10.9648 91.0066 9.74134 86.3321L9.68359 86.1093C8.88301 83.0209 8.08309 79.935 7.21858 76.8647C7.00134 76.0775 6.7771 75.2927 6.54818 74.5078C6.4894 74.3063 6.43123 74.1047 6.37308 73.9032C6.2048 73.3202 6.03671 72.7377 5.85442 72.1579C5.35688 70.5999 4.7986 69.0605 4.04177 67.5725C3.95768 67.409 3.78249 67.3016 3.58861 67.3133C3.32699 67.3296 3.1261 67.5539 3.14012 67.8178C3.23355 69.4833 3.52554 71.0951 3.8806 72.6905C4.00872 73.2596 4.15108 73.8239 4.2933 74.3877C4.35072 74.6154 4.40813 74.843 4.46457 75.0708C4.66078 75.8626 4.86167 76.6545 5.06956 77.444C5.83792 80.4165 6.66611 83.3724 7.49403 86.3274L7.65306 86.895C8.95825 91.5833 10.2181 96.2832 11.4779 100.983L11.478 100.984C11.9092 102.592 12.3403 104.201 12.7733 105.809L15.3148 115.271L17.8305 124.739L20.3463 134.206L20.479 134.704L20.4793 134.706L20.4794 134.706C20.8557 136.118 21.2317 137.529 21.589 138.946L21.8856 140.135L22.0328 140.735L22.236 141.419C22.5467 142.319 22.9998 143.176 23.5862 143.94C24.7541 145.472 26.464 146.582 28.349 147.046C29.2927 147.273 30.2738 147.331 31.2385 147.238C31.3187 147.227 31.3987 147.219 31.4786 147.211C31.6385 147.194 31.7984 147.177 31.9603 147.14L32.6868 146.981L33.8828 146.619L43.2567 143.8C48.6002 142.203 53.9558 140.638 59.3101 139.074L60.5666 138.707L62.0442 138.275C68.3067 136.435 74.5763 134.615 80.8575 132.837C82.8079 132.276 84.7634 131.734 86.7188 131.193L86.7192 131.193C90.6555 130.103 94.5917 129.013 98.4871 127.761C99.0665 129.328 99.7415 130.863 100.519 132.351C101.61 134.426 102.887 136.406 104.331 138.266C105.814 140.095 107.456 141.791 109.239 143.328C112.838 146.362 116.994 148.679 121.348 150.326L121.402 150.347C121.698 150.457 122.037 150.459 122.35 150.326L123.955 149.63L124.756 149.282C124.808 149.258 124.861 149.236 124.913 149.213C124.995 149.179 125.076 149.144 125.155 149.104L125.546 148.906C125.821 148.761 126.098 148.621 126.376 148.48L126.376 148.479L126.377 148.479C127.14 148.092 127.903 147.704 128.629 147.245C128.8 147.142 128.972 147.04 129.145 146.938C129.476 146.743 129.807 146.547 130.131 146.341L131.577 145.346C131.659 145.288 131.743 145.23 131.826 145.173L131.826 145.173C131.984 145.065 132.141 144.957 132.294 144.841L132.983 144.295C133.066 144.227 133.149 144.161 133.233 144.095C133.311 144.033 133.389 143.971 133.467 143.91C133.765 143.675 134.063 143.441 134.35 143.192C136.115 141.653 137.737 139.955 139.206 138.133C140.633 136.278 141.92 134.32 143.011 132.258C145.193 128.133 146.615 123.643 147.344 119.072C147.365 118.931 147.386 118.789 147.408 118.648L147.408 118.645C147.474 118.215 147.54 117.784 147.582 117.353L147.596 117.23C147.657 116.696 147.718 116.162 147.753 115.626L147.821 114.762L147.863 113.898C147.889 113.403 147.894 112.909 147.9 112.414L147.902 112.167C147.904 111.678 147.888 111.19 147.871 110.702L147.863 110.436C147.83 109.859 147.793 109.284 147.736 108.71C147.676 108.135 147.613 107.563 147.519 106.991C147.433 106.414 147.328 105.858 147.183 105.271C147.12 105.01 146.879 104.818 146.599 104.825C146.277 104.832 146.02 105.103 146.029 105.426V105.449C146.057 106.537 146.055 107.668 146.031 108.775C146.015 109.887 145.964 110.999 145.896 112.106L145.88 112.361C145.851 112.83 145.822 113.298 145.774 113.765L145.704 114.592L145.613 115.418C145.563 115.934 145.488 116.447 145.414 116.958L145.398 117.065C145.347 117.479 145.276 117.891 145.205 118.301C145.182 118.435 145.159 118.569 145.137 118.703C144.747 120.877 144.235 123.029 143.541 125.117C143.497 125.249 143.454 125.381 143.411 125.513C143.283 125.903 143.155 126.294 142.999 126.675L142.705 127.446C142.693 127.476 142.682 127.506 142.671 127.537L142.656 127.575L142.656 127.575C142.575 127.79 142.494 128.004 142.397 128.21L141.731 129.716L140.981 131.181C139.935 133.108 138.729 134.947 137.356 136.647C135.947 138.32 134.408 139.875 132.733 141.279C129.494 143.934 125.793 146.003 121.866 147.511C117.964 145.918 114.296 143.809 111.079 141.146C109.421 139.742 107.903 138.184 106.508 136.516C105.151 134.818 103.939 133.005 102.892 131.09L102.14 129.637L101.465 128.142C101.366 127.938 101.283 127.725 101.199 127.513L101.15 127.385L100.848 126.621C100.691 126.244 100.56 125.857 100.429 125.469L100.429 125.469C100.384 125.337 100.34 125.206 100.295 125.075C99.5938 122.998 99.0496 120.859 98.6641 118.689C98.2764 116.519 98.0475 114.316 97.9447 112.106C97.9003 111.001 97.8816 109.894 97.9143 108.789C97.9283 108.238 97.9517 107.687 97.9891 107.138C98.0123 106.778 98.0417 106.407 98.0773 106.052L121.837 94.2747C122.434 94.5864 123.034 94.892 123.635 95.1977L123.637 95.1987L123.908 95.3368C124.768 95.7806 125.632 96.2128 126.499 96.6426C128.232 97.5022 129.97 98.3525 131.712 99.1887L134.331 100.438C134.444 100.492 134.557 100.545 134.669 100.599C134.768 100.646 134.866 100.692 134.964 100.739C135.626 101.054 136.289 101.369 136.956 101.672C138.718 102.473 140.495 103.239 142.338 103.879C142.586 103.966 142.866 103.879 143.018 103.646C143.2 103.377 143.128 103.01 142.859 102.828C141.243 101.735 139.563 100.77 137.867 99.8404C137.239 99.496 136.606 99.1618 135.972 98.8274L135.971 98.827C135.75 98.7103 135.528 98.5935 135.307 98.4763L133.748 97.6586C133.637 96.942 133.5 96.2335 133.357 95.5261C133.139 94.503 132.915 93.4845 132.653 92.4754C132.486 91.8238 132.311 91.176 132.135 90.5284L132.134 90.5259C132.037 90.1691 131.941 89.8124 131.845 89.4551L131.023 86.4395L127.662 74.3956C126.543 70.3779 125.475 66.3485 124.445 62.3051L121.343 50.1771C120.827 48.1543 120.311 46.1314 119.778 44.1108L119.58 43.3517L119.479 42.9733C119.459 42.8966 119.431 42.8087 119.402 42.72L119.402 42.7198C119.383 42.6627 119.365 42.6053 119.348 42.5505L119.208 42.1183C119.179 42.0242 119.14 41.9341 119.1 41.844C119.079 41.7955 119.057 41.747 119.038 41.6979L119.015 41.6443C118.903 41.384 118.792 41.1229 118.645 40.8803C118.071 39.8151 117.283 38.8644 116.34 38.0983C115.398 37.3321 114.298 36.7411 113.109 36.4117C111.922 36.0801 110.652 36.003 109.425 36.2085C109.271 36.2249 109.119 36.2599 108.97 36.2996L108.519 36.4117L108.295 36.4701L108.108 36.5262L107.734 36.6407L106.304 37.0763C105.784 36.4601 105.26 35.846 104.737 35.232L104.737 35.2317L104.737 35.2313L104.736 35.231L104.736 35.2307L104.733 35.2272L104.732 35.226L104.731 35.2248L104.73 35.2235C104.333 34.7579 103.937 34.2924 103.541 33.826L99.9557 29.6611L97.6244 26.9834C98.7693 26.6529 99.9079 26.3027 101.044 25.9445L102.247 25.5638L102.318 25.5441C102.455 25.5057 102.591 25.4676 102.728 25.4517C102.845 25.4245 102.964 25.4171 103.081 25.4097C103.126 25.4069 103.17 25.4041 103.214 25.4003C103.861 25.3839 104.525 25.5217 105.095 25.8464C105.676 26.1501 106.162 26.622 106.508 27.1826C106.532 27.229 106.557 27.2745 106.582 27.3201L106.582 27.3201C106.637 27.4189 106.691 27.5177 106.73 27.6264C106.744 27.6626 106.758 27.6952 106.773 27.7286L106.773 27.7293C106.791 27.771 106.81 27.814 106.83 27.867L106.942 28.1683C107.076 28.5324 107.215 28.8926 107.355 29.2543L107.355 29.2554L107.398 29.3666C108.026 30.9574 108.706 32.5294 109.535 34.0524C109.629 34.2229 109.82 34.3257 110.021 34.293C110.28 34.2533 110.458 34.0104 110.418 33.7511C110.154 32.0389 109.741 30.3757 109.276 28.7289C109.157 28.3178 109.038 27.909 108.912 27.5002L108.818 27.1942C108.795 27.1186 108.76 27.0284 108.726 26.9394L108.726 26.9389C108.713 26.9044 108.7 26.8701 108.687 26.8369C108.621 26.6361 108.524 26.4462 108.428 26.257L108.41 26.2222C108.393 26.1896 108.377 26.157 108.36 26.1244C107.846 25.2134 107.092 24.4215 106.169 23.9123C105.256 23.3891 104.188 23.1368 103.133 23.1672C102.605 23.1929 102.077 23.284 101.582 23.4451C101.491 23.4716 101.426 23.4939 101.36 23.5163C101.328 23.5274 101.295 23.5386 101.259 23.5503L100.956 23.653L100.351 23.8609C98.9646 24.3423 97.5838 24.8357 96.214 25.3634L92.7402 21.3734C91.8824 20.4034 91.0267 19.4319 90.1711 18.4605L90.1703 18.4596L90.1696 18.4587L90.1688 18.4579L90.1667 18.4555C88.6029 16.68 87.0392 14.9048 85.4639 13.1394L81.8036 9.04224C81.3544 8.5471 80.9069 8.05103 80.4594 7.55505L80.4588 7.55439L80.4584 7.55399L80.4582 7.55377L80.4579 7.55338C79.6793 6.69045 78.901 5.8278 78.1152 4.97079C77.5943 4.39849 76.7066 4.35645 76.1344 4.87735L68.2204 12.0789L60.3227 19.2968L44.5648 33.7746L28.8536 48.3039L24.927 51.9362L22.9625 53.7535L21.0097 55.5825C18.6405 57.8215 16.2967 60.0878 14.0281 62.4366L12.8107 62.6905ZM9.78105 63.2955L9.89094 63.277C11.3945 60.8123 12.9191 58.363 14.4575 55.9234C14.6554 55.6073 14.8536 55.2915 15.052 54.9758C14.6063 55.1635 14.1527 55.3253 13.6985 55.4874L13.6984 55.4874L13.6983 55.4875L13.6982 55.4875L13.6981 55.4875L13.6981 55.4876L13.6026 55.5217L12.131 56.0472C11.9218 56.1223 11.7112 56.1971 11.5005 56.272C10.7278 56.5467 9.95362 56.8219 9.24146 57.1101C8.33047 57.4978 7.42414 57.8973 6.60191 58.4018C5.77734 58.897 5.01117 59.467 4.39216 60.1093C4.30807 60.1864 4.23565 60.2682 4.17025 60.3523L3.96002 60.5999C3.91723 60.6549 3.87944 60.7109 3.84142 60.7673C3.82132 60.797 3.80116 60.8269 3.78016 60.8568C3.71942 60.9409 3.65869 61.0273 3.61898 61.1138C3.40641 61.4571 3.29896 61.8122 3.26626 62.1112C3.25189 62.1723 3.25548 62.2265 3.25897 62.2791L3.25897 62.2791C3.26001 62.2949 3.26105 62.3105 3.26159 62.3261C3.25619 62.3819 3.26743 62.4293 3.27821 62.4749C3.28143 62.4885 3.2846 62.5019 3.28728 62.5153C3.30831 62.6391 3.35269 62.7395 3.41809 62.826C3.5419 63.0035 3.78716 63.1857 4.15156 63.3165C4.50662 63.452 4.94343 63.5314 5.39659 63.5781C5.85209 63.6225 6.33095 63.6272 6.81681 63.6132C7.78854 63.5828 8.78597 63.4613 9.78105 63.2955ZM16.791 61.8486L18.9191 61.3777L21.9674 60.6933L25.0087 59.9762C26.6036 59.6091 28.1928 59.2118 29.7807 58.8147C30.2138 58.7064 30.6467 58.5982 31.0797 58.4906C31.2138 58.4568 31.3478 58.4232 31.4819 58.3898C33.7877 55.9213 36.2196 53.5932 38.6805 51.296L46.7884 43.7277C48.1362 42.4617 49.4956 41.2097 50.8575 39.9576L54.9359 36.2015C56.1851 35.0448 57.4442 33.9 58.7022 32.7561L59.0284 32.4594L59.0293 32.4586C60.3955 31.2138 61.7617 29.9691 63.1396 28.7383C63.6091 28.3179 64.3192 28.3436 64.7583 28.7851L64.7887 28.8154C66.2346 30.2754 67.9235 31.4643 69.7735 32.2959C70.7009 32.707 71.6632 33.0317 72.6466 33.2676C73.6301 33.4989 74.6368 33.6414 75.6459 33.6881C77.6665 33.7722 79.6987 33.4849 81.6118 32.8238C83.5272 32.1698 85.3235 31.1583 86.9119 29.8526L86.9937 29.7848C87.4679 29.3947 88.1663 29.4601 88.5611 29.9296L96.9748 39.9667L97.2835 39.8665C99.2619 39.2125 101.254 38.5981 103.249 38.0048L104.943 37.4902C104.536 37.0737 104.13 36.6564 103.725 36.2391L103.72 36.2337L103.719 36.2327C103.277 35.7781 102.835 35.3236 102.392 34.8702L98.5799 30.9108L91.0023 22.9501C90.1189 22.0074 89.2335 21.0661 88.348 20.1248L88.3431 20.1196L88.3421 20.1186C86.7195 18.3936 85.0966 16.6684 83.4854 14.9334L79.748 10.9063C79.3369 10.4572 78.9248 10.0088 78.5127 9.56038L78.5096 9.55707L78.5054 9.55243C77.9971 8.99947 77.4888 8.44638 76.982 7.89153L70.1078 14.1508L62.1821 21.3384L46.291 35.6714L30.3533 49.953L26.3682 53.5222L24.3757 55.3069L22.3715 57.0798C20.5327 58.6928 18.6795 60.2905 16.791 61.8486ZM95.635 40.4013L87.6652 32.3351C86.1623 33.6368 84.4169 34.68 82.5391 35.3839C80.3084 36.2202 77.9001 36.5963 75.5174 36.4725C74.3261 36.4141 73.1419 36.2365 71.9879 35.9399C70.8317 35.6479 69.7104 35.2321 68.6429 34.7065C67.5754 34.181 66.557 33.5596 65.6203 32.8308C64.998 32.3427 64.4049 31.8171 63.8542 31.2533C62.9087 32.1229 61.9596 32.9874 61.0102 33.8524L61.0091 33.8533L60.6238 34.2043L60.0385 34.7378L60.0379 34.7383C58.8671 35.8057 57.6962 36.873 56.515 37.9301L52.3922 41.6395C51.0186 42.8775 49.6451 44.1132 48.2576 45.3372L39.9629 52.7022C38.0333 54.4151 36.0878 56.1097 34.0811 57.737L34.1117 57.7291L37.1367 56.9349L40.1593 56.1383L43.1773 55.3208L46.1952 54.5032L49.2085 53.6693C51.2174 53.1157 53.2262 52.5574 55.2304 51.9851C57.8084 51.2556 60.381 50.5083 62.9534 49.761L62.9537 49.761L62.954 49.7609L62.9543 49.7608L62.9546 49.7607L62.9549 49.7606C68.3886 48.1822 73.8215 46.604 79.3018 45.1947C79.9524 45.0203 80.6038 44.8484 81.2552 44.6765L81.2564 44.6762C82.6205 44.3161 83.9846 43.9561 85.3424 43.5736C87.3466 43.0013 89.3484 42.4243 91.3363 41.796L95.635 40.4013ZM112.946 75.8766C112.112 75.5472 111.215 75.3978 110.344 75.4421C110.157 75.4515 109.996 75.587 109.963 75.7808C109.923 76.0027 110.07 76.2177 110.292 76.2574L110.304 76.2597C111.818 76.5353 113.126 77.3272 114.037 78.4437C114.497 78.995 114.845 79.6327 115.1 80.2961C115.151 80.4077 115.185 80.5261 115.219 80.6442L115.219 80.6443C115.234 80.6967 115.249 80.749 115.265 80.8007C115.274 80.8309 115.283 80.8612 115.292 80.8916L115.293 80.8918C115.309 80.9458 115.326 81 115.338 81.0553L115.387 81.3146C115.427 81.4874 115.464 81.6603 115.476 81.8355C115.48 81.9013 115.488 81.9667 115.497 82.0321L115.497 82.0323C115.511 82.141 115.524 82.2494 115.52 82.3587C115.578 83.7649 115.17 85.1594 114.308 86.1942C113.88 86.7128 113.348 87.1449 112.75 87.4696C112.154 87.799 111.495 88.0326 110.806 88.14C110.117 88.2498 109.405 88.2475 108.706 88.147C108.008 88.0466 107.321 87.8644 106.695 87.5584C105.441 86.9557 104.422 85.9233 103.913 84.6572C103.656 84.0265 103.53 83.3398 103.528 82.6413C103.521 81.9382 103.665 81.2281 103.89 80.5647C104.354 79.2286 105.268 78.0653 106.494 77.1497L106.501 77.145C106.674 77.0142 106.753 76.7829 106.679 76.5657C106.585 76.2971 106.293 76.1546 106.025 76.248C104.359 76.8226 102.92 78.2008 102.217 79.9107C102.042 80.3358 101.895 80.7773 101.806 81.2281C101.769 81.3775 101.746 81.529 101.723 81.6805L101.723 81.6808C101.712 81.7566 101.7 81.8323 101.687 81.9079L101.635 82.5993C101.605 83.5243 101.741 84.4727 102.065 85.3603C102.388 86.248 102.89 87.0749 103.53 87.7663C104.168 88.46 104.931 89.0253 105.761 89.4505C107.428 90.2961 109.318 90.5577 111.157 90.275C112.075 90.1325 112.976 89.8219 113.803 89.3617C114.625 88.8945 115.366 88.2685 115.954 87.5187C116.545 86.7712 116.98 85.9022 117.237 84.9959L117.326 84.6549C117.358 84.5428 117.384 84.4283 117.398 84.3115L117.41 84.2315L117.428 84.1222C117.455 83.954 117.482 83.7859 117.499 83.6177L117.527 82.9217C117.528 82.7626 117.518 82.6036 117.507 82.4446C117.502 82.3724 117.497 82.3001 117.494 82.2279C117.491 82.0737 117.465 81.9216 117.439 81.7696C117.426 81.6935 117.413 81.6175 117.403 81.5411C117.375 81.3122 117.316 81.088 117.256 80.8661L117.164 80.532C117.14 80.4566 117.112 80.3823 117.084 80.3084C117.071 80.2747 117.058 80.241 117.045 80.2074C117.024 80.1539 117.004 80.1003 116.984 80.0468C116.924 79.8852 116.864 79.7246 116.781 79.572C116.398 78.7381 115.866 77.9766 115.209 77.3459C114.558 76.7105 113.782 76.206 112.946 75.8766ZM56.8751 128.287C54.4847 129.174 52.0451 129.886 49.6054 130.599C49.1796 130.723 48.7537 130.848 48.3281 130.973C46.8962 131.396 45.462 131.809 44.0277 132.221L41.8764 132.837L40.7995 133.146C40.7435 133.161 40.6906 133.176 40.6377 133.192C40.5142 133.228 40.3908 133.264 40.2273 133.3L39.9002 133.374L39.5662 133.419C37.7769 133.65 35.9175 132.891 34.7706 131.501C34.189 130.812 33.8036 129.969 33.6214 129.093C33.4322 128.212 33.4976 127.282 33.7522 126.421C34.0115 125.556 34.502 124.769 35.1374 124.127C35.7844 123.494 36.5903 123.024 37.4569 122.767L41.7596 121.524L50.3603 119.032C51.6697 118.651 52.9751 118.255 54.2804 117.859L54.2813 117.859L54.2819 117.859L54.2826 117.858L54.2831 117.858L54.2836 117.858L54.2841 117.858C55.8349 117.387 57.3855 116.917 58.9424 116.472L59.211 116.395L59.3465 116.358C59.3705 116.351 59.4006 116.344 59.432 116.337L59.4656 116.329C59.4815 116.325 59.4973 116.322 59.5124 116.318C59.7413 116.264 59.9725 116.21 60.2085 116.189C60.6756 116.122 61.1545 116.136 61.624 116.189C62.5584 116.327 63.46 116.678 64.2122 117.24C64.9573 117.806 65.5787 118.542 65.9594 119.389C66.3448 120.233 66.5154 121.165 66.4499 122.08C66.3285 123.914 65.2166 125.608 63.6445 126.416L63.3502 126.565L63.0442 126.687C62.8985 126.751 62.7454 126.792 62.593 126.833L62.5211 126.852C62.5015 126.858 62.4819 126.863 62.4624 126.869L62.4205 126.881C62.1769 126.937 61.9463 126.985 61.7164 127.032L61.7143 127.033L61.7131 127.033C61.5805 127.06 61.448 127.088 61.3133 127.117C60.5799 127.266 59.8464 127.409 59.1082 127.544C58.8536 127.591 58.6084 127.42 58.5616 127.166C58.5219 126.941 58.6481 126.724 58.8536 126.645C59.5521 126.374 60.2552 126.112 60.9583 125.858C61.0743 125.816 61.1924 125.773 61.3104 125.731L61.3106 125.731C61.5467 125.647 61.7829 125.563 62.0024 125.479C62.0539 125.455 62.1062 125.433 62.1584 125.412C62.2507 125.374 62.3425 125.337 62.4275 125.283L62.6308 125.173L62.8223 125.042C63.3292 124.697 63.7286 124.22 64.0066 123.692C64.0524 123.614 64.0868 123.529 64.121 123.444C64.1427 123.391 64.1644 123.337 64.1888 123.286C64.2033 123.23 64.2217 123.175 64.2399 123.121L64.24 123.121C64.2688 123.035 64.2974 122.951 64.3103 122.861L64.3593 122.646C64.3671 122.597 64.3728 122.549 64.3785 122.501C64.3814 122.477 64.3842 122.453 64.3874 122.428C64.4068 122.329 64.4083 122.228 64.4097 122.128V122.128C64.41 122.105 64.4103 122.082 64.4109 122.059C64.4114 122.038 64.412 122.017 64.413 121.996C64.413 121.419 64.2449 120.852 63.9856 120.352C63.7286 119.847 63.3245 119.436 62.869 119.123C62.4042 118.82 61.8716 118.623 61.3273 118.563L61.2527 118.559C61.0043 118.545 60.7561 118.532 60.5098 118.577C60.4016 118.584 60.2978 118.609 60.1927 118.633L60.1926 118.633L60.1924 118.633L60.13 118.648L60.1057 118.654C60.0916 118.657 60.0796 118.66 60.0676 118.662C60.0475 118.666 60.0274 118.671 59.9982 118.679L59.8627 118.717L59.5941 118.792C58.0283 119.227 56.4549 119.636 54.8814 120.045C53.5653 120.388 52.2491 120.73 50.9373 121.088L42.2992 123.452L37.9825 124.638C37.4172 124.799 36.8939 125.096 36.4665 125.498C36.0507 125.911 35.719 126.421 35.5415 126.986C35.3686 127.549 35.3149 128.156 35.4387 128.738C35.5578 129.319 35.8031 129.878 36.1838 130.333C36.9337 131.253 38.1693 131.772 39.3536 131.625L39.5755 131.599L39.7951 131.55C39.8897 131.533 40.0234 131.496 40.1555 131.458L40.1557 131.458L40.2311 131.437C40.2559 131.43 40.2804 131.423 40.3043 131.417L41.3835 131.118L43.5419 130.522C44.9808 130.123 46.4197 129.728 47.8609 129.34C48.289 129.225 48.7168 129.109 49.1446 128.993L49.1459 128.993L49.1461 128.993L49.1463 128.993L49.1464 128.993L49.1466 128.992L49.1468 128.992C51.599 128.327 54.0514 127.661 56.5528 127.17C56.8705 127.107 57.1788 127.315 57.2395 127.633C57.3026 127.911 57.1414 128.189 56.8751 128.287ZM114.812 121.419C114.174 120.934 113.53 120.45 112.848 120.006C112.693 119.906 112.49 119.899 112.322 120.004C112.102 120.149 112.039 120.443 112.184 120.665C112.628 121.345 113.109 121.989 113.597 122.629C114.09 123.265 114.592 123.888 115.106 124.5C115.618 125.117 116.139 125.722 116.664 126.322C117.195 126.92 117.727 127.514 118.283 128.084L118.29 128.091C118.825 128.635 119.701 128.642 120.245 128.105L120.266 128.086C121.448 126.92 122.612 125.734 123.763 124.536C124.912 123.337 126.055 122.13 127.183 120.908C128.318 119.693 129.435 118.46 130.542 117.217C131.644 115.972 132.731 114.708 133.784 113.412C133.957 113.202 133.964 112.891 133.784 112.672C133.579 112.422 133.209 112.382 132.957 112.587C131.663 113.641 130.397 114.727 129.152 115.83C127.909 116.937 126.676 118.053 125.461 119.189C124.24 120.317 123.032 121.459 121.834 122.608C120.962 123.445 120.097 124.29 119.241 125.144C118.997 124.923 118.751 124.704 118.505 124.486C117.905 123.959 117.3 123.438 116.683 122.928C116.071 122.412 115.447 121.91 114.812 121.419Z" fill="#0D0D0D"/>
</svg>
