<svg width="216" height="217" viewBox="0 0 216 217" fill="none" xmlns="http://www.w3.org/2000/svg">
<path fill-rule="evenodd" clip-rule="evenodd" d="M117.039 2.42241C139.38 -2.66656 163.373 0.363989 183.893 10.5587C205.673 21.3788 175.818 65.4599 181.782 89.0362C187.689 112.386 224.178 106.788 213.727 128.488C205.914 144.712 193.046 156.638 181.782 170.687C169.976 185.413 163.126 205.22 145.946 213.035C128.014 221.192 107.715 214.41 88.045 213.33C62.0529 211.902 72.8645 188.462 53.8468 170.687C35.1537 153.215 -4.10605 156.56 0.349635 131.364C20.3027 114.712 18.6462 94.4198 34.6765 76.9731C44.8144 62.6942 53.0184 60.8644 67.258 37.1265C82.5647 23.2715 96.9083 7.0078 117.039 2.42241Z" fill="#FFF6F0"/>
</svg>
