<svg width="32" height="32" viewBox="0 0 32 32" fill="none" xmlns="http://www.w3.org/2000/svg">
<path d="M15.9999 9.33353C18.8289 9.33353 21.542 10.4573 23.5424 12.4577C25.5428 14.4581 26.6666 17.1712 26.6666 20.0002C26.6666 22.8292 25.5428 25.5423 23.5424 27.5427C21.542 29.5431 18.8289 30.6669 15.9999 30.6669C13.1709 30.6669 10.4578 29.5431 8.45745 27.5427C6.45706 25.5423 5.33325 22.8292 5.33325 20.0002C5.33325 17.1712 6.45706 14.4581 8.45745 12.4577C10.4578 10.4573 13.1709 9.33353 15.9999 9.33353ZM15.9999 12.0002C13.8782 12.0002 11.8434 12.8431 10.3431 14.3433C8.84277 15.8436 7.99992 17.8785 7.99992 20.0002C7.99992 22.1219 8.84277 24.1568 10.3431 25.657C11.8434 27.1573 13.8782 28.0002 15.9999 28.0002C18.1216 28.0002 20.1565 27.1573 21.6568 25.657C23.1571 24.1568 23.9999 22.1219 23.9999 20.0002C23.9999 17.8785 23.1571 15.8436 21.6568 14.3433C20.1565 12.8431 18.1216 12.0002 15.9999 12.0002ZM15.9999 14.0002L17.7639 17.5735L21.7066 18.1469L18.8533 20.9269L19.5266 24.8549L15.9999 23.0002L12.4733 24.8535L13.1466 20.9269L10.2933 18.1455L14.2359 17.5722L15.9999 14.0002ZM23.9999 2.66686V6.66686L22.1826 8.18419C20.6745 7.39297 19.028 6.89997 17.3333 6.73219V2.66686H23.9999ZM14.6666 2.66553V6.73219C12.9724 6.89972 11.3264 7.39226 9.81858 8.18286L7.99992 6.66686V2.66686L14.6666 2.66553Z" fill="#632121"/>
</svg>
