<svg width="40" height="40" viewBox="0 0 40 40" fill="none" xmlns="http://www.w3.org/2000/svg">
<path d="M34.9998 31.6667H38.3332V35H1.6665V31.6667H4.99984V6.66667C4.99984 6.22464 5.17543 5.80072 5.48799 5.48816C5.80055 5.17559 6.22448 5 6.6665 5H23.3332C23.7752 5 24.1991 5.17559 24.5117 5.48816C24.8242 5.80072 24.9998 6.22464 24.9998 6.66667V31.6667H28.3332V15H33.3332C33.7752 15 34.1991 15.1756 34.5117 15.4882C34.8242 15.8007 34.9998 16.2246 34.9998 16.6667V31.6667ZM11.6665 18.3333V21.6667H18.3332V18.3333H11.6665ZM11.6665 11.6667V15H18.3332V11.6667H11.6665Z" fill="#219653"/>
</svg>
