<svg width="164" height="222" viewBox="0 0 164 222" fill="none" xmlns="http://www.w3.org/2000/svg">
<path fill-rule="evenodd" clip-rule="evenodd" d="M129.454 150.189C128.488 147.221 129.638 143.794 128.887 140.596C128.629 139.33 128.14 134.63 127.648 131.881C127.373 130.344 129.018 129.866 129.271 129.253C131.05 123.74 118.073 110.771 117.281 110.294C116.094 109.607 115.044 109.017 113.884 108.316C110.5 107.127 106.443 103.819 103.376 105.944C98.0615 98.0294 100.164 88.2787 97.2802 87.1198C94.3965 85.9609 85.8806 83.6187 81.012 86.6097C78.0938 88.7696 78.3089 92.488 76.9774 95.5546C76.1958 96.9981 75.8119 99.0892 74.9021 100.031C71.8107 103.23 67.9558 103.781 63.6461 104.324C63.3179 104.365 62.9725 103.472 62.6536 103.583C55.3839 106.096 46.9249 106.83 38.6919 120.904C37.5292 122.917 34.3926 126.147 35.4414 128.473C28.5309 144.548 21.7312 180.731 40.6929 189.755C41.299 190.143 45.4109 188.063 46.0809 188.082C47.1977 188.114 45.0578 190.827 46.0809 190.344C53.5921 190.914 94.9223 189.443 110.765 190.914C121.659 190.832 128.559 192.743 131.075 190.832C130.069 188.401 130.116 185.797 130.434 183.227C132.749 181.503 129.887 169.357 130.129 165.8C132.296 163.201 130.571 153.454 129.454 150.189Z" fill="white"/>
<path fill-rule="evenodd" clip-rule="evenodd" d="M126 132.397C124.96 133.909 124.005 135.466 123.142 137.085C122.697 137.921 122.282 138.772 121.908 139.642C121.831 137.762 121.813 135.861 121.594 134C121.578 133.866 121.354 133.801 121.331 133.964C121.088 135.652 121.048 137.383 120.957 139.088C120.851 139.056 120.734 139.037 120.606 139.037C119.359 139.037 118.13 139.139 116.887 139.24C116.33 139.285 115.748 139.32 115.179 139.408C115.637 138.903 116.063 138.37 116.456 137.813C116.857 137.245 117.315 136.358 116.616 135.813C115.845 135.21 114.331 135.998 113.585 136.304C113.207 136.46 112.836 136.628 112.472 136.808C112.011 135.517 110.599 135.346 109.388 135.524C108.525 135.651 107.688 135.946 106.846 136.171C105.779 136.457 104.706 136.725 103.63 136.977C101.692 137.431 99.7405 137.828 97.7798 138.172C97.728 138.111 97.6561 138.064 97.5601 138.04C96.8888 137.872 96.1481 138.001 95.4594 138.013C94.7515 138.027 94.0434 138.025 93.3354 138.011C92.0706 137.985 90.8071 137.975 89.5426 137.953C89.1831 137.735 88.7274 137.422 88.6158 137.011C88.4765 136.5 88.9116 135.932 89.1135 135.497C89.8892 133.823 90.1605 131.95 89.8562 130.127C89.8019 129.802 89.6901 129.447 89.5287 129.114C90.9142 129.263 92.2817 129.363 93.6746 129.409C96.4561 129.499 99.2375 129.594 102.02 129.615C107.584 129.656 113.148 129.657 118.713 129.616C121.859 129.593 124.997 129.564 128.139 129.403C127.883 129.728 127.634 130.06 127.391 130.397C127.341 130.381 127.275 130.408 127.283 130.471C127.285 130.493 127.288 130.514 127.291 130.536C126.847 131.156 126.42 131.786 126 132.397ZM119.813 189.945C118.52 189.904 117.227 189.863 115.934 189.821C113.396 189.741 110.858 189.66 108.32 189.579C103.292 189.419 98.2645 189.265 93.236 189.126C88.2195 188.987 83.2006 188.841 78.1827 188.997C73.1535 189.154 68.137 189.56 63.1171 189.886C60.3264 190.067 57.5336 190.224 54.7377 190.299C52.0748 190.371 49.3885 190.263 46.7298 190.453C46.6405 189.795 46.7062 189.139 46.6965 188.484C47.5686 187.981 48.4245 187.445 49.2705 186.919C52.3548 185 55.2701 182.828 58.02 180.455C58.4427 180.09 58.8572 179.718 59.2675 179.341C58.9819 179.965 59.2104 180.77 60.0288 181.034C61.0268 181.357 62.0487 181.242 63.0852 181.218C64.1378 181.193 65.1904 181.169 66.2431 181.147C68.3004 181.104 70.358 181.064 72.4155 181.03C76.4349 180.963 80.4545 180.913 84.4742 180.88C92.5616 180.815 100.643 180.925 108.729 181.071C111.003 181.112 113.275 181.163 115.548 181.112C116.686 181.086 117.828 181.078 118.965 181.016C119.875 180.967 120.791 180.838 121.701 180.722C121.816 182.308 121.936 183.894 122.069 185.478C122.158 186.525 122.249 187.571 122.339 188.617C122.376 189.048 122.378 189.489 122.439 189.899C121.565 189.947 120.697 189.973 119.813 189.945ZM120.702 145.163C120.67 146.377 120.653 147.591 120.645 148.806C120.54 148.746 120.421 148.702 120.288 148.682C118.874 148.466 117.361 148.63 115.93 148.654C114.547 148.677 113.16 148.669 111.778 148.735C110.394 148.8 109.01 148.878 107.626 148.95C106.977 148.984 106.334 149.013 105.69 149.101C105.249 149.161 104.684 149.157 104.212 149.282C106.191 147.365 108.159 145.437 110.132 143.515C110.191 143.457 110.234 143.396 110.264 143.334C111.579 142.532 112.842 141.629 113.986 140.596C114.893 140.946 115.925 140.99 116.887 141.068C118.13 141.169 119.358 141.271 120.606 141.271C120.69 141.271 120.769 141.263 120.843 141.248C120.782 142.552 120.736 143.857 120.702 145.163ZM69.3296 168.745C72.3502 169.71 75.6228 169.699 78.7653 169.893C82.1153 170.099 85.4602 170.27 88.8142 170.401C95.5126 170.661 102.207 171.015 108.904 171.296C112.73 171.457 116.554 171.634 120.378 171.827C120.65 171.84 120.908 171.771 121.137 171.643C121.265 174.163 121.415 176.681 121.59 179.197C121.612 179.512 121.637 179.826 121.659 180.141C119.859 179.915 118.073 179.699 116.26 179.546C114.224 179.374 112.188 179.229 110.149 179.094C106.176 178.83 102.196 178.477 98.2157 178.349C90.1012 178.086 81.9688 178.175 73.8512 178.233C71.5543 178.25 69.2576 178.272 66.9609 178.3C65.8126 178.314 64.6643 178.329 63.516 178.345C62.3619 178.362 61.1217 178.242 60.029 178.645C60.0186 178.649 60.0098 178.655 59.9995 178.659C63.2961 175.534 66.2494 172.081 69.3296 168.745ZM79.948 158.755C84.996 159.675 90.1232 159.612 95.2401 159.703C100.476 159.796 105.719 159.734 110.955 159.745C113.93 159.751 116.93 159.882 119.894 159.617C120.244 159.586 120.516 159.453 120.709 159.264C120.763 162.418 120.862 165.57 120.999 168.721C120.806 168.64 120.596 168.59 120.378 168.577C113.687 168.183 106.995 167.826 100.296 167.608C93.6013 167.39 86.8988 167.131 80.2009 167.212C76.9323 167.251 73.4759 167.042 70.2522 167.755C71.4773 166.453 72.7287 165.174 74.0376 163.951C75.946 162.167 77.9824 160.495 79.948 158.755ZM83.8047 155.043C83.8115 155.035 83.8148 155.027 83.8199 155.019C83.8381 155.032 83.8603 155.042 83.8895 155.041C88.6149 154.934 93.9161 156.426 98.3358 154.137C100.309 153.115 101.943 151.5 103.529 149.948C103.53 149.96 103.531 149.971 103.532 149.983C103.542 150.109 103.595 150.26 103.723 150.316C104.244 150.545 104.855 150.56 105.414 150.641C106.058 150.735 106.69 150.79 107.34 150.829C108.771 150.915 110.203 151.006 111.635 151.087C113.064 151.168 114.499 151.175 115.93 151.21C117.365 151.246 118.868 151.42 120.288 151.215C120.418 151.196 120.534 151.155 120.637 151.098C120.64 152.936 120.656 154.774 120.673 156.61C120.676 156.91 120.682 157.209 120.686 157.508C120.494 157.332 120.23 157.21 119.894 157.18C117.261 156.948 114.607 157.051 111.964 157.06C109.369 157.069 106.774 157.077 104.179 157.086C98.9389 157.103 93.7031 157.155 88.4639 157.254C85.9161 157.303 83.3794 157.517 80.8689 157.93C81.8854 157.003 82.8736 156.05 83.8047 155.043ZM42.7464 188.457C41.779 188.753 40.8187 188.625 39.8494 188.828C39.7898 188.84 39.7348 188.863 39.6844 188.894C36.7818 187.653 34.847 185.163 33.5228 182.374C32.1271 179.433 31.165 176.29 30.5206 173.103C29.1918 166.534 29.1895 159.722 29.8773 153.076C30.5531 146.547 31.8911 140.053 33.8004 133.774C35.1114 129.462 36.7822 125.106 39.102 121.175C41.7807 122.97 43.8582 125.555 45.8152 128.082C48.1538 131.102 50.2612 134.297 52.1477 137.618C51.9526 138.186 51.9223 138.9 51.8288 139.408C51.6484 140.389 51.4856 141.381 51.3575 142.37C51.084 144.483 50.8215 146.598 50.5419 148.71C49.9888 152.887 49.3285 157.053 48.599 161.203C48.54 161.54 48.6344 161.824 48.808 162.037C47.3612 162.8 45.9333 163.597 44.542 164.46C41.4833 166.359 38.6247 168.571 36.3804 171.408C36.3221 171.481 36.4135 171.58 36.4857 171.513C41.2985 167.064 47.2779 164.271 53.1486 161.511C56.1486 160.1 59.134 158.667 62.0124 157.017C65.0224 155.293 67.893 153.344 70.6443 151.232C73.786 148.821 76.7433 146.184 79.5156 143.355C79.8422 143.022 79.763 142.605 79.5173 142.341C79.6003 142.315 79.6673 142.243 79.6717 142.122C79.7382 140.275 80.2927 138.701 81.3784 137.206C82.3855 135.819 83.669 134.676 84.8268 133.421C85.3414 132.863 85.8331 132.282 86.2721 131.662C86.7241 131.024 86.9994 130.32 87.3928 129.654C87.8523 128.875 88.2433 129.273 88.4562 129.978C88.6977 130.777 88.6827 131.713 88.5857 132.534C88.483 133.404 88.2184 134.251 87.8373 135.037C87.4793 135.775 87.0665 136.526 87.3075 137.372C87.7035 138.763 89.4012 139.568 90.6874 139.881C92.1195 140.229 93.6176 140.162 95.0677 139.981C96.8839 139.754 98.6913 139.423 100.487 139.07C102.566 138.662 104.632 138.191 106.683 137.658C107.647 137.408 108.604 137.079 109.577 136.871C109.924 136.798 110.567 136.687 110.974 136.868C105.732 139.994 100.016 142.077 94.2111 143.892C93.4898 144.117 93.7856 145.207 94.5238 145.026C100.76 143.501 106.628 140.67 112.212 137.569C112.297 137.521 112.369 137.448 112.423 137.361C112.984 137.163 113.556 136.992 114.138 136.85C114.398 136.787 115.737 136.345 115.904 136.515C116.142 136.755 115.321 137.536 115.116 137.763C113.657 139.38 111.921 140.7 110.042 141.791C108.136 142.898 106.109 143.78 104.071 144.612C101.789 145.545 99.3769 146.278 97.1586 147.35C96.2774 147.776 96.8957 149.223 97.8241 148.93C99.0206 148.551 100.183 147.995 101.346 147.523C102.334 147.122 103.322 146.721 104.304 146.307C104.988 146.018 105.669 145.719 106.342 145.407C105.333 146.356 104.324 147.306 103.316 148.256C101.569 149.901 99.9089 151.776 97.7734 152.93C95.6637 154.07 93.2568 154.202 90.9084 154.178C89.7294 154.165 88.5555 154.128 87.3765 154.175C86.1357 154.225 85.0337 154.416 83.8578 154.807C83.8362 154.814 83.8204 154.827 83.8072 154.842C83.766 154.792 83.6963 154.767 83.6243 154.809C80.429 156.699 77.5164 159.151 74.7153 161.574C71.8282 164.071 69.1117 166.727 66.5234 169.533C64.0459 172.218 61.5882 174.913 58.8923 177.383C56.2601 179.796 53.4471 181.986 50.5098 184.013C48.9094 185.118 47.2694 186.181 45.5725 187.132C44.6657 187.64 43.7448 188.152 42.7464 188.457ZM43.0151 115.755C44.1594 114.469 45.3909 113.278 46.6941 112.175C47.2691 112.345 47.8727 112.393 48.481 112.399C49.4091 112.409 50.3392 112.447 51.2674 112.438C53.0545 112.419 54.8409 112.363 56.6284 112.353C60.2833 112.333 63.9394 112.332 67.5943 112.364C68.0732 112.368 68.4187 112.163 68.6319 111.866C69.3718 112.705 70.1343 113.525 70.9032 114.331C72.1524 115.642 73.4842 116.893 74.9019 118.032C74.6258 118.034 74.3499 118.037 74.0755 118.035C72.8113 118.026 71.5469 118.018 70.2829 118.012C67.7459 117.998 65.209 117.987 62.672 117.98C57.6284 117.967 52.5691 118.009 47.532 118.268C46.134 118.339 44.725 118.368 43.3318 118.505C42.5762 118.579 41.8215 118.665 41.0666 118.745C40.9121 118.762 40.764 118.782 40.6186 118.806C41.3579 117.743 42.1543 116.722 43.0151 115.755ZM63.2152 104.294C63.1811 104.317 63.1443 104.338 63.1117 104.363C63.0375 104.418 63.0492 104.519 63.1367 104.553C63.253 104.599 63.3753 104.633 63.5012 104.66C63.8835 105.215 64.1822 105.901 64.3908 106.248C64.99 107.247 65.6791 108.198 66.3801 109.126C66.521 109.313 66.6647 109.497 66.8089 109.681C63.4141 109.673 60.0211 109.69 56.6283 109.819C54.8421 109.887 53.0498 109.943 51.2673 110.077C50.5344 110.133 49.8018 110.225 49.0712 110.317C52.8738 107.567 57.1502 105.467 61.5804 103.908C61.5743 103.915 61.5681 103.92 61.5621 103.927C61.4645 104.035 61.6101 104.176 61.72 104.085C62.2963 103.608 62.7965 103.832 63.2152 104.294ZM80.3684 136.616C80.272 136.762 80.1771 136.913 80.0846 137.068C79.862 136.846 79.551 136.697 79.1504 136.685C74.7032 136.546 70.2581 136.425 65.8085 136.422C63.6141 136.42 61.3998 136.346 59.2082 136.455C58.1077 136.509 57.0076 136.574 55.9077 136.637C55.1387 136.68 54.3217 136.735 53.5707 136.957C51.8399 133.929 49.9185 131.017 47.8203 128.233C52.5809 128.817 57.4231 128.755 62.2107 128.917C67.635 129.101 73.0623 129.141 78.4885 129.269C79.9769 129.304 81.4653 129.343 82.9534 129.385C83.7214 129.406 84.4896 129.428 85.2578 129.452C85.4979 129.459 85.7463 129.466 85.9951 129.459C85.9763 129.498 85.9572 129.537 85.9386 129.575C85.5198 130.441 84.9932 131.237 84.3795 131.976C83.0747 133.548 81.4986 134.902 80.3684 136.616ZM74.5339 145.945C74.3692 145.487 73.9678 145.134 73.3284 145.163C69.6846 145.329 66.034 145.444 62.3944 145.684C60.6215 145.801 58.8413 145.879 57.0712 146.034C56.1582 146.114 55.2468 146.263 54.3378 146.382C53.7145 146.463 53.062 146.557 52.4642 146.779C52.5801 145.499 52.6823 144.217 52.7711 142.934C52.8423 141.903 52.8639 140.863 52.8584 139.829C52.8557 139.306 52.8379 138.78 52.8127 138.257C52.8664 138.268 52.9202 138.273 52.9731 138.267C53.0663 138.255 53.1534 138.244 53.2342 138.223C54.072 138.551 55.0202 138.623 55.9075 138.687C56.9599 138.761 58.012 138.841 59.0645 138.916C61.3037 139.076 63.5641 139.066 65.8082 139.139C70.226 139.283 74.6446 139.367 79.0632 139.485C78.8582 140.365 78.851 141.269 79.1792 142.121C78.9506 142.045 78.6874 142.08 78.4628 142.302C77.1901 143.56 75.8794 144.773 74.5339 145.945ZM61.6805 155.301C61.5906 155.052 61.4208 154.824 61.2199 154.669C60.4472 154.073 59.0368 154.416 58.1094 154.461C57.0114 154.515 55.9134 154.569 54.8155 154.623C54.4823 154.639 52.7817 154.726 51.5326 154.992C51.7907 153.042 52.0249 151.089 52.2342 149.132C52.2781 148.722 52.3188 148.311 52.3591 147.9C52.9475 148.089 53.5871 148.159 54.194 148.187C55.1035 148.231 56.0172 148.304 56.9276 148.318C58.7464 148.347 60.5754 148.257 62.3946 148.227C65.6705 148.172 68.9469 148.016 72.2214 147.887C68.9338 150.556 65.4599 152.992 61.8363 155.208C61.7846 155.24 61.7322 155.27 61.6805 155.301ZM51.3338 156.458C51.6105 156.495 51.8849 156.507 52.0949 156.528C53.1487 156.635 54.1861 156.731 55.2454 156.747C56.2956 156.762 57.3457 156.777 58.396 156.793C58.6193 156.796 58.8427 156.799 59.066 156.802C56.3005 158.314 53.4502 159.667 50.6401 161.092C50.8877 159.55 51.1188 158.005 51.3338 156.458ZM81.4676 122.047C87.7701 124.727 95.8538 124.97 101.27 120.519C101.808 120.667 102.403 120.715 102.879 120.763C103.946 120.87 105.004 120.969 106.077 121.003C108.168 121.068 110.261 121.166 112.353 121.192C116.586 121.244 120.818 121.268 125.05 121.306C125.41 121.309 125.699 121.2 125.917 121.023C126.346 121.75 126.744 122.495 127.108 123.259C127.639 124.374 128.089 125.526 128.459 126.703C128.379 126.69 128.297 126.68 128.209 126.679C122.647 126.582 117.081 126.742 111.518 126.766C105.954 126.789 100.39 126.765 94.8258 126.805C93.286 126.816 91.7576 126.816 90.2217 126.93C89.4223 126.99 88.6134 127.016 87.8217 127.145C87.7332 127.159 87.6432 127.172 87.5524 127.185C86.4914 126.564 85.1744 126.694 83.9617 126.671C82.5693 126.645 81.177 126.621 79.7847 126.601C77.0481 126.56 74.3112 126.53 71.5743 126.512C66.1426 126.474 60.7241 126.613 55.2958 126.803C52.5949 126.897 49.9044 127.056 47.2384 127.472C47.0594 127.24 46.8821 127.008 46.7008 126.778C44.8117 124.382 42.5723 121.316 39.4638 120.574C39.5831 120.38 39.7041 120.186 39.8269 119.995C41.9806 120.563 44.3564 120.534 46.5568 120.653C49.0932 120.79 51.6242 120.885 54.1636 120.947C59.2114 121.071 64.2581 121.149 69.3069 121.226C70.7081 121.247 72.1094 121.269 73.5106 121.293C74.2663 121.305 75.0222 121.32 75.7781 121.332C76.2004 121.338 76.5779 121.337 76.9803 121.197C77.3529 121.067 77.7161 120.872 78.0764 120.711C78.2022 120.654 78.3044 120.571 78.3878 120.473C79.3773 121.064 80.4026 121.595 81.4676 122.047ZM106.095 113.138C106.888 113.358 107.706 113.395 108.544 113.458C109.644 113.542 110.741 113.556 111.844 113.563C113.603 113.574 115.362 113.562 117.12 113.513C117.875 113.492 118.316 112.987 118.447 112.408C118.465 112.422 118.484 112.437 118.502 112.452C120.642 114.215 122.58 116.232 124.223 118.465C120.267 118.477 116.31 118.48 112.353 118.507C110.262 118.521 108.168 118.607 106.077 118.661C105.051 118.687 104.041 118.772 103.019 118.869C102.999 118.871 102.977 118.873 102.957 118.875C103.065 118.75 103.172 118.623 103.277 118.493C104.498 116.979 105.503 115.114 106.095 113.138ZM131.819 192.598C132.168 191.637 132.032 190.607 132.013 189.597C131.992 188.56 131.981 187.524 131.978 186.487C131.971 184.46 131.957 182.434 131.935 180.407C131.89 176.307 131.842 172.204 131.681 168.107C131.362 160.007 130.748 151.927 129.746 143.881C129.259 139.969 128.654 136.067 127.834 132.211C127.845 132.195 127.857 132.179 127.868 132.164C128.685 131.072 129.614 130.062 130.417 128.963C130.488 128.865 130.518 128.74 130.517 128.613C130.546 128.599 130.576 128.584 130.606 128.567C131.272 128.188 130.67 127.154 130.005 127.538C130.081 127.494 128.976 124.656 128.859 124.37C128.438 123.343 127.965 122.339 127.431 121.367C127.109 120.78 126.765 120.205 126.404 119.641C126.341 119.22 126.113 118.83 125.723 118.621C125.037 117.639 124.297 116.694 123.507 115.795C120.276 112.112 116.241 109.139 111.832 107.021C111.194 106.716 110.538 106.46 109.885 106.193C109.189 105.909 108.544 105.537 107.858 105.238C106.742 104.752 105.64 104.78 104.544 105.294C104.451 105.338 104.518 105.483 104.613 105.458C105.319 105.274 106.042 105.243 106.749 105.443C107.442 105.639 107.969 106.071 108.575 106.432C109.653 107.076 110.859 107.495 111.964 108.096C113.426 108.89 114.854 109.763 116.221 110.72C114.805 110.795 113.388 110.85 111.971 110.887C110.918 110.915 109.866 110.92 108.815 110.981C108.067 111.025 107.289 111.012 106.541 111.133C106.721 109.893 106.722 108.642 106.496 107.435C106.496 107.434 106.496 107.434 106.496 107.433C106.442 107.142 106.376 106.853 106.295 106.568C106.122 105.96 105.568 105.869 105.166 106.099C105.126 106.07 105.086 106.041 105.048 106.01C104.566 105.618 104.133 105.151 103.756 104.659C102.973 103.637 102.34 102.454 101.861 101.262C101.376 100.055 101.032 98.7913 100.695 97.5361C100.526 96.9069 100.343 96.281 100.171 95.6521C100.022 95.1055 99.913 94.5017 99.6382 94.0036C99.5867 93.9103 99.4316 93.9279 99.407 94.0339C99.2614 94.6578 99.3384 95.3694 99.3651 96.0055C99.3946 96.7116 99.4351 97.4112 99.5291 98.112C99.7238 99.566 100.038 100.995 100.541 102.376C101.024 103.7 101.661 104.936 102.526 106.051C103.101 106.792 103.917 107.773 104.862 108.173C104.986 109.564 104.972 110.956 104.643 112.334C104.214 114.136 103.391 115.85 102.261 117.318C99.8904 120.396 96.2235 122.135 92.398 122.494C88.44 122.865 84.3897 121.979 80.8332 120.238C76.8775 118.301 73.5959 115.312 70.6483 112.087C68.9492 110.227 67.1873 108.398 65.6126 106.431C65.3335 106.082 64.8868 105.374 64.357 104.737C64.8962 104.732 65.4496 104.651 65.9269 104.59C66.9143 104.463 67.8794 104.267 68.8443 104.021C70.6485 103.562 72.551 102.924 74.1274 101.913C77.4633 99.7756 78.7655 97.0637 79.2103 93.3277C79.3509 92.1466 77.3094 91.8598 77.1193 93.0445C76.8272 94.8656 76.3853 95.7518 75.8042 97.5012C75.2454 99.1827 74.4359 99.8091 72.8888 100.736C71.4363 101.606 69.7856 102.112 68.1855 102.634C67.2988 102.924 66.4015 103.188 65.5073 103.454C64.9381 103.623 64.2623 103.771 63.6848 104.032C63.3836 103.768 63.0693 103.568 62.7528 103.493C62.7761 103.454 62.7459 103.393 62.6876 103.404C62.5946 103.423 62.5019 103.444 62.4089 103.463C62.3155 103.469 62.2226 103.488 62.1297 103.521C56.5563 104.729 51.2041 107.3 46.6655 110.803C46.4367 110.898 46.2154 111.015 46.0048 111.163C45.8963 111.239 45.8244 111.36 45.8038 111.485C45.1215 112.043 44.4595 112.621 43.8198 113.219C38.6679 118.04 35.4037 124.452 33.1185 131.048C30.8674 137.545 29.3436 144.359 28.5057 151.181C27.6515 158.135 27.553 165.233 28.792 172.148C29.4572 175.861 30.5342 179.51 32.1238 182.934C33.5513 186.01 35.8749 189.513 39.5244 189.888C39.5361 189.9 39.5471 189.912 39.5602 189.923C40.9922 191.103 43.1242 190.288 44.6213 189.583C44.8586 189.471 45.0941 189.354 45.3285 189.233C45.2047 189.71 45.1488 190.21 45.123 190.678C45.0691 191.65 46.4393 191.705 46.6987 190.898C48.9198 191.289 51.2133 191.294 53.4598 191.282C55.9699 191.268 58.4791 191.181 60.9864 191.063C65.9609 190.828 70.9296 190.47 75.9075 190.307C85.9868 189.976 96.0938 190.682 106.165 191.037C108.99 191.137 111.816 191.237 114.641 191.336C117.527 191.438 120.411 191.458 123.274 191.848C124.327 191.992 124.731 190.96 124.434 190.316C124.508 189.884 124.434 189.411 124.393 188.902C124.318 187.951 124.246 187 124.179 186.049C124.049 184.194 123.922 182.338 123.802 180.482C123.56 176.722 123.351 172.958 123.147 169.196C122.743 161.714 122.434 154.226 122.206 146.737C122.151 144.912 122.078 143.085 121.987 141.261C122.096 141.088 122.205 140.915 122.31 140.74C122.66 140.156 123.003 139.568 123.357 138.987C124.068 137.822 124.784 136.664 125.531 135.522C126.177 134.536 126.843 133.565 127.538 132.613C128.402 139.911 129.17 147.217 129.523 154.562C129.911 162.652 130.117 170.754 130.229 178.852C130.26 181.114 130.281 183.377 130.306 185.639C130.318 186.817 130.331 187.994 130.321 189.173C130.312 190.299 130.141 191.532 130.541 192.598C130.774 193.22 131.589 193.231 131.819 192.598Z" fill="url(#paint0_linear_129_978)"/>
<path fill-rule="evenodd" clip-rule="evenodd" d="M110.27 50.1974C105.931 44.2232 97.9424 42.5052 91.0143 43.9582C77.47 46.4281 64.5298 56.7655 62.1366 70.8241C58.4029 79.3293 60.7871 92.7259 71.6457 93.7267C73.1917 93.8139 74.7229 93.4579 76.2716 93.6502C85.7235 95.1605 96.8926 101.626 105.259 94.0013C105.679 94.3018 106.231 94.4471 106.701 94.2653C110.263 92.8885 110.43 88.9057 110.734 85.6318C111.126 81.4015 111.494 77.1689 111.837 72.9346C111.959 65.6323 114.852 56.5072 110.27 50.1974Z" fill="white"/>
<path fill-rule="evenodd" clip-rule="evenodd" d="M84.0116 34.9742C89.714 34.6709 100.221 37.2838 105.196 40.3472C113.302 45.3383 113.93 55.2945 113.599 57.016C113.474 57.673 113.072 58.281 112.444 58.079C112.977 62.6021 112.935 65.1874 113.025 69.7368L113.086 72.774C113.126 74.7989 113.161 76.824 113.169 78.8497C113.374 78.7733 113.576 78.867 113.651 79.0636C113.67 79.1112 113.605 79.1372 113.573 79.1098C113.213 78.7948 113.469 79.5126 113.594 79.6586C113.765 79.8593 114.051 80.0485 114.252 80.2204L114.797 80.6924L115.342 81.1635C116.046 81.7711 116.727 82.38 117.384 83.0346L117.562 83.2143C118.759 84.4303 120.259 85.6072 121.004 87.1801C121.716 88.682 121.496 90.3847 120.314 91.582C119.884 92.0167 119.381 92.349 118.836 92.6003C119.807 94.2005 119.949 96.3163 118.935 97.9626C117.92 99.6149 115.968 100.48 114.089 100.347C114.031 100.583 113.942 100.812 113.823 101.03C113.078 102.4 111.595 102.578 110.189 102.505L110.135 102.502C106.97 102.32 103.925 101.527 101.154 99.9861C100.192 100.051 99.3346 99.2609 99.1469 98.3944C98.6416 98.3758 98.1335 98.3337 97.6152 98.2745C96.0777 98.097 94.5012 97.7663 93.1456 96.985C92.9377 96.8651 93.0344 96.5488 93.2654 96.5429C94.917 96.5054 96.57 96.6196 98.2186 96.4405C99.7316 96.2772 101.344 95.8599 102.755 95.2924C105.29 94.2698 107.464 92.5353 108.664 90.132C110.217 87.0211 110.075 83.285 110.244 79.9056C110.431 76.1647 110.662 72.4274 110.908 68.6904L111.028 66.8991C111.267 63.4076 111.465 61.5398 112.071 57.9158C110.244 58.079 102.658 55.3474 100.299 50.8793C95.8214 60.3845 73.1363 56.4944 72.1302 71.1275C72.1217 71.2516 71.9252 71.2171 71.918 71.0985L71.8993 70.765C71.8902 70.6002 71.882 70.4381 71.8764 70.2771L71.8718 70.1166L71.5152 70.1209C71.5152 70.1655 71.4517 70.1816 71.4358 70.1339C71.0994 69.1791 69.497 69.4868 68.7997 69.7136C68.1717 69.9186 67.5798 70.2334 67.0485 70.6221C65.9817 71.4019 65.1544 72.4519 64.8802 73.7646C64.359 76.2574 65.9456 78.7964 68.0519 79.9994C69.38 80.7577 70.8353 81.2472 72.1086 82.1066C73.2332 82.8648 74.2813 83.753 75.1893 84.7625C78.7869 88.7616 80.9034 94.8273 79.2013 100.106C79.0714 100.509 78.7278 100.969 78.273 101.035C77.5209 101.143 76.7687 101.033 76.3472 100.317C76.1826 100.037 76.1046 99.7175 76.1219 99.4026C75.8303 100.405 74.8847 101.396 74.0128 101.768C72.8246 102.277 71.4864 102.125 70.4383 101.469L70.3058 101.567C68.6014 102.822 66.6973 103.966 64.5135 103.735C62.9312 103.568 61.3778 102.762 60.503 101.491C59.3394 102.145 58.0964 102.666 56.8144 103.022L56.678 103.059C54.9142 103.54 52.6644 103.98 51.0181 103.004C49.4373 102.067 48.9118 100.021 49.2828 98.3121C49.3276 98.1086 49.3839 97.9107 49.4532 97.7186C48.2636 97.7821 47.0755 97.6681 45.9465 97.3186C44.793 96.9617 43.693 96.2757 43.1401 95.1638C42.5164 93.9058 42.6824 92.4761 43.1473 91.1951C43.8908 89.1398 45.0861 87.3114 46.5745 85.7186C48.0059 84.1855 49.7324 82.8849 51.5267 81.8007L51.8292 81.6196C53.4445 80.6558 55.3924 79.5265 57.3009 79.6008C57.2952 79.5763 57.2908 79.553 57.2879 79.5286C56.9992 77.4013 57.0324 75.232 56.9646 73.0874C56.9025 71.1145 56.8317 69.1417 56.7855 67.1675C56.7105 63.8109 56.735 60.4403 57.1724 57.107C57.5608 54.1492 58.2595 51.2649 59.5343 48.557C60.8725 45.712 62.8879 43.2843 65.3768 41.375C70.5999 37.3673 77.4992 35.3208 84.0116 34.9742ZM66.2703 74.3973C66.8391 73.3243 68.1341 72.9863 69.2702 73.1798C70.8626 73.4514 71.9454 74.8437 72.8751 76.041C73.851 77.2959 71.8154 78.4787 71.2914 77.2628L71.1672 76.9756C70.7466 76.0113 70.2498 74.9945 69.3915 74.3656C68.4791 73.6983 67.1914 73.6001 66.3858 74.4869C66.3281 74.5519 66.2313 74.4681 66.2703 74.3973Z" fill="url(#paint1_linear_129_978)"/>
<path fill-rule="evenodd" clip-rule="evenodd" d="M90.1344 79.7901C92.6091 79.4896 95.0079 80.2475 97.4272 80.6296C98.7046 80.8312 99.9835 80.9817 101.276 81.0377C101.536 81.0491 101.796 81.0557 102.056 81.061C102.081 80.8319 102.209 80.6215 102.487 80.4955C103.056 80.2373 103.512 80.1209 104.137 80.1458C104.709 80.1684 105.283 80.2273 105.846 80.3304C106.87 80.5181 107.897 80.9439 108.646 81.6837C110.378 83.3956 110.114 86.1452 108.776 88.0098C106.011 91.8626 100.964 92.0414 96.6424 91.9912L96.2435 91.986C92.3082 91.9297 86.6779 92.5167 84.89 88.0376C84.2326 86.3905 84.3239 84.4813 85.1289 82.9015C86.089 81.0173 88.1101 80.0359 90.1344 79.7901ZM102.427 86.2051L102.392 86.2065C100.577 86.2765 98.7633 86.3257 96.9479 86.3578C97.0022 86.8242 97.0577 87.2907 97.1211 87.7561C97.1708 88.1223 97.2241 88.4881 97.2795 88.8535C97.303 89.0082 97.3892 89.2483 97.3648 89.4016L97.356 89.4622C97.4492 89.5043 97.5338 89.5723 97.5967 89.6708C97.6186 89.7049 97.6345 89.7393 97.6503 89.7736C99.0598 89.7847 100.577 89.7573 102.013 89.501L102.016 89.4698C102.042 89.2862 102.119 89.1626 102.22 89.0778C102.321 88.4923 102.312 87.8683 102.351 87.2874C102.375 86.9265 102.402 86.5659 102.427 86.2051ZM95.5614 86.3825C94.2537 86.4048 92.9453 86.4219 91.6378 86.4059L91.0443 86.3968C91.1696 87.0695 91.306 87.7399 91.4194 88.4172C91.5377 89.123 90.9166 89.5717 90.3792 89.5536C90.4395 89.5635 90.4997 89.5737 90.5601 89.5822C92.2394 89.8198 93.983 89.7567 95.6872 89.7549C95.5955 89.2195 95.6327 88.6155 95.6189 88.1686L95.6163 88.0994C95.5903 87.5268 95.572 86.9547 95.5614 86.3825ZM86.6782 86.2591C86.7236 86.609 86.8119 86.9513 86.944 87.2701C87.5022 88.6167 88.782 89.2451 90.1361 89.5098C89.9012 89.4286 89.7146 89.2336 89.6675 88.8996C89.5501 88.0691 89.5079 87.2249 89.5048 86.3816C88.561 86.3728 87.611 86.3527 86.6782 86.2591ZM107.348 85.9715C106.677 86.1301 105.896 86.0574 105.237 86.0874C104.619 86.1154 104.001 86.1399 103.384 86.1649C103.413 86.5867 103.441 87.0083 103.472 87.4298C103.512 87.9746 103.515 88.5504 103.62 89.0929C104.863 88.6685 105.976 87.988 106.812 86.8998C107.02 86.6287 107.206 86.3106 107.348 85.9715ZM89.8505 81.9996C88.732 82.2645 87.6735 82.8241 87.1046 83.848C86.767 84.4556 86.6184 85.1756 86.647 85.8852C87.5923 85.7751 88.5538 85.7334 89.5108 85.6989C89.514 85.5265 89.518 85.3543 89.5232 85.1824L89.538 84.742C89.564 83.902 89.5771 82.8471 89.8505 81.9996ZM95.6396 82.102L95.1472 82.0467C93.7796 81.8908 92.4128 81.7272 91.0452 81.821C90.8473 81.8346 90.6463 81.8562 90.4449 81.8857C90.6866 82.7583 90.6663 83.7832 90.7673 84.6471C90.8063 84.9811 90.8556 85.3123 90.9102 85.6423L91.1475 85.6312C92.615 85.5516 94.0839 85.5027 95.5525 85.4444C95.5524 85.1686 95.5539 84.8925 95.5584 84.6164L95.5638 84.3403C95.5805 83.635 95.535 82.8405 95.6396 82.102ZM102.507 81.9901C101.075 82.2213 99.5948 82.2705 98.1878 82.2723C97.6259 82.273 97.0642 82.2384 96.5028 82.1886C96.5394 82.4877 96.5584 82.7902 96.5859 83.085C96.6414 83.6809 96.7047 84.2758 96.7736 84.8702L96.835 85.3903C98.6402 85.3085 100.445 85.22 102.25 85.1283L102.505 85.1146L102.576 84.1151C102.625 83.4486 102.678 82.7822 102.754 82.1187L102.697 82.0983C102.63 82.0709 102.567 82.0332 102.507 81.9901ZM103.129 82.2381C103.208 83.1806 103.252 84.1269 103.31 85.0709L104.5 85.0073C104.698 84.9965 104.896 84.9854 105.094 84.974C105.865 84.9295 106.856 84.696 107.618 84.9139C107.677 84.2207 107.478 83.5453 106.853 83.0797C105.755 82.2617 104.357 82.553 103.129 82.2381ZM99.0644 73.8134C100.836 72.7984 105.281 71.7611 105.563 74.9506C105.692 76.4184 104.601 77.6345 103.328 78.1772L103.28 78.1973C102.085 78.6886 99.9678 79.2434 98.934 78.178C98.0736 77.2913 99.2148 75.7013 100.284 76.4278C100.833 76.801 101.99 76.526 102.603 76.3484L102.642 76.3372C103.303 76.1427 104.185 75.5201 103.912 74.7051C103.67 73.9842 102.639 73.8524 101.994 73.829C101.031 73.7945 100.094 74.0182 99.1396 74.091C98.9885 74.1026 98.9418 73.8836 99.0644 73.8134ZM106.403 68.6847C108.808 68.572 110.303 71.1985 109.75 73.3505C109.655 73.7218 109.24 74.0864 108.839 74.0446L108.738 74.0353C108.687 74.0304 108.635 74.0239 108.588 74.0108C108.207 73.9054 107.866 73.5094 107.894 73.0989L107.901 72.9793C107.957 71.9627 107.847 70.7915 106.639 70.5453C105.615 70.3364 105.043 71.3227 105.031 72.2305C105.029 72.3917 104.848 72.5042 104.705 72.4176C103.965 71.9668 103.837 71.0701 104.119 70.2979C104.478 69.3194 105.375 68.7328 106.403 68.6847ZM88.5591 69.248C90.3089 68.6639 92.1968 69.597 93.0441 71.1447C93.3414 71.2308 93.6382 71.46 93.5969 71.8109C93.5373 72.3158 93.4475 72.6341 93.0975 73.017C92.5502 73.6159 91.525 73.3097 91.2975 72.5724L91.2879 72.5391C91.0295 71.586 89.9808 70.9572 89.0255 71.2908C87.9096 71.6805 87.9419 72.8596 87.1592 73.5464C87.0672 73.6272 86.9569 73.64 86.8466 73.5867C86.0152 73.1848 86.1646 71.9751 86.461 71.2827C86.8498 70.3742 87.6054 69.5661 88.5591 69.248ZM86.176 63.9322C87.594 62.4848 91.2915 61.0842 92.2615 63.757C92.4463 64.2661 92.0529 64.9525 91.5231 65.0581C90.6554 65.2308 89.8856 64.854 89.0238 64.9216C88.3261 64.9766 87.5983 65.2099 87.0405 65.6423C85.4955 66.8398 85.1556 68.8654 84.0791 70.3896C84.0267 70.4638 83.9249 70.4326 83.9152 70.3451C83.6701 68.1261 84.6229 65.5174 86.176 63.9322ZM104.668 62.5073C105.609 62.1748 106.675 62.2033 107.621 62.4982C108.574 62.7954 109.448 63.3598 110.122 64.0972C110.428 64.432 110.711 64.8014 110.938 65.1947C111.058 65.4031 111.185 65.8336 111.322 66.09C112.063 66.5181 112.38 67.4937 111.717 68.1877L111.687 68.2182L111.598 68.3063C111.241 68.6595 110.703 68.8126 110.216 68.6715C109.127 68.3561 108.994 67.4975 108.617 66.5862C108.368 65.9842 107.941 65.4516 107.423 65.0604C106.2 64.1361 104.195 63.8416 102.722 64.2772C102.643 64.3004 102.551 64.2005 102.607 64.128C102.886 63.7663 103.047 63.4696 103.421 63.1778C103.8 62.8818 104.214 62.6679 104.668 62.5073Z" fill="url(#paint2_linear_129_978)"/>
<path fill-rule="evenodd" clip-rule="evenodd" d="M109.257 62.9688C112.646 62.9688 114.58 63.6977 115.288 63.7545L115.31 63.7561C115.604 63.7749 115.869 63.7996 116.146 63.9069C117.166 64.2999 117.332 65.3701 116.737 66.0446C116.695 67.4403 116.879 69.071 116.564 70.4711C116.176 76.3738 113.401 77.37 111.824 77.7335C111.032 77.9161 110.093 77.9888 109.252 77.796C107.817 77.7425 106.398 77.2931 105.185 76.5106C103.494 75.4199 102.239 73.7435 101.831 71.754C101.638 70.8056 101.548 69.8186 101.653 68.8546L101.669 68.7218C101.119 68.4589 100.482 68.4091 99.826 68.3859C99.5124 68.3748 99.2034 68.3647 98.9032 68.3781C98.6097 68.4109 98.3198 68.4545 98.0289 68.514C97.7114 68.6098 97.4114 68.768 97.1345 69.0186L97.1154 69.3844C97.0634 70.298 96.9435 71.2144 96.7585 72.1107C96.4855 73.4333 96.0462 74.6964 95.1115 75.6345C94.795 76.1073 94.4035 76.5293 93.9282 76.8947C92.2015 78.2247 89.8556 78.713 87.7026 78.5291C83.3316 78.156 80.8051 74.6848 80.2229 73.2011L80.1881 73.1112C79.7675 72.0082 79.4323 70.577 78.1032 70.34L77.8205 70.2892C77.214 70.1754 76.6544 70.0168 76.2988 69.4248C76.1429 69.1664 76.0627 68.8774 76.0431 68.5827C75.8356 68.5987 75.6284 68.6139 75.4219 68.6287C73.775 68.9771 63.8963 69.2726 63.1078 69.2726C63.1078 69.2726 61.5921 69.9108 60.9522 69.4163C60.5086 69.0724 60.3627 68.6142 60.6069 68.095C60.9753 67.3139 62.675 66.844 63.4297 66.6953C63.4297 66.6953 75.6091 66.7964 76.4858 66.6302C77.0281 66.0707 77.9983 66.1473 78.809 66.0588C79.4801 65.5801 80.4189 65.2595 81.1605 65.0448C81.3117 64.9876 81.4613 64.9322 81.6068 64.8799C82.9664 64.3956 84.3795 64.139 85.8142 64.0013C87.2937 63.8606 88.7775 63.9243 90.2483 64.1259C90.8681 64.21 91.4821 64.3187 92.0918 64.461C93.1836 64.605 94.2689 64.8421 95.3611 65.1234L95.5796 65.1803C96.7296 65.4819 97.9115 65.7428 99.102 65.5383C100.071 65.373 101.003 64.9998 101.897 64.5963L102.013 64.5435C103.978 63.646 107.047 62.9688 109.257 62.9688ZM91.9738 66.2504C91.2488 66.0909 90.9392 67.2091 91.6665 67.369C92.1816 67.4823 92.6181 67.7421 92.913 68.1823L92.944 68.2302C93.3398 68.8601 94.3404 68.2786 93.9419 67.6446C93.4936 66.9311 92.7969 66.4314 91.9738 66.2504ZM113.208 65.557C112.952 65.3769 112.566 65.5106 112.417 65.7651C112.254 66.0454 112.361 66.3574 112.6 66.5408L112.625 66.5587C112.844 66.7135 113.058 66.991 113.085 67.2753L113.087 67.3109C113.116 68.055 114.272 68.0587 114.243 67.3109C114.215 66.5793 113.792 65.968 113.208 65.557Z" fill="url(#paint3_linear_129_978)"/>
<defs>
<linearGradient id="paint0_linear_129_978" x1="27.8623" y1="193.069" x2="132.055" y2="193.069" gradientUnits="userSpaceOnUse">
<stop stop-color="#0D0D0D"/>
<stop offset="1" stop-color="#652222"/>
</linearGradient>
<linearGradient id="paint1_linear_129_978" x1="42.7329" y1="103.765" x2="121.41" y2="103.765" gradientUnits="userSpaceOnUse">
<stop stop-color="#0D0D0D"/>
<stop offset="1" stop-color="#652222"/>
</linearGradient>
<linearGradient id="paint2_linear_129_978" x1="83.877" y1="91.9972" x2="112.079" y2="91.9972" gradientUnits="userSpaceOnUse">
<stop stop-color="#0D0D0D"/>
<stop offset="1" stop-color="#652222"/>
</linearGradient>
<linearGradient id="paint3_linear_129_978" x1="60.4893" y1="78.5664" x2="117.081" y2="78.5664" gradientUnits="userSpaceOnUse">
<stop stop-color="#0D0D0D"/>
<stop offset="1" stop-color="#652222"/>
</linearGradient>
</defs>
</svg>
