<svg width="40" height="40" viewBox="0 0 40 40" fill="none" xmlns="http://www.w3.org/2000/svg">
<path d="M3.3335 33.3335H36.6668V36.6668H3.3335V33.3335ZM6.66683 20.0002H10.0002V31.6668H6.66683V20.0002ZM15.0002 20.0002H18.3335V31.6668H15.0002V20.0002ZM21.6668 20.0002H25.0002V31.6668H21.6668V20.0002ZM30.0002 20.0002H33.3335V31.6668H30.0002V20.0002ZM3.3335 11.6668L20.0002 3.3335L36.6668 11.6668V18.3335H3.3335V11.6668ZM20.0002 13.3335C20.4422 13.3335 20.8661 13.1579 21.1787 12.8453C21.4912 12.5328 21.6668 12.1089 21.6668 11.6668C21.6668 11.2248 21.4912 10.8009 21.1787 10.4883C20.8661 10.1758 20.4422 10.0002 20.0002 10.0002C19.5581 10.0002 19.1342 10.1758 18.8217 10.4883C18.5091 10.8009 18.3335 11.2248 18.3335 11.6668C18.3335 12.1089 18.5091 12.5328 18.8217 12.8453C19.1342 13.1579 19.5581 13.3335 20.0002 13.3335Z" fill="#A55954"/>
</svg>
