<svg width="15" height="15" viewBox="0 0 15 15" fill="none" xmlns="http://www.w3.org/2000/svg">
<path d="M2.66676 3.27605L0.504761 1.11472L1.44809 0.171387L3.60943 2.33339H13.7708C13.8747 2.33338 13.9771 2.35766 14.07 2.4043C14.1629 2.45093 14.2435 2.51863 14.3056 2.60198C14.3676 2.68534 14.4093 2.78204 14.4274 2.88438C14.4454 2.98671 14.4392 3.09185 14.4094 3.19139L12.8094 8.52472C12.7683 8.66211 12.6839 8.78256 12.5688 8.86819C12.4538 8.95382 12.3142 9.00006 12.1708 9.00005H4.00009V10.3334H11.3334V11.6667H3.33343C3.15662 11.6667 2.98705 11.5965 2.86202 11.4715C2.737 11.3464 2.66676 11.1769 2.66676 11.0001V3.27605ZM4.00009 3.66672V7.66672H11.6748L12.8748 3.66672H4.00009ZM3.66676 14.3334C3.40154 14.3334 3.14719 14.228 2.95965 14.0405C2.77212 13.853 2.66676 13.5986 2.66676 13.3334C2.66676 13.0682 2.77212 12.8138 2.95965 12.6263C3.14719 12.4387 3.40154 12.3334 3.66676 12.3334C3.93198 12.3334 4.18633 12.4387 4.37387 12.6263C4.5614 12.8138 4.66676 13.0682 4.66676 13.3334C4.66676 13.5986 4.5614 13.853 4.37387 14.0405C4.18633 14.228 3.93198 14.3334 3.66676 14.3334ZM11.6668 14.3334C11.4015 14.3334 11.1472 14.228 10.9597 14.0405C10.7721 13.853 10.6668 13.5986 10.6668 13.3334C10.6668 13.0682 10.7721 12.8138 10.9597 12.6263C11.1472 12.4387 11.4015 12.3334 11.6668 12.3334C11.932 12.3334 12.1863 12.4387 12.3739 12.6263C12.5614 12.8138 12.6668 13.0682 12.6668 13.3334C12.6668 13.5986 12.5614 13.853 12.3739 14.0405C12.1863 14.228 11.932 14.3334 11.6668 14.3334Z" fill="#0D0D0D"/>
</svg>
