<svg width="12" height="14" viewBox="0 0 12 14" fill="none" xmlns="http://www.w3.org/2000/svg">
<path d="M2.66667 1.66667V0.333334H9.33333V1.66667H11.338C11.7033 1.66667 12 1.96333 12 2.32867V13.0047C11.9998 13.1802 11.93 13.3485 11.8059 13.4726C11.6818 13.5967 11.5135 13.6665 11.338 13.6667H0.662C0.486481 13.6665 0.318201 13.5967 0.19409 13.4726C0.0699794 13.3485 0.00017649 13.1802 0 13.0047V2.32867C0 1.96333 0.296667 1.66667 0.662 1.66667H2.66667ZM2.66667 3H1.33333V12.3333H10.6667V3H9.33333V4.33333H2.66667V3ZM4 1.66667V3H8V1.66667H4Z" fill="#0D0D0D"/>
</svg>
