<svg width="40" height="40" viewBox="0 0 40 40" fill="none" xmlns="http://www.w3.org/2000/svg">
<path d="M6.305 4.70984L20 1.6665L33.695 4.70984C34.0651 4.79211 34.3961 4.99811 34.6334 5.29385C34.8706 5.58958 34.9999 5.95736 35 6.3365V22.9815C34.9999 24.6277 34.5933 26.2485 33.8165 27.6999C33.0396 29.1512 31.9164 30.3884 30.5467 31.3015L20 38.3332L9.45333 31.3015C8.08379 30.3886 6.96077 29.1517 6.18391 27.7006C5.40706 26.2495 5.00039 24.6291 5 22.9832V6.3365C5.00007 5.95736 5.1294 5.58958 5.36665 5.29385C5.6039 4.99811 5.93489 4.79211 6.305 4.70984ZM20 18.3332C21.1051 18.3332 22.1649 17.8942 22.9463 17.1128C23.7277 16.3314 24.1667 15.2716 24.1667 14.1665C24.1667 13.0614 23.7277 12.0016 22.9463 11.2202C22.1649 10.4388 21.1051 9.99984 20 9.99984C18.8949 9.99984 17.8351 10.4388 17.0537 11.2202C16.2723 12.0016 15.8333 13.0614 15.8333 14.1665C15.8333 15.2716 16.2723 16.3314 17.0537 17.1128C17.8351 17.8942 18.8949 18.3332 20 18.3332ZM12.545 26.6665H27.455C27.253 24.8305 26.3805 23.1336 25.0049 21.901C23.6292 20.6685 21.8471 19.9869 20 19.9869C18.1529 19.9869 16.3708 20.6685 14.9951 21.901C13.6195 23.1336 12.747 24.8305 12.545 26.6665Z" fill="#A55954"/>
</svg>
