<svg
  width="25"
  height="24"
  viewBox="0 0 25 24"
  fill="none"
  xmlns="http://www.w3.org/2000/svg"
>
<path
    d="M7.76172 4V2H17.7617V4H20.7687C21.3167 4 21.7617 4.445 21.7617 4.993V21.007C21.7615 21.2703 21.6567 21.5227 21.4706 21.7089C21.2844 21.895 21.032 21.9997 20.7687 22H4.75472C4.49144 21.9997 4.23902 21.895 4.05285 21.7089C3.86669 21.5227 3.76198 21.2703 3.76172 21.007V4.993C3.76172 4.445 4.20672 4 4.75472 4H7.76172ZM7.76172 6H5.76172V20H19.7617V6H17.7617V8H7.76172V6ZM9.76172 4V6H15.7617V4H9.76172Z"
    fill="#632121"
  />
</svg>
