<svg width="101" height="54" viewBox="0 0 101 54" fill="none" xmlns="http://www.w3.org/2000/svg">
<path d="M14.9826 18.524C15.211 18.7892 15.3397 19.1257 15.3465 19.4756C15.3465 20.2034 14.8525 20.5886 14.2121 20.5886C13.9804 20.5847 13.7525 20.53 13.5443 20.4284C13.3361 20.3269 13.1526 20.1809 13.0069 20.0009C12.8524 19.8185 12.6603 19.6717 12.4437 19.5705C12.2272 19.4694 11.9913 19.4162 11.7523 19.4147C11.1036 19.4147 10.7002 19.744 10.7002 20.2034C10.7002 20.4059 10.7397 20.8109 11.5909 21.0546L12.8258 21.3987C14.3636 21.8646 15.7614 22.6335 15.7614 24.4759C15.7614 26.7628 13.6556 27.8363 11.5498 27.8363C9.68766 27.8363 8.67509 27.0476 8.10872 26.4599C7.98688 26.338 7.47978 25.7519 7.47978 25.062C7.47376 24.9124 7.49916 24.7632 7.55433 24.624C7.6095 24.4848 7.69322 24.3588 7.8001 24.2539C7.90697 24.149 8.03463 24.0677 8.17484 24.0152C8.31505 23.9627 8.46471 23.9402 8.61418 23.949C9.20195 23.949 9.54606 24.3129 9.80785 24.6175C10.4154 25.3057 10.9834 25.4407 11.5498 25.4407C12.4405 25.4407 12.8258 25.0357 12.8258 24.6307C12.8258 24.4281 12.7451 23.9836 11.7935 23.7004L10.7397 23.3711C8.67509 22.7833 7.80413 21.6704 7.80413 20.2116C7.80413 18.0861 9.74857 17.0735 11.6502 17.0735C12.9789 17.085 14.324 17.5921 14.9826 18.524Z" fill="url(#paint0_linear_157_191)"/>
<path d="M27.7985 22.026V26.3792C27.7985 26.7722 27.6424 27.1491 27.3645 27.427C27.0866 27.7049 26.7097 27.861 26.3167 27.861C25.9237 27.861 25.5468 27.7049 25.2689 27.427C24.991 27.1491 24.8349 26.7722 24.8349 26.3792V22.026C24.8349 20.345 24.0117 19.6172 22.8905 19.6172C21.1502 19.6172 20.6628 21.318 20.6233 21.7016V26.3792C20.6233 26.7722 20.4672 27.1491 20.1893 27.427C19.9114 27.7049 19.5345 27.861 19.1415 27.861C18.7485 27.861 18.3716 27.7049 18.0937 27.427C17.8158 27.1491 17.6597 26.7722 17.6597 26.3792V14.7569C17.6597 14.3639 17.8158 13.987 18.0937 13.7092C18.3716 13.4313 18.7485 13.2751 19.1415 13.2751C19.5345 13.2751 19.9114 13.4313 20.1893 13.7092C20.4672 13.987 20.6233 14.3639 20.6233 14.7569V19.4542C20.704 18.7051 21.8582 17.1064 24.0035 17.1064C26.078 17.1064 27.7985 18.5026 27.7985 22.026Z" fill="url(#paint1_linear_157_191)"/>
<path d="M40.4926 18.6047V26.3989C40.4815 26.7891 40.3188 27.1597 40.0391 27.432C39.7594 27.7043 39.3847 27.857 38.9943 27.8577C38.6075 27.8617 38.2348 27.7127 37.9572 27.4432C37.6797 27.1737 37.5199 26.8055 37.5125 26.4187C37.2705 26.9867 36.2974 27.8774 34.6988 27.8774C32.4711 27.8774 29.8187 26.1569 29.8187 22.4705C29.8187 18.8681 32.4909 17.085 34.6988 17.085C36.0949 17.085 37.1684 17.8555 37.5125 18.6854V18.6047C37.5186 18.2157 37.6774 17.8447 37.9546 17.5718C38.2318 17.2988 38.6053 17.1459 38.9943 17.1459C39.3837 17.1499 39.7566 17.3037 40.0356 17.5753C40.3145 17.8469 40.4782 18.2156 40.4926 18.6047ZM37.6377 22.4705C37.6377 20.345 36.2612 19.6172 35.2487 19.6172C34.0138 19.6172 32.779 20.5886 32.779 22.4705C32.779 24.3524 34.0138 25.3469 35.2487 25.3469C36.2612 25.3551 37.6377 24.6175 37.6377 22.4705Z" fill="url(#paint2_linear_157_191)"/>
<path d="M50.2708 18.4631C50.2708 19.2731 49.6435 19.8395 48.3873 19.8395C46.8693 19.8395 45.9374 20.992 45.8765 21.7016V26.3792C45.8486 26.752 45.6808 27.1006 45.4068 27.3549C45.1327 27.6093 44.7727 27.7506 44.3988 27.7506C44.0249 27.7506 43.6648 27.6093 43.3908 27.3549C43.1167 27.1006 42.9489 26.752 42.9211 26.3792V18.6409C42.9059 18.4376 42.9328 18.2333 43.0002 18.0409C43.0676 17.8484 43.174 17.672 43.3127 17.5225C43.4514 17.3731 43.6194 17.2539 43.8063 17.1723C43.9932 17.0908 44.1949 17.0487 44.3988 17.0487C44.6027 17.0487 44.8044 17.0908 44.9912 17.1723C45.1781 17.2539 45.3462 17.3731 45.4849 17.5225C45.6236 17.672 45.7299 17.8484 45.7973 18.0409C45.8647 18.2333 45.8916 18.4376 45.8765 18.6409V19.451C45.9588 18.7018 47.1936 17.1031 48.8944 17.1031C49.8049 17.1064 50.2708 17.7337 50.2708 18.4631Z" fill="url(#paint3_linear_157_191)"/>
<path d="M61.5473 22.0062C61.5473 23.1801 60.92 23.5852 59.7049 23.5852L54.1564 23.5045C54.4198 24.7591 55.4126 25.4473 56.8088 25.4473C57.4773 25.4473 57.6798 25.3469 58.2676 25.1443C58.6726 24.9797 58.9755 24.8002 59.3608 24.8002C59.4936 24.7962 59.6258 24.8197 59.749 24.8694C59.8723 24.9191 59.9838 24.9938 60.0767 25.0888C60.1696 25.1838 60.2417 25.2971 60.2885 25.4214C60.3353 25.5458 60.3558 25.6785 60.3487 25.8112C60.3487 26.1767 60.2071 26.5817 59.6407 27.0262C58.9327 27.4922 57.9597 27.8363 56.6853 27.8363C53.9506 27.8363 51.0759 26.1898 51.0759 22.5117C51.0759 18.8335 54.1334 17.0784 56.4417 17.0784C58.75 17.0784 61.5473 18.934 61.5473 22.0062ZM54.1564 21.5205H58.6314C58.4289 20.1836 57.497 19.6568 56.445 19.6568C55.3929 19.6568 54.3326 20.1836 54.1564 21.5205Z" fill="url(#paint4_linear_157_191)"/>
<path d="M70.3739 18.524C70.6029 18.7888 70.7317 19.1256 70.7377 19.4756C70.7377 20.2034 70.252 20.5886 69.6033 20.5886C69.3702 20.5863 69.1405 20.5324 68.9307 20.4308C68.7209 20.3292 68.5362 20.1823 68.3899 20.0009C68.2351 19.8184 68.0427 19.6715 67.8259 19.5704C67.6091 19.4692 67.3729 19.4161 67.1337 19.4147C66.4866 19.4147 66.0816 19.744 66.0816 20.2034C66.0816 20.4059 66.1211 20.8109 66.9723 21.0546L68.2071 21.3987C69.7466 21.8646 71.1427 22.6335 71.1427 24.4759C71.1427 26.7628 69.0369 27.8363 66.9311 27.8363C65.069 27.8363 64.0565 27.0476 63.4901 26.4599C63.3682 26.338 62.8628 25.7519 62.8628 25.062C62.8568 24.9126 62.8821 24.7635 62.9372 24.6244C62.9923 24.4854 63.0759 24.3594 63.1826 24.2545C63.2893 24.1497 63.4167 24.0684 63.5567 24.0158C63.6967 23.9631 63.8462 23.9404 63.9955 23.949C64.5833 23.949 64.9274 24.3129 65.1909 24.6175C65.7984 25.3057 66.3648 25.4407 66.9311 25.4407C67.8219 25.4407 68.2071 25.0357 68.2071 24.6307C68.2071 24.4281 68.1265 23.9836 67.1748 23.7004L66.1211 23.3711C64.0565 22.7833 63.1855 21.6704 63.1855 20.2116C63.1855 18.0861 65.1299 17.0735 67.0332 17.0735C68.3685 17.085 69.7054 17.5921 70.3739 18.524Z" fill="url(#paint5_linear_157_191)"/>
<path d="M82.9247 22.0062C82.9247 23.1801 82.2974 23.5852 81.084 23.5852L75.5354 23.5045C75.7989 24.7591 76.7917 25.4473 78.1879 25.4473C78.8563 25.4473 79.0588 25.3469 79.645 25.1443C80.05 24.9797 80.3546 24.8002 80.7382 24.8002C80.8709 24.7964 81.003 24.8201 81.1261 24.8699C81.2493 24.9197 81.3607 24.9944 81.4535 25.0893C81.5463 25.1843 81.6185 25.2975 81.6654 25.4217C81.7123 25.5459 81.7329 25.6785 81.7261 25.8112C81.7261 26.1767 81.5845 26.5817 81.0181 27.0262C80.3085 27.4922 79.3371 27.8363 78.0545 27.8363C75.3214 27.8363 72.4467 26.1898 72.4467 22.5117C72.4467 18.8335 75.5042 17.0784 77.8125 17.0784C80.1208 17.0784 82.9247 18.934 82.9247 22.0062ZM75.5354 21.5205H80.0171C79.8146 20.1836 78.8827 19.6568 77.8306 19.6568C76.7785 19.6568 75.7182 20.1836 75.5354 21.5205Z" fill="url(#paint6_linear_157_191)"/>
<path d="M86.4267 27.8363C86.2336 27.8382 86.0421 27.8021 85.863 27.7298C85.6839 27.6576 85.5209 27.5507 85.3833 27.4154C85.2456 27.28 85.136 27.1188 85.0608 26.941C84.9855 26.7632 84.9462 26.5722 84.9449 26.3792V14.7569C84.9727 14.3841 85.1405 14.0355 85.4145 13.7812C85.6886 13.5269 86.0487 13.3855 86.4226 13.3855C86.7964 13.3855 87.1565 13.5269 87.4306 13.7812C87.7046 14.0355 87.8724 14.3841 87.9002 14.7569V26.3792C87.8972 26.7675 87.7404 27.1389 87.4643 27.412C87.1881 27.685 86.815 27.8376 86.4267 27.8363Z" fill="url(#paint7_linear_157_191)"/>
<path d="M91.8122 27.8363C91.6192 27.838 91.4277 27.8017 91.2488 27.7294C91.0698 27.6571 90.9069 27.5502 90.7692 27.4149C90.6316 27.2795 90.522 27.1184 90.4467 26.9407C90.3714 26.763 90.3319 26.5722 90.3304 26.3792V14.7569C90.3304 14.3639 90.4865 13.987 90.7644 13.7092C91.0423 13.4313 91.4192 13.2751 91.8122 13.2751C92.2052 13.2751 92.5821 13.4313 92.86 13.7092C93.1379 13.987 93.294 14.3639 93.294 14.7569V26.3792C93.2925 26.5722 93.2529 26.763 93.1776 26.9407C93.1023 27.1184 92.9927 27.2795 92.8551 27.4149C92.7175 27.5502 92.5545 27.6571 92.3756 27.7294C92.1966 27.8017 92.0052 27.838 91.8122 27.8363Z" fill="url(#paint8_linear_157_191)"/>
<path d="M37.99 32.0495C38.1459 32.0782 38.2889 32.1554 38.3983 32.2701C41.8558 35.0872 45.72 36.8538 50.4667 36.8538C55.495 36.8538 59.6423 35.0872 63.3189 32.2158C63.432 32.1157 63.5762 32.0576 63.7272 32.0512C64.2935 32.0512 64.7331 32.825 64.7331 33.8194C64.7331 34.478 64.4829 35.0329 64.1997 35.3012C60.2713 38.8362 55.872 40.7131 50.4667 40.7131C45.343 40.7131 41.1643 38.8362 37.5191 35.3012C37.2046 35.0246 36.984 34.478 36.984 33.8194C36.984 32.8777 37.4236 32.0495 37.99 32.0495Z" fill="url(#paint9_linear_157_191)"/>
<defs>
<linearGradient id="paint0_linear_157_191" x1="7.47891" y1="40.7131" x2="93.294" y2="40.7131" gradientUnits="userSpaceOnUse">
<stop stop-color="#0D0D0D"/>
<stop offset="1" stop-color="#652222"/>
</linearGradient>
<linearGradient id="paint1_linear_157_191" x1="7.47891" y1="40.7131" x2="93.294" y2="40.7131" gradientUnits="userSpaceOnUse">
<stop stop-color="#0D0D0D"/>
<stop offset="1" stop-color="#652222"/>
</linearGradient>
<linearGradient id="paint2_linear_157_191" x1="7.47891" y1="40.7131" x2="93.294" y2="40.7131" gradientUnits="userSpaceOnUse">
<stop stop-color="#0D0D0D"/>
<stop offset="1" stop-color="#652222"/>
</linearGradient>
<linearGradient id="paint3_linear_157_191" x1="7.47891" y1="40.7131" x2="93.294" y2="40.7131" gradientUnits="userSpaceOnUse">
<stop stop-color="#0D0D0D"/>
<stop offset="1" stop-color="#652222"/>
</linearGradient>
<linearGradient id="paint4_linear_157_191" x1="7.47891" y1="40.7131" x2="93.294" y2="40.7131" gradientUnits="userSpaceOnUse">
<stop stop-color="#0D0D0D"/>
<stop offset="1" stop-color="#652222"/>
</linearGradient>
<linearGradient id="paint5_linear_157_191" x1="7.47891" y1="40.7131" x2="93.294" y2="40.7131" gradientUnits="userSpaceOnUse">
<stop stop-color="#0D0D0D"/>
<stop offset="1" stop-color="#652222"/>
</linearGradient>
<linearGradient id="paint6_linear_157_191" x1="7.47891" y1="40.7131" x2="93.294" y2="40.7131" gradientUnits="userSpaceOnUse">
<stop stop-color="#0D0D0D"/>
<stop offset="1" stop-color="#652222"/>
</linearGradient>
<linearGradient id="paint7_linear_157_191" x1="7.47891" y1="40.7131" x2="93.294" y2="40.7131" gradientUnits="userSpaceOnUse">
<stop stop-color="#0D0D0D"/>
<stop offset="1" stop-color="#652222"/>
</linearGradient>
<linearGradient id="paint8_linear_157_191" x1="7.47891" y1="40.7131" x2="93.294" y2="40.7131" gradientUnits="userSpaceOnUse">
<stop stop-color="#0D0D0D"/>
<stop offset="1" stop-color="#652222"/>
</linearGradient>
<linearGradient id="paint9_linear_157_191" x1="7.47891" y1="40.7131" x2="93.294" y2="40.7131" gradientUnits="userSpaceOnUse">
<stop stop-color="#0D0D0D"/>
<stop offset="1" stop-color="#652222"/>
</linearGradient>
</defs>
</svg>
