<svg width="22" height="22" viewBox="0 0 22 22" fill="none" xmlns="http://www.w3.org/2000/svg">
<g clip-path="url(#clip0_403_1832)">
<path fill-rule="evenodd" clip-rule="evenodd" d="M7.53558 9.19496C7.89123 9.09966 8.25678 9.31072 8.35208 9.66636L9.39962 13.5758L13.3091 12.5283C13.6647 12.433 14.0303 12.644 14.1256 12.9997C14.2209 13.3553 14.0098 13.7209 13.6542 13.8162L9.10076 15.0363C8.74511 15.1316 8.37956 14.9205 8.28426 14.5649L7.06418 10.0115C6.96888 9.65581 7.17994 9.29025 7.53558 9.19496Z" fill="#219653"/>
<path fill-rule="evenodd" clip-rule="evenodd" d="M9.86896 5.15345C10.2246 5.05816 10.5902 5.26921 10.6855 5.62486L11.733 9.53432L15.6425 8.48679C15.9981 8.39149 16.3637 8.60255 16.459 8.95819C16.5543 9.31383 16.3432 9.67939 15.9876 9.77469L11.4341 10.9948C11.0785 11.0901 10.7129 10.879 10.6176 10.5234L9.39755 5.96995C9.30226 5.6143 9.51331 5.24875 9.86896 5.15345Z" fill="#219653"/>
</g>
<defs>
<clipPath id="clip0_403_1832">
<rect width="16" height="16" fill="white" transform="translate(8) rotate(30)"/>
</clipPath>
</defs>
</svg>
