<svg width="16" height="14" viewBox="0 0 16 14" fill="none" xmlns="http://www.w3.org/2000/svg">
<path d="M8.6666 7.66667V11.39L9.88526 10.1713L10.8286 11.1147L7.99993 13.9427L5.17126 11.1147L6.1146 10.1713L7.33326 11.39V7.66667H8.6666ZM7.99993 0.333334C9.14458 0.333388 10.2493 0.754077 11.1041 1.51541C11.9588 2.27675 12.504 3.32564 12.6359 4.46267C13.4654 4.68888 14.1891 5.1994 14.6804 5.90502C15.1717 6.61064 15.3994 7.46646 15.3237 8.32293C15.248 9.17939 14.8737 9.98202 14.2663 10.5905C13.6589 11.1991 12.8569 11.5748 12.0006 11.652V10.3093C12.3074 10.2655 12.6024 10.161 12.8683 10.002C13.1343 9.84293 13.3659 9.63248 13.5496 9.38294C13.7334 9.1334 13.8656 8.84975 13.9385 8.54856C14.0114 8.24737 14.0236 7.93467 13.9744 7.62871C13.9252 7.32276 13.8155 7.02967 13.6517 6.76657C13.488 6.50346 13.2735 6.27561 13.0207 6.09631C12.768 5.91702 12.482 5.78986 12.1796 5.72227C11.8772 5.65469 11.5643 5.64802 11.2593 5.70267C11.3637 5.21659 11.358 4.71332 11.2427 4.2297C11.1275 3.74609 10.9055 3.29439 10.593 2.90769C10.2805 2.52098 9.88553 2.20907 9.43691 1.9948C8.98829 1.78052 8.49743 1.66931 8.00026 1.66931C7.5031 1.66931 7.01223 1.78052 6.56361 1.9948C6.115 2.20907 5.71999 2.52098 5.40753 2.90769C5.09507 3.29439 4.87307 3.74609 4.75778 4.2297C4.6425 4.71332 4.63686 5.21659 4.74126 5.70267C4.13303 5.58845 3.50434 5.72052 2.99349 6.06984C2.48264 6.41916 2.13148 6.9571 2.01726 7.56533C1.90304 8.17356 2.03512 8.80226 2.38444 9.3131C2.73376 9.82395 3.2717 10.1751 3.87993 10.2893L3.99993 10.3093V11.652C3.14356 11.5749 2.34153 11.1993 1.73402 10.5908C1.1265 9.98232 0.752147 9.17971 0.676379 8.32322C0.60061 7.46673 0.828249 6.61086 1.31951 5.90518C1.81077 5.19951 2.5344 4.68892 3.36393 4.46267C3.49573 3.32559 4.04087 2.27661 4.89565 1.51524C5.75043 0.75388 6.85523 0.333243 7.99993 0.333334Z" fill="#0D0D0D"/>
</svg>
