<svg width="14" height="14" viewBox="0 0 14 14" fill="none" xmlns="http://www.w3.org/2000/svg">
<path d="M7.45604 1.68598C6.36631 1.59251 5.27419 1.83632 4.32768 2.3844C3.38118 2.93247 2.62606 3.75829 2.16467 4.74994C1.70328 5.74159 1.55793 6.85112 1.74831 7.92815C1.93869 9.00519 2.4556 9.99765 3.22899 10.771C4.00237 11.5444 4.99483 12.0613 6.07187 12.2517C7.14891 12.4421 8.25844 12.2967 9.25009 11.8354C10.2417 11.374 11.0676 10.6188 11.6156 9.67234C12.1637 8.72584 12.4075 7.63371 12.314 6.54398C12.2673 5.98385 12.1316 5.43474 11.912 4.91732L12.912 3.91598C13.41 4.86757 13.669 5.92599 13.6667 6.99998C13.6667 10.682 10.682 13.6666 7.00004 13.6666C3.31804 13.6666 0.333374 10.682 0.333374 6.99998C0.333374 3.31798 3.31804 0.333316 7.00004 0.333316C8.07387 0.332361 9.13199 0.591286 10.084 1.08798L9.08337 2.08798C8.56593 1.86848 8.01683 1.73278 7.45671 1.68598H7.45604ZM12.6567 0.399982L13.6 1.34332L7.47204 7.47132L6.53071 7.47332L6.52937 6.52865L12.6567 0.399982Z" fill="#632121"/>
</svg>
