<svg
  width="16"
  height="16"
  viewBox="0 0 16 16"
  fill="none"
  xmlns="http://www.w3.org/2000/svg"
>
<path
    d="M8.45604 2.68598C7.36631 2.59251 6.27419 2.83632 5.32768 3.3844C4.38118 3.93247 3.62606 4.75829 3.16467 5.74994C2.70328 6.74159 2.55793 7.85112 2.74831 8.92815C2.93869 10.0052 3.4556 10.9977 4.22899 11.771C5.00237 12.5444 5.99483 13.0613 7.07187 13.2517C8.14891 13.4421 9.25844 13.2967 10.2501 12.8354C11.2417 12.374 12.0676 11.6188 12.6156 10.6723C13.1637 9.72584 13.4075 8.63371 13.314 7.54398C13.2673 6.98385 13.1316 6.43474 12.912 5.91732L13.912 4.91598C14.41 5.86757 14.669 6.92599 14.6667 7.99998C14.6667 11.682 11.682 14.6666 8.00004 14.6666C4.31804 14.6666 1.33337 11.682 1.33337 7.99998C1.33337 4.31798 4.31804 1.33332 8.00004 1.33332C9.07387 1.33236 10.132 1.59129 11.084 2.08798L10.0834 3.08798C9.56593 2.86848 9.01683 2.73278 8.45671 2.68598H8.45604ZM13.6567 1.39998L14.6 2.34332L8.47204 8.47132L7.53071 8.47332L7.52937 7.52865L13.6567 1.39998Z"
    fill="#632121"
  />
</svg>
