<svg width="24" height="24" viewBox="0 0 24 24" fill="none" xmlns="http://www.w3.org/2000/svg">
<mask id="mask0_157_109" style="mask-type:alpha" maskUnits="userSpaceOnUse" x="4" y="4" width="16" height="16">
<path d="M19 11H13V5C13 4.4 12.6 4 12 4C11.4 4 11 4.4 11 5V11H5C4.4 11 4 11.4 4 12C4 12.6 4.4 13 5 13H11V19C11 19.6 11.4 20 12 20C12.6 20 13 19.6 13 19V13H19C19.6 13 20 12.6 20 12C20 11.4 19.6 11 19 11Z" fill="black"/>
</mask>
<g mask="url(#mask0_157_109)">
<rect width="24" height="24" fill="#0D0D0D"/>
</g>
</svg>
