<svg width="32" height="32" viewBox="0 0 32 32" fill="none" xmlns="http://www.w3.org/2000/svg">
<path d="M22.6666 20.3265V29.4891C22.6666 29.6071 22.6353 29.7229 22.576 29.8249C22.5166 29.9268 22.4312 30.0111 22.3286 30.0693C22.226 30.1274 22.1098 30.1573 21.9918 30.1559C21.8739 30.1545 21.7584 30.1218 21.6573 30.0611L15.9999 26.6665L10.3426 30.0611C10.2413 30.1218 10.1257 30.1545 10.0077 30.1559C9.88961 30.1573 9.7733 30.1273 9.67064 30.069C9.56798 30.0106 9.48265 29.9261 9.42337 29.824C9.36409 29.7219 9.33299 29.6059 9.33325 29.4878V20.3278C7.60812 18.9466 6.35458 17.0636 5.74586 14.9392C5.13715 12.8147 5.20333 10.5537 5.93524 8.46843C6.66715 6.38321 8.02867 4.5768 9.83163 3.29884C11.6346 2.02088 13.79 1.33447 15.9999 1.33447C18.2099 1.33447 20.3652 2.02088 22.1682 3.29884C23.9712 4.5768 25.3327 6.38321 26.0646 8.46843C26.7965 10.5537 26.8627 12.8147 26.254 14.9392C25.6453 17.0636 24.3917 18.9466 22.6666 20.3278V20.3265ZM11.9999 21.8905V25.9571L15.9999 23.5571L19.9999 25.9571V21.8905C18.729 22.4045 17.3708 22.668 15.9999 22.6665C14.629 22.668 13.2708 22.4045 11.9999 21.8905ZM15.9999 19.9998C18.1217 19.9998 20.1565 19.1569 21.6568 17.6567C23.1571 16.1564 23.9999 14.1215 23.9999 11.9998C23.9999 9.87807 23.1571 7.84324 21.6568 6.34295C20.1565 4.84266 18.1217 3.9998 15.9999 3.9998C13.8782 3.9998 11.8434 4.84266 10.3431 6.34295C8.84277 7.84324 7.99992 9.87807 7.99992 11.9998C7.99992 14.1215 8.84277 16.1564 10.3431 17.6567C11.8434 19.1569 13.8782 19.9998 15.9999 19.9998Z" fill="#632121"/>
</svg>
