<svg width="32" height="32" viewBox="0 0 32 32" fill="none" xmlns="http://www.w3.org/2000/svg">
<path d="M16 2.66675C23.364 2.66675 29.3333 8.63608 29.3333 16.0001C29.3333 23.3641 23.364 29.3334 16 29.3334C8.63596 29.3334 2.66663 23.3641 2.66663 16.0001H5.33329C5.33329 21.8907 10.1093 26.6667 16 26.6667C21.8906 26.6667 26.6666 21.8907 26.6666 16.0001C26.6666 10.1094 21.8906 5.33341 16 5.33341C12.3333 5.33341 9.09863 7.18275 7.17996 10.0001H10.6666V12.6667H2.66663V4.66675H5.33329V8.00008C7.76529 4.76008 11.6386 2.66675 16 2.66675ZM17.3333 9.33342V15.4467L21.6573 19.7707L19.7706 21.6574L14.6666 16.5507V9.33342H17.3333Z" fill="#A55954"/>
</svg>
