<svg width="32" height="32" viewBox="0 0 32 32" fill="none" xmlns="http://www.w3.org/2000/svg">
<path d="M26.6667 26.6667C26.6667 27.0203 26.5262 27.3595 26.2762 27.6095C26.0261 27.8596 25.687 28.0001 25.3334 28.0001H6.66671C6.31309 28.0001 5.97395 27.8596 5.7239 27.6095C5.47385 27.3595 5.33337 27.0203 5.33337 26.6667V14.6667H1.33337L15.1027 2.14939C15.3482 1.92603 15.6681 1.80225 16 1.80225C16.3319 1.80225 16.6519 1.92603 16.8974 2.14939L30.6667 14.6667H26.6667V26.6667ZM24 25.3334V12.2094L16 4.93739L8.00004 12.2094V25.3334H24ZM16 22.6667L11.5214 18.1881C11.2428 17.9095 11.0218 17.5788 10.8711 17.2148C10.7203 16.8508 10.6427 16.4607 10.6427 16.0667C10.6427 15.6728 10.7203 15.2826 10.8711 14.9187C11.0218 14.5547 11.2428 14.224 11.5214 13.9454C11.8 13.6668 12.1307 13.4458 12.4946 13.2951C12.8586 13.1443 13.2487 13.0667 13.6427 13.0667C14.0367 13.0667 14.4268 13.1443 14.7908 13.2951C15.1547 13.4458 15.4855 13.6668 15.764 13.9454L16 14.1814L16.236 13.9454C16.5146 13.6668 16.8453 13.4458 17.2093 13.2951C17.5733 13.1443 17.9634 13.0667 18.3574 13.0667C18.7513 13.0667 19.1415 13.1443 19.5054 13.2951C19.8694 13.4458 20.2001 13.6668 20.4787 13.9454C20.7573 14.224 20.9783 14.5547 21.129 14.9187C21.2798 15.2826 21.3574 15.6728 21.3574 16.0667C21.3574 16.4607 21.2798 16.8508 21.129 17.2148C20.9783 17.5788 20.7573 17.9095 20.4787 18.1881L16 22.6667Z" fill="#A55954"/>
</svg>
