<svg
  width="40"
  height="40"
  viewBox="0 0 40 40"
  fill="none"
  xmlns="http://www.w3.org/2000/svg"
>
<g clip-path="url(#clip0_65_237)">
<path
      d="M31.25 40H20C19.31 40 18.75 39.44 18.75 38.75V29.5833C18.75 28.8933 19.31 28.3333 20 28.3333H31.25C31.94 28.3333 32.5 28.8933 32.5 29.5833V38.75C32.5 39.44 31.94 40 31.25 40ZM21.25 37.5H30V30.8333H21.25V37.5Z"
      fill="#632121"
    />
<path
      d="M25.4167 30.8333H14.5833C13.8933 30.8333 13.3333 30.2733 13.3333 29.5833V19.5833C13.3333 18.8933 13.8933 18.3333 14.5833 18.3333H25.4167C26.1067 18.3333 26.6667 18.8933 26.6667 19.5833V29.5833C26.6667 30.2733 26.1067 30.8333 25.4167 30.8333ZM15.8333 28.3333H24.1667V20.8333H15.8333V28.3333Z"
      fill="#632121"
    />
<path
      d="M20 40H8.75C8.06 40 7.5 39.44 7.5 38.75V29.5833C7.5 28.8933 8.06 28.3333 8.75 28.3333H20C20.69 28.3333 21.25 28.8933 21.25 29.5833V38.75C21.25 39.44 20.69 40 20 40ZM10 37.5H18.75V30.8333H10V37.5Z"
      fill="#632121"
    />
<path
      d="M20 23.3333C19.31 23.3333 18.75 22.7733 18.75 22.0833V19.5833C18.75 18.8933 19.31 18.3333 20 18.3333C20.69 18.3333 21.25 18.8933 21.25 19.5833V22.0833C21.25 22.7733 20.69 23.3333 20 23.3333Z"
      fill="#632121"
    />
<path
      d="M14.5833 33.3333C13.8933 33.3333 13.3333 32.7733 13.3333 32.0833V29.5833C13.3333 28.8933 13.8933 28.3333 14.5833 28.3333C15.2733 28.3333 15.8333 28.8933 15.8333 29.5833V32.0833C15.8333 32.7733 15.2733 33.3333 14.5833 33.3333Z"
      fill="#632121"
    />
<path
      d="M25.4167 33.3333C24.7267 33.3333 24.1667 32.7733 24.1667 32.0833V29.5833C24.1667 28.8933 24.7267 28.3333 25.4167 28.3333C26.1067 28.3333 26.6667 28.8933 26.6667 29.5833V32.0833C26.6667 32.7733 26.1067 33.3333 25.4167 33.3333Z"
      fill="#632121"
    />
<path
      d="M37.0833 39.9987H2.91667C1.30833 39.9987 0 38.6904 0 37.082V14.1654C0 13.7537 0.203333 13.3687 0.541667 13.1354L19.2917 0.218707C19.7183 -0.0762934 20.2833 -0.0762934 20.71 0.218707L39.46 13.1354C39.7967 13.3687 40 13.7537 40 14.1654V37.082C40 38.6904 38.6917 39.9987 37.0833 39.9987ZM2.5 14.822V37.082C2.5 37.312 2.68667 37.4987 2.91667 37.4987H37.0833C37.3133 37.4987 37.5 37.312 37.5 37.082V14.822L20 2.76704L2.5 14.822Z"
      fill="#0D0D0D"
    />
</g>
<defs>
<clipPath id="clip0_65_237">
<rect width="40" height="40" fill="white" />
</clipPath>
</defs>
</svg>
