<svg width="40" height="40" viewBox="0 0 40 40" fill="none" xmlns="http://www.w3.org/2000/svg">
<path d="M19.9998 23.3332V36.6665H6.6665C6.6665 33.1303 8.07126 29.7389 10.5717 27.2384C13.0722 24.7379 16.4636 23.3332 19.9998 23.3332ZM29.9998 35.8332L25.1015 38.4082L26.0365 32.9548L22.0748 29.0915L27.5515 28.2948L29.9998 23.3332L32.4498 28.2948L37.9248 29.0915L33.9632 32.9548L34.8965 38.4082L29.9998 35.8332ZM19.9998 21.6665C14.4748 21.6665 9.99984 17.1915 9.99984 11.6665C9.99984 6.1415 14.4748 1.6665 19.9998 1.6665C25.5248 1.6665 29.9998 6.1415 29.9998 11.6665C29.9998 17.1915 25.5248 21.6665 19.9998 21.6665Z" fill="#219653"/>
</svg>
