<svg
  width="227"
  height="74"
  viewBox="0 0 227 74"
  fill="none"
  xmlns="http://www.w3.org/2000/svg"
>
<path
    d="M20.4036 14.7176C21.0042 15.415 21.3426 16.3001 21.3605 17.2203C21.3605 19.1342 20.0615 20.1475 18.3771 20.1475C17.7679 20.137 17.1684 19.9932 16.6208 19.7261C16.0732 19.459 15.5908 19.0752 15.2075 18.6016C14.8011 18.122 14.2959 17.736 13.7264 17.4699C13.1569 17.2038 12.5366 17.0641 11.908 17.0601C10.2019 17.0601 9.14107 17.9261 9.14107 19.1342C9.14107 19.6668 9.24499 20.732 11.4836 21.3729L14.7312 22.2779C18.7755 23.5033 22.4517 25.5254 22.4517 30.3708C22.4517 36.3852 16.9135 39.2084 11.3754 39.2084C6.47808 39.2084 3.81509 37.1343 2.32555 35.5885C2.00512 35.2681 0.671463 33.7266 0.671463 31.9123C0.655651 31.5188 0.722446 31.1264 0.867542 30.7603C1.01264 30.3943 1.23282 30.0627 1.51389 29.7869C1.79496 29.5112 2.1307 29.2973 2.49945 29.1592C2.8682 29.0211 3.2618 28.9618 3.65488 28.9851C5.20071 28.9851 6.10569 29.9421 6.79418 30.7431C8.39197 32.5531 9.88584 32.9082 11.3754 32.9082C13.718 32.9082 14.7312 31.843 14.7312 30.7778C14.7312 30.2452 14.519 29.0761 12.0162 28.3313L9.24499 27.4653C3.81509 25.9194 1.52449 22.9923 1.52449 19.1559C1.52449 13.5658 6.63829 10.9028 11.6395 10.9028C15.1339 10.9331 18.6715 12.2667 20.4036 14.7176Z"
    fill="#A55954"
  />
<path
    d="M54.1088 23.9276V35.3763C54.1088 36.4099 53.6982 37.4011 52.9674 38.1319C52.2365 38.8628 51.2453 39.2734 50.2117 39.2734C49.1782 39.2734 48.1869 38.8628 47.4561 38.1319C46.7253 37.4011 46.3147 36.4099 46.3147 35.3763V23.9276C46.3147 19.5066 44.1497 17.5927 41.2009 17.5927C36.624 17.5927 35.3423 22.0657 35.2384 23.0746V35.3763C35.2384 36.4099 34.8278 37.4011 34.097 38.1319C33.3661 38.8628 32.3749 39.2734 31.3413 39.2734C30.3078 39.2734 29.3165 38.8628 28.5857 38.1319C27.8548 37.4011 27.4443 36.4099 27.4443 35.3763V4.81037C27.4443 3.77681 27.8548 2.78558 28.5857 2.05474C29.3165 1.3239 30.3078 0.913315 31.3413 0.913315C32.3749 0.913315 33.3661 1.3239 34.097 2.05474C34.8278 2.78558 35.2384 3.77681 35.2384 4.81037V17.1641C35.4506 15.1939 38.4859 10.9894 44.128 10.9894C49.5839 10.9894 54.1088 14.6613 54.1088 23.9276Z"
    fill="#A55954"
  />
<path
    d="M87.4936 14.9297V35.4283C87.4643 36.4545 87.0366 37.429 86.301 38.1451C85.5654 38.8613 84.5799 39.2629 83.5532 39.2647C82.5359 39.2752 81.5556 38.8834 80.8258 38.1746C80.0959 37.4658 79.6755 36.4974 79.6562 35.4802C79.0197 36.9741 76.4606 39.3167 72.2561 39.3167C66.3975 39.3167 59.4218 34.7917 59.4218 25.0967C59.4218 15.6225 66.4495 10.9331 72.2561 10.9331C75.928 10.9331 78.7512 12.9596 79.6562 15.1419V14.9297C79.6721 13.9067 80.0897 12.931 80.8188 12.2132C81.5479 11.4954 82.5301 11.0932 83.5532 11.0933C84.5773 11.1037 85.5579 11.5081 86.2916 12.2225C87.0254 12.9369 87.4558 13.9064 87.4936 14.9297ZM79.9853 25.0967C79.9853 19.5066 76.3653 17.5927 73.7023 17.5927C70.4548 17.5927 67.2072 20.1475 67.2072 25.0967C67.2072 30.046 70.4548 32.6614 73.7023 32.6614C76.3653 32.683 79.9853 30.7431 79.9853 25.0967Z"
    fill="#A55954"
  />
<path
    d="M113.21 14.5574C113.21 16.6877 111.56 18.1773 108.256 18.1773C104.264 18.1773 101.813 21.2083 101.653 23.0746V35.3763C101.58 36.3569 101.138 37.2735 100.418 37.9425C99.697 38.6114 98.75 38.9831 97.7667 38.9831C96.7834 38.9831 95.8364 38.6114 95.1157 37.9425C94.3949 37.2735 93.9537 36.3569 93.8805 35.3763V15.025C93.8405 14.4903 93.9114 13.953 94.0886 13.4469C94.2658 12.9408 94.5455 12.4767 94.9103 12.0837C95.275 11.6907 95.717 11.3771 96.2085 11.1627C96.7 10.9483 97.2305 10.8377 97.7667 10.8377C98.3029 10.8377 98.8334 10.9483 99.3249 11.1627C99.8164 11.3771 100.258 11.6907 100.623 12.0837C100.988 12.4767 101.268 12.9408 101.445 13.4469C101.622 13.953 101.693 14.4903 101.653 15.025V17.1554C101.869 15.1852 105.117 10.9807 109.59 10.9807C111.984 10.9894 113.21 12.6391 113.21 14.5574Z"
    fill="#A55954"
  />
<path
    d="M142.866 23.8757C142.866 26.963 141.217 28.0282 138.021 28.0282L123.429 27.816C124.122 31.1155 126.733 32.9255 130.405 32.9255C132.163 32.9255 132.695 32.6614 134.241 32.1288C135.306 31.6957 136.103 31.2238 137.116 31.2238C137.465 31.2131 137.813 31.275 138.137 31.4056C138.461 31.5363 138.755 31.7328 138.999 31.9827C139.243 32.2326 139.433 32.5305 139.556 32.8575C139.679 33.1845 139.733 33.5335 139.714 33.8824C139.714 34.8437 139.342 35.9089 137.852 37.078C135.99 38.3034 133.431 39.2084 130.08 39.2084C122.888 39.2084 115.327 34.8783 115.327 25.205C115.327 15.5316 123.368 10.9158 129.439 10.9158C135.51 10.9158 142.866 15.7958 142.866 23.8757ZM123.429 22.5983H135.198C134.665 19.0823 132.215 17.6966 129.448 17.6966C126.681 17.6966 123.892 19.0823 123.429 22.5983Z"
    fill="#A55954"
  />
<path
    d="M166.08 14.7176C166.682 15.4139 167.021 16.2997 167.037 17.2203C167.037 19.1342 165.76 20.1475 164.053 20.1475C163.44 20.1414 162.836 19.9996 162.285 19.7323C161.733 19.465 161.247 19.0789 160.862 18.6016C160.455 18.1217 159.949 17.7355 159.379 17.4694C158.809 17.2033 158.188 17.0637 157.558 17.0601C155.857 17.0601 154.791 17.9261 154.791 19.1342C154.791 19.6668 154.895 20.732 157.134 21.3729L160.382 22.2779C164.43 23.5033 168.102 25.5254 168.102 30.3708C168.102 36.3852 162.564 39.2084 157.026 39.2084C152.128 39.2084 149.465 37.1343 147.976 35.5885C147.656 35.2681 146.326 33.7266 146.326 31.9123C146.31 31.5192 146.377 31.1272 146.522 30.7614C146.667 30.3957 146.887 30.0643 147.167 29.7886C147.448 29.5129 147.783 29.299 148.151 29.1606C148.519 29.0222 148.913 28.9625 149.305 28.9851C150.851 28.9851 151.756 29.9421 152.449 30.7431C154.047 32.5531 155.536 32.9082 157.026 32.9082C159.368 32.9082 160.382 31.843 160.382 30.7778C160.382 30.2452 160.169 29.0761 157.667 28.3313L154.895 27.4653C149.465 25.9194 147.175 22.9923 147.175 19.1559C147.175 13.5658 152.289 10.9028 157.294 10.9028C160.806 10.9331 164.322 12.2667 166.08 14.7176Z"
    fill="#A55954"
  />
<path
    d="M199.088 23.8757C199.088 26.963 197.438 28.0282 194.247 28.0282L179.655 27.816C180.348 31.1155 182.959 32.9255 186.63 32.9255C188.388 32.9255 188.921 32.6614 190.463 32.1288C191.528 31.6957 192.329 31.2238 193.338 31.2238C193.687 31.2137 194.034 31.2761 194.358 31.407C194.682 31.5378 194.975 31.7343 195.219 31.9841C195.463 32.2339 195.653 32.5315 195.776 32.8582C195.899 33.1849 195.954 33.5337 195.936 33.8824C195.936 34.8437 195.563 35.9089 194.074 37.078C192.208 38.3034 189.653 39.2084 186.28 39.2084C179.092 39.2084 171.532 34.8783 171.532 25.205C171.532 15.5316 179.572 10.9158 185.643 10.9158C191.714 10.9158 199.088 15.7958 199.088 23.8757ZM179.655 22.5983H191.441C190.909 19.0823 188.458 17.6966 185.691 17.6966C182.924 17.6966 180.135 19.0823 179.655 22.5983Z"
    fill="#A55954"
  />
<path
    d="M208.298 39.2084C207.79 39.2136 207.287 39.1184 206.816 38.9285C206.345 38.7385 205.916 38.4575 205.554 38.1014C205.192 37.7454 204.904 37.3214 204.706 36.8538C204.508 36.3862 204.404 35.8841 204.401 35.3763V4.81037C204.474 3.82979 204.916 2.91314 205.636 2.24422C206.357 1.57531 207.304 1.20358 208.287 1.20358C209.271 1.20358 210.218 1.57531 210.938 2.24422C211.659 2.91314 212.1 3.82979 212.174 4.81037V35.3763C212.165 36.3977 211.753 37.3743 211.027 38.0925C210.301 38.8106 209.319 39.2119 208.298 39.2084Z"
    fill="#A55954"
  />
<path
    d="M222.462 39.2084C221.954 39.213 221.451 39.1175 220.98 38.9273C220.509 38.7371 220.081 38.456 219.719 38.1001C219.357 37.7442 219.069 37.3205 218.871 36.8531C218.673 36.3857 218.569 35.8839 218.565 35.3763V4.81037C218.565 3.77681 218.975 2.78558 219.706 2.05474C220.437 1.3239 221.428 0.913315 222.462 0.913315C223.495 0.913315 224.487 1.3239 225.217 2.05474C225.948 2.78558 226.359 3.77681 226.359 4.81037V35.3763C226.355 35.8839 226.251 36.3857 226.053 36.8531C225.855 37.3205 225.567 37.7442 225.205 38.1001C224.843 38.456 224.414 38.7371 223.943 38.9273C223.473 39.1175 222.969 39.213 222.462 39.2084Z"
    fill="#A55954"
  />
<path
    d="M80.9119 50.2891C81.3221 50.3645 81.6979 50.5676 81.9858 50.8693C91.0789 58.278 101.242 62.9242 113.725 62.9242C126.949 62.9242 137.857 58.278 147.526 50.7264C147.823 50.4631 148.202 50.3103 148.599 50.2934C150.089 50.2934 151.245 52.3285 151.245 54.9439C151.245 56.6759 150.587 58.1351 149.842 58.8409C139.511 68.1376 127.941 73.0739 113.725 73.0739C100.25 73.0739 89.2603 68.1376 79.6735 58.8409C78.8465 58.1135 78.2662 56.6759 78.2662 54.9439C78.2662 52.4671 79.4224 50.2891 80.9119 50.2891Z"
    fill="#A55954"
  />
</svg>
