<svg width="32" height="32" viewBox="0 0 32 32" fill="none" xmlns="http://www.w3.org/2000/svg">
<path d="M8.3533 5.07584L9.88263 7.26117C8.0242 8.5622 6.62897 10.4218 5.89961 12.57C5.17026 14.7181 5.14476 17.0428 5.82683 19.2064C6.5089 21.37 7.86301 23.2598 9.69246 24.6013C11.5219 25.9428 13.7314 26.666 16 26.666C18.2685 26.666 20.478 25.9428 22.3075 24.6013C24.1369 23.2598 25.491 21.37 26.1731 19.2064C26.8552 17.0428 26.8297 14.7181 26.1003 12.57C25.371 10.4218 23.9757 8.5622 22.1173 7.26117L23.6466 5.07584C25.4039 6.30441 26.8385 7.93911 27.8286 9.84099C28.8186 11.7429 29.3348 13.8557 29.3333 15.9998C29.3333 23.3638 23.364 29.3332 16 29.3332C8.63596 29.3332 2.66663 23.3638 2.66663 15.9998C2.66509 13.8557 3.18128 11.7429 4.17134 9.84099C5.16139 7.93911 6.59603 6.30441 8.3533 5.07584ZM14.6666 15.9998V2.6665H17.3333V15.9998H14.6666Z" fill="#A55954"/>
</svg>
