<svg width="4" height="14" viewBox="0 0 4 14" fill="none" xmlns="http://www.w3.org/2000/svg">
<path d="M3.4001 11.995C3.4001 12.355 3.24008 12.735 2.98008 12.995C2.72008 13.255 2.3601 13.395 2.0001 13.395C1.6401 13.395 1.2801 13.235 1.0001 12.995C0.740098 12.735 0.600098 12.375 0.600098 11.995C0.600098 11.635 0.760098 11.275 1.0001 11.015C1.2601 10.755 1.6201 10.595 2.0001 10.595C2.3601 10.595 2.72008 10.755 2.98008 11.015C3.26008 11.255 3.4001 11.635 3.4001 11.995ZM2.98008 5.99502C2.72008 5.73502 2.3601 5.57502 2.0001 5.57502C1.6401 5.57502 1.2801 5.73502 1.0001 5.99502C0.740098 6.25502 0.600098 6.61502 0.600098 6.97502C0.600098 7.33502 0.760098 7.71502 1.0001 7.97502C1.2601 8.23502 1.6201 8.37502 2.0001 8.37502C2.3601 8.37502 2.72008 8.21502 2.98008 7.97502C3.24008 7.71502 3.4001 7.35502 3.4001 6.97502C3.4001 6.63502 3.26008 6.25502 2.98008 5.99502ZM2.98008 0.995019C2.72008 0.73502 2.3601 0.575025 2.0001 0.575025C1.6401 0.575025 1.2801 0.73502 1.0001 0.995019C0.740098 1.25502 0.600098 1.61502 0.600098 1.97502C0.600098 2.33502 0.760098 2.71502 1.0001 2.97502C1.2601 3.23502 1.6201 3.37502 2.0001 3.37502C2.3601 3.37502 2.72008 3.21502 2.98008 2.97502C3.24008 2.71502 3.4001 2.35502 3.4001 1.97502C3.4001 1.63502 3.26008 1.25502 2.98008 0.995019Z" fill="black"/>
</svg>
