<svg width="19" height="21" viewBox="0 0 19 21" fill="none" xmlns="http://www.w3.org/2000/svg">
<path d="M8 0.0078125L15.298 2.28781C15.5015 2.35136 15.6794 2.47829 15.8057 2.6501C15.932 2.82191 16.0001 3.02958 16 3.24281V5.00781H18C18.2652 5.00781 18.5196 5.11317 18.7071 5.30071C18.8946 5.48824 19 5.7426 19 6.00781V14.0078C19 14.273 18.8946 14.5274 18.7071 14.7149C18.5196 14.9025 18.2652 15.0078 18 15.0078L14.78 15.0088C14.393 15.5188 13.923 15.9688 13.38 16.3388L8 20.0078L2.62 16.3398C1.81252 15.7893 1.15175 15.0498 0.69514 14.1857C0.238528 13.3217 -0.000101223 12.3591 3.22098e-08 11.3818V3.24281C0.000120606 3.02975 0.0682866 2.8223 0.194562 2.6507C0.320838 2.47909 0.498622 2.3523 0.702 2.28881L8 0.0078125ZM8 2.10181L2 3.97781V11.3818C1.99986 11.994 2.14025 12.5981 2.41036 13.1475C2.68048 13.697 3.07311 14.177 3.558 14.5508L3.747 14.6868L8 17.5878L11.782 15.0078H7C6.73478 15.0078 6.48043 14.9025 6.29289 14.7149C6.10536 14.5274 6 14.273 6 14.0078V6.00781C6 5.7426 6.10536 5.48824 6.29289 5.30071C6.48043 5.11317 6.73478 5.00781 7 5.00781H14V3.97781L8 2.10181ZM8 10.0078V13.0078H17V10.0078H8ZM8 8.00781H17V7.00781H8V8.00781Z" fill="white"/>
</svg>
