<svg width="32" height="32" viewBox="0 0 32 32" fill="none" xmlns="http://www.w3.org/2000/svg">
<path d="M6.49746 4H25.5028C25.7132 3.99997 25.9206 4.04973 26.1081 4.1452C26.2955 4.24068 26.4578 4.37916 26.5815 4.54933L31.6788 11.5573C31.7694 11.682 31.814 11.8343 31.805 11.9882C31.796 12.142 31.734 12.288 31.6295 12.4013L16.4895 28.8027C16.3695 28.9323 16.203 29.0091 16.0265 29.0161C15.85 29.0231 15.678 28.9597 15.5481 28.84C15.5388 28.832 10.4815 23.3533 0.370793 12.4013C0.266264 12.288 0.204223 12.142 0.195228 11.9882C0.186234 11.8343 0.230841 11.682 0.321459 11.5573L5.41879 4.54933C5.5425 4.37916 5.70472 4.24068 5.89219 4.1452C6.07967 4.04973 6.28707 3.99997 6.49746 4ZM7.17746 6.66667L3.44413 11.8L16.0001 25.4L28.5561 11.8L24.8228 6.66667H7.17746Z" fill="#632121"/>
</svg>
