<svg
  width="16"
  height="16"
  viewBox="0 0 16 16"
  fill="none"
  xmlns="http://www.w3.org/2000/svg"
>
<path
    d="M7.33301 1.36668V2.70801C5.98815 2.87913 4.75891 3.55592 3.89513 4.60082C3.03136 5.64572 2.59786 6.98032 2.68275 8.33336C2.76765 9.6864 3.36456 10.9564 4.35217 11.8851C5.33978 12.8138 6.64397 13.3317 7.99967 13.3333C9.29875 13.3333 10.5532 12.8592 11.5275 12C12.5019 11.1408 13.1291 9.95554 13.2917 8.66668H14.6337C14.299 12.0353 11.4563 14.6667 7.99967 14.6667C4.31767 14.6667 1.33301 11.682 1.33301 8.00001C1.33301 4.54334 3.96434 1.70068 7.33301 1.36668ZM13.333 3.60934L7.99967 8.94268L7.05701 8.00001L12.3903 2.66668H9.33301V1.33334H14.6663V6.66668H13.333V3.60934Z"
    fill="#0D0D0D"
  />
</svg>
