<svg width="32" height="32" viewBox="0 0 32 32" fill="none" xmlns="http://www.w3.org/2000/svg">
<path d="M16 11.3332L18.8213 18.1172L26.144 18.7038L20.5653 23.4825L22.2693 30.6292L16 26.7998L9.73062 30.6292L11.4346 23.4825L5.85596 18.7038L13.1786 18.1172L16 11.3332ZM16 18.2758L15.0146 20.6452L12.46 20.8492L14.4066 22.5172L13.8106 25.0118L16 23.6745L18.188 25.0118L17.5933 22.5185L19.5386 20.8492L16.9853 20.6452L16 18.2758ZM10.6666 2.6665V14.6665H7.99996V2.6665H10.6666ZM24 2.6665V14.6665H21.3333V2.6665H24ZM17.3333 2.6665V9.33317H14.6666V2.6665H17.3333Z" fill="#632121"/>
</svg>
