<svg width="166" height="130" viewBox="0 0 166 130" fill="none" xmlns="http://www.w3.org/2000/svg">
<mask id="mask0_148_829" style="mask-type:alpha" maskUnits="userSpaceOnUse" x="0" y="0" width="166" height="130">
<path fill-rule="evenodd" clip-rule="evenodd" d="M0 0.228027H165.379V129.827H0V0.228027Z" fill="white"/>
</mask>
<g mask="url(#mask0_148_829)">
<path fill-rule="evenodd" clip-rule="evenodd" d="M114.587 99.7318C111.972 99.7106 109.359 99.7043 106.744 99.7002L98.9025 99.6895L83.2184 99.7068L67.5341 99.7598L51.85 99.8638C46.6221 99.9036 41.3942 99.9237 36.166 99.9933C31.2011 100.052 26.2362 100.099 21.2712 100.179C21.401 94.2582 21.4557 88.3378 21.4784 82.4172C21.48 81.0572 21.4838 79.697 21.4884 78.3371L36.1484 78.4706L42.3247 78.5023C42.3298 78.6412 42.3318 78.7793 42.342 78.9187C42.5122 80.8538 43.2569 82.7768 44.583 84.2899C45.2464 85.042 46.055 85.688 46.9812 86.1483C47.9041 86.6119 48.9536 86.8606 50.0044 86.8627C50.2643 86.8566 50.5235 86.8382 50.7827 86.8232C51.0439 86.7854 51.3074 86.7414 51.5674 86.6886C51.8261 86.6076 52.0873 86.538 52.3396 86.4376L52.713 86.2673C52.8376 86.2107 52.961 86.1529 53.0752 86.0754C54.0268 85.5211 54.7715 84.6826 55.2532 83.7878C55.7443 82.8909 56.0252 81.9495 56.2059 81.0213C56.3623 80.1963 56.4192 79.3785 56.423 78.5688C60.1083 78.581 63.7938 78.5866 67.4791 78.5922L77.5205 78.6055C77.5401 79.2599 77.5865 79.9193 77.6867 80.586C77.8559 81.5996 78.1299 82.644 78.6901 83.6285C78.7512 83.7541 78.8333 83.8721 78.9156 83.9901L79.1621 84.3444C79.3456 84.5687 79.5403 84.7912 79.7503 84.9966C79.9771 85.1857 80.1879 85.4 80.444 85.5509L80.8187 85.7915C80.9486 85.8593 81.0814 85.9217 81.2137 85.9857C81.4759 86.1254 81.7517 86.2031 82.0241 86.2992C82.2976 86.3874 82.5729 86.4355 82.8481 86.4997C83.12 86.5339 83.3961 86.5805 83.666 86.5986L84.0696 86.6177C84.2027 86.6241 84.3375 86.6292 84.4884 86.6152C85.6648 86.5823 86.8152 86.1743 87.7519 85.5417C88.6892 84.9013 89.4344 84.0676 90.0069 83.1611C90.879 81.7545 91.3734 80.1861 91.5467 78.5925L96.0042 78.5818C96.1418 80.3125 96.7362 82.0295 97.815 83.4562C98.4511 84.2937 99.2521 85.0328 100.202 85.5596C101.147 86.0892 102.238 86.4093 103.351 86.4358C104.434 86.4669 105.609 86.2077 106.596 85.582C106.852 85.44 107.069 85.2476 107.294 85.0659C107.516 84.8816 107.698 84.662 107.898 84.4578C108.064 84.2333 108.244 84.0126 108.389 83.7784L108.598 83.4231C108.669 83.3048 108.735 83.1853 108.787 83.0622C109.258 82.0881 109.521 81.0751 109.672 80.073C109.746 79.562 109.791 79.0535 109.815 78.5479L112.539 78.5413L112.563 78.8295C112.632 79.7381 112.794 80.6535 113.102 81.546C113.408 82.436 113.862 83.3041 114.499 84.0651C115.132 84.8251 115.971 85.463 116.924 85.8346C117.873 86.2169 118.914 86.3063 119.866 86.2123C120.834 86.1228 121.801 85.8363 122.661 85.3491C123.524 84.8671 124.264 84.1805 124.828 83.3973C125.395 82.6136 125.793 81.7397 126.064 80.8505C126.307 80.062 126.412 79.2587 126.471 78.4622L128.152 78.4518C128.175 79.1937 128.257 79.9389 128.412 80.6798C128.628 81.6819 128.968 82.6845 129.527 83.6244C129.8 84.0959 130.152 84.5396 130.553 84.9497C130.756 85.1523 130.99 85.3353 131.218 85.5183L131.595 85.7581C131.722 85.8374 131.847 85.9184 131.988 85.975C132.264 86.0991 132.538 86.2321 132.835 86.3007C132.981 86.342 133.128 86.3823 133.276 86.4174L133.724 86.4743C134.026 86.5237 134.32 86.5079 134.616 86.5008L134.839 86.4939C134.912 86.4903 134.973 86.4791 135.041 86.472L135.439 86.4205C136.495 86.2571 137.567 85.9263 138.526 85.3363C139.491 84.7616 140.326 83.9417 140.931 83.0008C141.544 82.0611 141.924 81.0152 142.132 79.9756C142.176 79.7156 142.235 79.4547 142.264 79.1952L142.338 78.4176C142.341 78.3843 142.34 78.3511 142.342 78.3182C143.123 78.3088 143.905 78.2984 144.686 78.2879L144.729 82.044L144.92 95.8669L144.985 100.178C134.852 99.9207 124.719 99.7874 114.587 99.7318ZM42.7531 18.4253C42.758 18.5461 42.759 18.6664 42.7679 18.7879C42.9384 20.7231 43.6828 22.646 45.0089 24.1593C45.6725 24.9114 46.4812 25.5575 47.4071 26.0178C48.3302 26.4814 49.3797 26.7301 50.4305 26.7319C50.6905 26.726 50.9494 26.7077 51.2086 26.6924C51.4698 26.6549 51.7333 26.6108 51.9933 26.5581C52.252 26.4768 52.5132 26.4075 52.7655 26.3068L53.1389 26.1363C53.2635 26.0802 53.3871 26.0221 53.501 25.9446C54.4527 25.3906 55.1976 24.5521 55.6793 23.657C56.1704 22.7599 56.4513 21.8187 56.6317 20.8903C56.7872 20.0714 56.8443 19.2592 56.8489 18.4551L77.9467 18.477C77.9663 19.1305 78.0127 19.789 78.1128 20.4552C78.2821 21.4688 78.5558 22.5135 79.1162 23.498C79.1771 23.6231 79.2592 23.7414 79.3418 23.8596L79.588 24.2139C79.7717 24.4379 79.9664 24.6604 80.1762 24.8658C80.4033 25.0549 80.6138 25.2693 80.8702 25.4201L81.2445 25.6605C81.3748 25.7288 81.5076 25.791 81.6396 25.8552C81.9021 25.9946 82.1776 26.0721 82.4503 26.1684C82.7235 26.2566 82.999 26.3048 83.2743 26.3692C83.5462 26.4031 83.8222 26.45 84.0921 26.4679L84.4955 26.487C84.6288 26.4936 84.7634 26.4982 84.9145 26.4847C86.0907 26.4518 87.2411 26.0435 88.1777 25.4112C89.1151 24.7705 89.8603 23.9371 90.433 23.0308C91.3062 21.6222 91.8008 20.051 91.9734 18.4556C92.7775 18.4518 93.5818 18.4469 94.3859 18.4423C94.4157 19.1299 94.4939 19.8211 94.6451 20.5095C94.8693 21.5116 95.2361 22.5137 95.8256 23.4363C96.4067 24.3576 97.2655 25.1798 98.314 25.687C98.445 25.7489 98.575 25.8152 98.7085 25.8712L99.1199 26.0119C99.3936 26.1162 99.6768 26.1623 99.9596 26.2194C100.101 26.252 100.243 26.2668 100.384 26.2757L100.81 26.3083C101.093 26.3267 101.365 26.303 101.644 26.2986C102.754 26.227 103.879 25.8791 104.849 25.2716C105.821 24.6675 106.629 23.8217 107.199 22.8731C108.061 21.4487 108.448 19.8716 108.55 18.3345C109.257 18.3274 109.964 18.32 110.672 18.3121C110.709 18.7489 110.721 19.1835 110.805 19.6262C110.844 19.8576 110.868 20.0885 110.927 20.3196L111.106 21.0139C111.387 21.9347 111.805 22.8601 112.444 23.6782C113.074 24.5011 113.948 25.1663 114.894 25.5812C115.842 26.002 116.844 26.1888 117.808 26.2301C118.05 26.2385 118.284 26.2535 118.562 26.2263C118.829 26.2069 119.096 26.1957 119.36 26.1246C119.624 26.0637 119.89 26.0147 120.139 25.9072C120.392 25.8113 120.648 25.7214 120.877 25.5827C121.828 25.0822 122.587 24.3406 123.16 23.5365C123.729 22.7242 124.129 21.8437 124.411 20.9507C124.703 20.009 124.867 19.053 124.93 18.0965C125.597 18.083 126.265 18.0685 126.932 18.0539L126.981 18.7403C126.992 18.9903 127.034 19.2416 127.071 19.4929C127.111 19.7442 127.135 19.9965 127.202 20.2473C127.406 21.2511 127.762 22.2693 128.366 23.1952C128.512 23.4279 128.694 23.644 128.861 23.8675C129.043 24.0814 129.25 24.2794 129.448 24.483C129.672 24.6614 129.89 24.8528 130.131 25.0116L130.505 25.2341L130.693 25.3437C130.758 25.376 130.825 25.4031 130.892 25.4326C131.95 25.9217 133.133 26.0746 134.233 25.9523C135.317 25.8353 136.405 25.4933 137.362 24.8803C138.315 24.2664 139.079 23.3966 139.613 22.4556C140.147 21.5083 140.47 20.4955 140.662 19.4888C140.779 18.8746 140.843 18.2606 140.874 17.6497C141.942 17.61 143.01 17.5672 144.079 17.5231L144.159 26.751L144.339 46.2557C143.685 46.2424 143.031 46.231 142.377 46.2185C142.327 45.3828 142.207 44.5461 141.974 43.73C141.7 42.7638 141.293 41.8168 140.69 40.976C140.549 40.7606 140.368 40.5692 140.207 40.3666C140.027 40.178 139.844 39.9902 139.649 39.8141C139.243 39.4815 138.811 39.1655 138.323 38.9519C137.361 38.4932 136.27 38.3548 135.25 38.431C134.217 38.4965 133.186 38.8224 132.281 39.3661C131.374 39.9086 130.609 40.6793 130.045 41.5566C129.177 42.9091 128.755 44.4525 128.607 45.983C127.908 45.9723 127.21 45.9618 126.511 45.9514L126.506 45.8716L126.414 45.1363C126.389 44.8917 126.338 44.647 126.291 44.4028C126.242 44.1587 126.207 43.9138 126.132 43.6727C125.893 42.7034 125.503 41.7467 124.92 40.8855C124.777 40.6694 124.601 40.4716 124.441 40.266C124.267 40.0702 124.07 39.8918 123.883 39.7063C123.671 39.5465 123.466 39.376 123.242 39.232L122.898 39.0296L122.724 38.9295C122.665 38.9002 122.602 38.876 122.541 38.8489C121.567 38.4088 120.48 38.2684 119.447 38.3619C118.423 38.4557 117.394 38.7419 116.462 39.2781C115.53 39.8103 114.751 40.6014 114.173 41.488C113.591 42.3775 113.2 43.3607 112.95 44.3565C112.832 44.8172 112.748 45.2821 112.687 45.748L98.6729 45.55L83.0344 45.3667L75.2153 45.276L69.7565 45.2309C69.7468 45.1052 69.7387 44.9786 69.7267 44.8542C69.627 43.953 69.4769 43.045 69.1899 42.1588C68.9116 41.275 68.4896 40.4021 67.8652 39.6749C67.7087 39.4927 67.4403 39.4405 67.224 39.5638C67.1465 39.6082 67.0868 39.6706 67.0433 39.7417C66.9492 39.8957 66.9375 40.0934 67.0331 40.2611L67.04 40.2734C67.4278 40.9541 67.6557 41.7187 67.7956 42.5095C67.9284 43.3024 67.9834 44.1199 67.9758 44.9449C67.9748 45.0346 67.9727 45.1256 67.9717 45.2161C67.9679 45.5398 67.962 45.8662 67.933 46.1802L67.883 46.783C67.8624 46.9629 67.8308 47.1405 67.8063 47.3189C67.8038 47.3381 67.8005 47.3569 67.7982 47.3758C67.6746 48.16 67.4854 48.9276 67.1827 49.6254C66.6077 51.03 65.6296 52.1954 64.3792 52.7324C63.7602 53.0051 63.0649 53.1104 62.3877 53.0923C61.7226 53.0696 61.0951 52.8744 60.5372 52.5163C59.9786 52.162 59.4783 51.6572 59.0807 51.046C58.6813 50.4364 58.3773 49.7348 58.1566 48.9962C57.9812 48.4197 57.8742 47.8152 57.8135 47.202C57.7962 47.0284 57.7817 46.8546 57.7717 46.6805C57.7432 46.1606 57.7493 45.6445 57.7972 45.1323C57.8222 44.8659 57.8548 44.6004 57.9071 44.3363C58.0531 43.5667 58.2776 42.8087 58.6049 42.0987C58.9349 41.3912 59.3585 40.7296 59.8825 40.1699C60.4042 39.6079 61.0332 39.165 61.7277 38.8811C61.8982 38.7954 62.0812 38.7569 62.2626 38.7057C62.4431 38.6428 62.6314 38.6293 62.8197 38.603C63.003 38.5706 63.2094 38.5622 63.4118 38.5574C63.6139 38.552 63.8155 38.5548 64.0158 38.5668L64.0211 38.5671C64.2217 38.5793 64.407 38.4707 64.4998 38.2979C64.5232 38.2541 64.5426 38.2075 64.5525 38.1562C64.6073 37.8795 64.4271 37.6108 64.1506 37.5563C63.9223 37.5109 63.6926 37.477 63.4627 37.4515C63.2326 37.4243 63.0065 37.4123 62.7588 37.4217C62.5159 37.4263 62.27 37.4222 62.0302 37.4717C61.7888 37.5097 61.5431 37.5395 61.3117 37.6198C60.3619 37.8772 59.5086 38.4057 58.7919 39.0457C57.3454 40.3391 56.4564 42.105 56.015 43.9349C55.9186 44.3223 55.8516 44.7181 55.8017 45.1154L53.9738 45.1007C53.7771 43.2544 53.0828 41.4488 51.8689 40.0272C51.1834 39.2172 50.3405 38.5319 49.3835 38.0505C48.4283 37.5688 47.3554 37.2994 46.2783 37.3037C45.2245 37.2979 44.1107 37.5665 43.1698 38.1575C42.6935 38.4442 42.2921 38.8283 41.9228 39.2279C41.762 39.4423 41.5851 39.6512 41.4421 39.8758L41.2364 40.2168C41.1658 40.3299 41.1001 40.4449 41.0478 40.5641C40.5802 41.5046 40.2975 42.4919 40.1174 43.4774C40.0289 43.9915 39.9672 44.5048 39.9242 45.0173C39.3676 45.0153 38.8112 45.0125 38.2546 45.0104C38.2375 44.7523 38.2161 44.4941 38.184 44.2349L38.1052 43.6072L37.9801 42.9789L37.9161 42.6655L37.8264 42.3533C37.7637 42.1458 37.7102 41.9373 37.6391 41.7317C37.3478 40.9092 36.9301 40.1054 36.3546 39.4028C35.7814 38.6996 35.0352 38.1211 34.2146 37.7451C33.3939 37.3646 32.5162 37.175 31.6591 37.1235C30.8328 37.0629 29.8661 37.1314 29.0269 37.4781C28.1787 37.8132 27.4501 38.3752 26.8794 39.0291L26.8506 39.0029L26.5084 39.3681L26.2061 39.7608L26.056 39.9591L25.9245 40.1666L25.6622 40.584C25.3516 41.1567 25.0722 41.7492 24.876 42.364C24.8255 42.5174 24.7707 42.6701 24.7249 42.8248L24.6028 43.2919C24.5128 43.6028 24.4646 43.9196 24.4014 44.2354C24.3497 44.4931 24.3232 44.7528 24.2908 45.013C23.3343 45.0171 22.3779 45.0191 21.4214 45.0255L21.4188 41.5199L21.4153 34.7037L21.4489 27.8877C21.4609 24.6803 21.496 21.4731 21.5264 18.2657C28.6023 18.3651 35.6777 18.4033 42.7531 18.4253ZM79.8437 17.4418C79.836 16.9611 79.8516 16.483 79.8918 16.0092C79.9257 15.6088 79.9764 15.2113 80.0529 14.8201C80.2221 13.9678 80.5139 13.151 80.9317 12.42C81.3552 11.6937 81.9144 11.0616 82.5888 10.6019C83.2697 10.1536 84.0603 9.89234 84.8812 9.83449C85.7016 9.77562 86.5024 9.93593 87.1974 10.3325C87.8949 10.725 88.4536 11.3563 88.8879 12.0658C89.3178 12.7837 89.6081 13.5988 89.7893 14.4403C89.8953 14.9177 89.9616 15.4057 89.9988 15.8979C90.0273 16.273 90.0406 16.6507 90.0329 17.0284C90.0194 17.5098 89.9669 17.9905 89.8831 18.4643C89.6687 19.6744 89.2296 20.8352 88.5639 21.8157C87.6533 23.1828 86.2857 24.15 84.843 24.1915C84.7576 24.2035 84.6557 24.1996 84.5519 24.1938L84.2451 24.1861C84.042 24.1775 83.8493 24.1449 83.6502 24.1283C83.4647 24.0842 83.2692 24.0587 83.0911 24.0039C82.9173 23.9422 82.7302 23.902 82.5735 23.8158C81.9157 23.5225 81.3677 23.0632 80.9727 22.3978C80.5731 21.7428 80.2973 20.9431 80.1199 20.0967C80.0162 19.5717 79.951 19.0291 79.9061 18.4791C79.8783 18.1355 79.8564 17.7899 79.8437 17.4418ZM96.1031 17.4961C96.0926 16.9499 96.1298 16.3979 96.2083 15.8514C96.3758 14.6857 96.7499 13.5483 97.3802 12.5655C98.2852 11.1281 99.7646 10.0735 101.314 10.0493C101.413 10.0488 101.501 10.034 101.607 10.0429L101.922 10.0641C102.134 10.0692 102.333 10.1112 102.535 10.139C102.638 10.1497 102.736 10.1742 102.831 10.2012L103.119 10.2754C103.304 10.3381 103.485 10.4054 103.659 10.4803C104.344 10.8037 104.881 11.3032 105.268 11.9562C105.656 12.6079 105.893 13.4025 106.028 14.2359C106.075 14.4383 106.085 14.6579 106.113 14.869C106.14 15.0813 106.164 15.2938 106.169 15.514L106.183 15.8002L106.201 16.167L106.198 16.8299C106.197 17.3482 106.163 17.8597 106.098 18.3595C105.947 19.5288 105.615 20.626 105.045 21.5407C104.234 22.8366 102.945 23.6876 101.424 23.8479C100.654 23.9376 99.9331 23.8642 99.2687 23.5982C98.6084 23.3341 98.0071 22.8749 97.5402 22.2443C97.0654 21.6227 96.715 20.8622 96.4869 20.0497C96.3386 19.5288 96.2407 18.9855 96.1778 18.4329C96.1423 18.1228 96.1148 17.8106 96.1031 17.4961ZM128.857 14.5983C129.013 13.7558 129.293 12.9468 129.729 12.2342C130.168 11.525 130.765 10.9225 131.475 10.4691C132.186 10.0157 133.013 9.73279 133.868 9.5786C134.08 9.55108 134.306 9.49221 134.503 9.49832C134.706 9.49144 134.91 9.47003 135.107 9.50444L135.405 9.53298L135.693 9.6074C135.888 9.64436 136.065 9.73815 136.247 9.81409C136.97 10.1411 137.54 10.7726 137.961 11.488C138.382 12.2105 138.655 13.035 138.819 13.8814C138.956 14.5856 139.02 15.3081 139.028 16.0334C139.03 16.1815 139.032 16.3293 139.029 16.4777C139.016 16.8931 138.984 17.3082 138.934 17.7181C138.773 19.0433 138.408 20.3123 137.747 21.3381C137.321 22.0058 136.788 22.5688 136.141 22.9483C135.504 23.3364 134.757 23.5722 133.978 23.6685C133.215 23.7572 132.469 23.6805 131.811 23.3973C131.769 23.3808 131.726 23.3668 131.685 23.3484L131.569 23.2814L131.333 23.1517C131.181 23.0558 131.039 22.9396 130.888 22.8377C130.757 22.7059 130.615 22.5879 130.486 22.4511C130.37 22.2999 130.236 22.1646 130.126 22.0045C129.678 21.371 129.333 20.6097 129.118 19.785C129.049 19.5852 129.017 19.3698 128.97 19.1595C128.925 18.9483 128.875 18.7385 128.853 18.5193L128.786 18.0119L128.766 17.8671L128.723 17.2035C128.697 16.7542 128.691 16.3064 128.711 15.8637C128.73 15.4355 128.775 15.0125 128.857 14.5983ZM130.387 47.3577C130.365 46.9069 130.367 46.456 130.395 46.0103C130.477 44.7184 130.782 43.4696 131.402 42.3961C131.817 41.6799 132.378 41.0616 133.059 40.6088C133.738 40.1546 134.536 39.8727 135.372 39.7891C136.213 39.6966 137.042 39.8011 137.784 40.1299C138.527 40.452 139.175 41.0038 139.634 41.7098C140.096 42.4134 140.406 43.229 140.583 44.0771C140.727 44.7665 140.8 45.4751 140.813 46.1887C140.816 46.3548 140.819 46.521 140.816 46.6874C140.804 47.0608 140.769 47.4336 140.717 47.8037C140.528 49.1466 140.072 50.4453 139.337 51.5369C138.872 52.2301 138.293 52.8285 137.642 53.2636C136.989 53.6996 136.259 53.9463 135.522 53.98C135.427 53.9833 135.343 54.0006 135.239 53.9942L134.93 53.9812C134.721 53.9818 134.526 53.9456 134.327 53.9236C134.226 53.9152 134.13 53.8951 134.036 53.8714L133.752 53.8087C133.569 53.7539 133.39 53.694 133.217 53.627C132.541 53.3316 131.982 52.8744 131.562 52.2367C131.142 51.6014 130.865 50.809 130.688 49.9733C130.631 49.7697 130.61 49.5495 130.572 49.3369C130.535 49.1234 130.501 48.9085 130.485 48.687L130.418 48.0277L130.406 47.7741L130.387 47.3577ZM125.06 46.642C125.063 47.0129 125.044 47.3819 125.012 47.7476C124.888 49.1392 124.501 50.4685 123.753 51.5178C122.821 52.8486 121.328 53.6367 119.689 53.8441L119.381 53.8803C119.331 53.8851 119.277 53.8961 119.23 53.8969L119.095 53.8974C118.915 53.8984 118.733 53.9155 118.563 53.8788L118.304 53.849L118.058 53.7779C117.89 53.7468 117.74 53.6614 117.584 53.5964C116.97 53.3087 116.447 52.7734 116.039 52.121C115.622 51.4711 115.327 50.6997 115.118 49.8935C114.942 49.1853 114.834 48.4454 114.795 47.6946C114.789 47.5868 114.78 47.4798 114.778 47.3714C114.766 46.8385 114.783 46.3051 114.829 45.7786C114.932 44.5853 115.198 43.4295 115.724 42.4162C116.105 41.6937 116.623 41.0527 117.292 40.5914C117.954 40.1263 118.76 39.8345 119.599 39.7152C119.806 39.6994 120.016 39.6546 120.222 39.6678C120.429 39.6681 120.637 39.6614 120.839 39.6971L121.145 39.7371L121.44 39.8164C121.641 39.8564 121.825 39.9441 122.013 40.0187C122.765 40.3332 123.383 40.9143 123.845 41.6131C124.314 42.311 124.625 43.1336 124.805 43.993C124.938 44.6248 125.025 45.2729 125.053 45.9297C125.063 46.1662 125.066 46.4037 125.06 46.642ZM41.6332 46.4183C41.6153 45.9547 41.6141 45.4883 41.6327 45.0247C41.6862 43.6944 41.9125 42.3885 42.45 41.2612C42.4895 41.1626 42.54 41.0729 42.5937 40.9855L42.7482 40.7181C42.8545 40.5433 42.9847 40.3911 43.0996 40.2244C43.2406 40.0866 43.3629 39.9252 43.514 39.8014C43.6675 39.6806 43.811 39.545 43.9843 39.455C44.641 39.0427 45.4352 38.8459 46.264 38.8803C47.0742 38.9035 47.8706 39.1489 48.5715 39.5623C49.2746 39.9747 49.883 40.5512 50.3644 41.2181C51.1731 42.3421 51.628 43.6989 51.7259 45.0818C51.7447 45.3484 51.7552 45.6157 51.747 45.8828C51.733 46.3013 51.6902 46.718 51.6206 47.1291C51.4109 48.3695 50.9547 49.5559 50.2908 50.559C49.8537 51.227 49.3208 51.8086 48.7185 52.238C48.115 52.6682 47.4389 52.9233 46.737 52.9738C46.5736 53.0046 46.3527 52.9842 46.1554 52.9878C45.9502 52.9932 45.7637 52.9557 45.5657 52.9447C45.3743 52.9198 45.1915 52.8782 45.0055 52.8433L44.743 52.7633C44.654 52.7386 44.5653 52.7141 44.4866 52.6741C43.8234 52.409 43.262 51.9724 42.8407 51.3317C42.422 50.6931 42.1228 49.9038 41.9418 49.0591C41.8034 48.3894 41.7132 47.6944 41.6648 46.9866C41.6515 46.7978 41.6401 46.6087 41.6332 46.4183ZM26.1056 46.1507C26.1058 45.8724 26.0959 45.5923 26.1025 45.3135C26.1099 45.2113 26.1137 45.1081 26.1183 45.0054C26.1257 44.829 26.1341 44.6526 26.1565 44.4783C26.192 44.2028 26.2111 43.9222 26.27 43.651L26.3444 43.2402C26.3739 43.1046 26.4119 42.9718 26.4448 42.8373C26.5732 42.2957 26.7741 41.7837 26.9907 41.2801L27.179 40.9187L27.2728 40.7372L27.3819 40.5672L27.6003 40.2265L27.8496 39.9138L27.821 39.8875C28.3076 39.3796 28.8835 38.9863 29.512 38.7715C30.1474 38.5508 30.7917 38.5253 31.5297 38.6061C32.2406 38.6808 32.921 38.8686 33.5177 39.1803C34.1153 39.4902 34.6243 39.9265 35.0216 40.4617C35.4186 40.9974 35.714 41.6216 35.9187 42.2934C35.9684 42.4619 36.0036 42.638 36.0474 42.8092L36.1106 43.0674L36.1511 43.3355L36.2337 43.87L36.276 44.4171C36.2915 44.6108 36.301 44.8063 36.3061 45.0023C36.3209 45.5439 36.3007 46.0898 36.2633 46.6166C36.2515 46.7114 36.2385 46.8059 36.226 46.9008C36.1453 47.519 36.0433 48.1312 35.8402 48.6978C35.6174 49.3522 35.3317 49.9759 34.9418 50.504C34.5552 51.0325 34.0822 51.475 33.5408 51.7892C32.9967 52.1017 32.4009 52.2824 31.7869 52.3937C31.6307 52.4134 31.478 52.4485 31.3197 52.461L30.8432 52.4939C30.6905 52.4865 30.5378 52.4812 30.3844 52.4781C30.2343 52.4631 30.0893 52.4322 29.9399 52.4139C29.3586 52.2941 28.8203 52.0482 28.3427 51.675C27.8664 51.3009 27.4604 50.796 27.1329 50.2167C26.8067 49.6359 26.5618 48.9814 26.3902 48.2943C26.2705 47.7749 26.1907 47.24 26.143 46.6961C26.127 46.5152 26.1147 46.3334 26.1056 46.1507ZM89.6071 77.1592C89.5939 77.6414 89.5411 78.1231 89.4568 78.5976C89.2424 79.8067 88.8036 80.9665 88.1384 81.9465C87.2275 83.3133 85.8599 84.2805 84.4174 84.322C84.332 84.3342 84.2298 84.3302 84.1261 84.3245L83.8193 84.3169C83.6164 84.308 83.4237 84.2756 83.2244 84.2588C83.0391 84.2147 82.8434 84.1897 82.6655 84.1347C82.4917 84.073 82.3046 84.0325 82.1479 83.9463C81.4901 83.653 80.9422 83.1937 80.5471 82.5286C80.1472 81.8736 79.8717 81.0736 79.6941 80.2274C79.5906 79.7017 79.5251 79.1585 79.4803 78.608C79.4525 78.2653 79.4308 77.9202 79.4178 77.5728C79.4102 77.0758 79.4278 76.5817 79.4711 76.0926C79.5052 75.708 79.5539 75.3265 79.6271 74.9508C79.7963 74.0986 80.0884 73.282 80.5058 72.5508C80.9297 71.8245 81.4886 71.1924 82.1632 70.7329C82.8442 70.2841 83.6345 70.0231 84.4554 69.965C85.276 69.9064 86.0766 70.0669 86.7716 70.463C87.4694 70.8555 88.028 71.487 88.4623 72.1965C88.8922 72.9142 89.1823 73.7295 89.3635 74.5708C89.4728 75.063 89.5396 75.5668 89.576 76.0742C89.602 76.4346 89.6148 76.7965 89.6071 77.1592ZM107.953 77.1077C107.941 77.592 107.92 78.0749 107.88 78.5525C107.846 78.9608 107.8 79.365 107.73 79.7611C107.572 80.6164 107.341 81.4437 106.978 82.1626C106.272 83.6375 104.978 84.4436 103.37 84.4304C101.815 84.4535 100.275 83.6263 99.2146 82.3487C98.3345 81.303 97.795 79.9716 97.5998 78.5778C97.5564 78.2678 97.5243 77.9562 97.5157 77.6424C97.5085 77.12 97.5429 76.5932 97.6128 76.0704C97.7756 74.852 98.1526 73.6585 98.8019 72.6189C99.7202 71.1476 101.246 70.0558 102.871 70.03C103.71 70.0158 104.596 70.1378 105.304 70.4875C106.021 70.8303 106.602 71.3634 106.999 72.0656C107.395 72.7667 107.645 73.5881 107.783 74.4485C107.863 74.9781 107.911 75.5192 107.935 76.0659C107.951 76.4109 107.959 76.7578 107.953 77.1077ZM142.291 76.1999L142.287 76.1336L142.192 75.3772C142.168 75.1262 142.111 74.8736 142.061 74.6218C142.007 74.37 141.968 74.1185 141.887 73.8684C141.631 72.8676 141.212 71.8708 140.576 70.9796C140.421 70.7558 140.23 70.5499 140.057 70.3379C139.869 70.1355 139.656 69.9505 139.455 69.7601C139.228 69.595 139.008 69.4199 138.769 69.2738L138.398 69.0717L138.213 68.9728C138.149 68.9435 138.083 68.9201 138.018 68.8941C136.98 68.4613 135.847 68.3523 134.796 68.4968C133.758 68.6423 132.726 68.9746 131.825 69.5623C130.925 70.1465 130.193 70.959 129.664 71.852C129.124 72.7437 128.768 73.7132 128.527 74.6919C128.414 75.1611 128.33 75.6339 128.27 76.1081L126.444 76.102C126.427 75.9004 126.407 75.6983 126.382 75.495C126.275 74.6162 126.106 73.7316 125.802 72.8661C125.501 72.0036 125.046 71.1532 124.374 70.4622C124.148 70.2311 123.777 70.2028 123.519 70.409C123.43 70.4801 123.369 70.5703 123.329 70.6684C123.246 70.8751 123.27 71.1185 123.419 71.3053L123.428 71.3163C124.344 72.4598 124.68 74.0545 124.774 75.64C124.783 75.7908 124.787 75.9438 124.792 76.0967C124.812 76.7484 124.797 77.411 124.752 78.0382C124.737 78.1837 124.718 78.3285 124.7 78.4732C124.62 79.1015 124.505 79.72 124.301 80.2991C124.06 81.0129 123.727 81.6809 123.29 82.2505C122.853 82.8209 122.312 83.287 121.701 83.6217C121.088 83.956 120.402 84.1507 119.692 84.2066C118.97 84.2644 118.287 84.1841 117.667 83.939C117.049 83.6953 116.503 83.2863 116.058 82.7541C115.611 82.2232 115.273 81.5739 115.022 80.8766C114.766 80.1795 114.615 79.4244 114.544 78.6555C114.541 78.6157 114.539 78.5757 114.536 78.5359C114.479 77.8012 114.448 77.0672 114.544 76.3485C114.549 76.2524 114.562 76.1576 114.578 76.0633C114.593 75.969 114.611 75.8749 114.627 75.7804C114.658 75.5908 114.688 75.4012 114.742 75.2174C114.79 75.0326 114.823 74.8418 114.883 74.66L115.059 74.1131C115.328 73.3972 115.681 72.7149 116.121 72.1007C116.565 71.4914 117.098 70.949 117.722 70.5489C118.344 70.1472 119.054 69.8886 119.81 69.8213L119.819 69.8205C120.018 69.8027 120.186 69.6681 120.252 69.4823C120.268 69.4398 120.279 69.3954 120.283 69.3477C120.303 69.0664 120.091 68.822 119.81 68.8018C118.876 68.7351 117.911 68.9415 117.064 69.3651C116.215 69.7871 115.477 70.3983 114.874 71.1047C113.664 72.5106 112.941 74.2619 112.663 76.0638L109.769 76.0651C109.717 75.4193 109.634 74.7714 109.506 74.123C109.302 73.1332 108.964 72.129 108.386 71.2131C107.815 70.2943 106.914 69.5284 105.904 69.1151C105.781 69.0547 105.653 69.0136 105.524 68.9746L105.138 68.8551C104.879 68.8 104.619 68.7412 104.361 68.7037C103.836 68.6413 103.345 68.6053 102.81 68.6443C101.731 68.7078 100.691 69.1015 99.8351 69.7C98.9737 70.2994 98.2851 71.0826 97.731 71.9285C96.9122 73.1836 96.3731 74.6004 96.1257 76.0712L91.541 76.0732C91.4712 75.4149 91.3572 74.7597 91.1809 74.1154C90.9016 73.1207 90.4798 72.1522 89.8811 71.2768C89.2875 70.4021 88.4962 69.6192 87.5234 69.1008C87.034 68.8528 86.5164 68.6479 85.9769 68.5444L85.5724 68.4672C85.4371 68.4489 85.301 68.4461 85.1652 68.4356C85.0293 68.4282 84.8925 68.4167 84.7574 68.4147L84.3562 68.4331C83.2871 68.4904 82.2147 68.825 81.3028 69.4089C80.3888 69.9908 79.6419 70.7951 79.0857 71.6881C78.5238 72.5801 78.1308 73.558 77.8864 74.5553C77.7625 75.0668 77.6746 75.5829 77.6137 76.1002L67.4756 76.1433C63.745 76.1596 60.0144 76.1762 56.2837 76.1996C56.2544 75.9797 56.2213 75.7598 56.1828 75.5396C56.0235 74.6407 55.7732 73.7405 55.3601 72.9035C55.2587 72.6981 55.0275 72.5791 54.793 72.6288C54.7214 72.6443 54.6569 72.6744 54.6009 72.7147C54.4408 72.8301 54.3549 73.0322 54.3988 73.2377L54.4016 73.2507C54.6073 74.2143 54.6804 75.209 54.6766 76.2103C54.674 76.8694 54.6394 77.531 54.5841 78.1886C54.5716 78.3132 54.5578 78.4373 54.5446 78.5617C54.4699 79.2554 54.3789 79.9412 54.2036 80.5891C54.0129 81.3544 53.7417 82.0815 53.3625 82.6899C52.9812 83.297 52.5103 83.7797 51.9473 84.0842C51.3874 84.3921 50.7265 84.5249 50.0157 84.5216C48.6415 84.5144 47.2788 83.8416 46.295 82.7513C45.3033 81.6671 44.6693 80.2216 44.4949 78.7036C44.4878 78.6409 44.4855 78.5767 44.4799 78.5135C44.4175 77.8155 44.4327 77.0909 44.526 76.3796C44.5304 76.349 44.5372 76.3189 44.5421 76.2883C44.6545 75.5441 44.8594 74.8158 45.139 74.1228C45.4343 73.4028 45.8258 72.7241 46.3154 72.1397C46.8063 71.5586 47.3963 71.0767 48.0556 70.764C48.2197 70.6852 48.3917 70.6287 48.5597 70.556C48.732 70.5005 48.9099 70.4666 49.0855 70.4169C49.2639 70.385 49.4461 70.3753 49.6275 70.3501C49.8169 70.3348 50.0228 70.3356 50.2168 70.3412C51.0025 70.3651 51.761 70.5196 52.4223 70.8649L52.4366 70.8723C52.6624 70.9895 52.9315 70.9567 53.1242 70.8035C53.1772 70.7615 53.2257 70.712 53.2644 70.6519C53.4555 70.356 53.3707 69.9614 53.075 69.7703C52.6578 69.5009 52.2034 69.2919 51.7375 69.1433C51.2701 68.9978 50.7935 68.9086 50.3205 68.8599C50.0815 68.8357 49.8523 68.8187 49.6082 68.8184C49.3574 68.8291 49.1033 68.8286 48.8525 68.8554C48.6045 68.9 48.3517 68.9341 48.1065 68.9948C47.8672 69.0717 47.6208 69.1385 47.3866 69.2308C46.4515 69.6143 45.6364 70.2204 44.968 70.9307C44.3007 71.6453 43.7714 72.4629 43.3606 73.3276C42.95 74.1931 42.6548 75.1096 42.4882 76.0495C42.4736 76.1344 42.4647 76.2198 42.452 76.3049L36.1457 76.3554L21.4939 76.5317C21.502 73.9492 21.5084 71.367 21.4979 68.7845L21.4518 55.1523L21.4238 48.3361L21.4225 46.5816C22.3481 46.6064 23.2735 46.6265 24.1992 46.6492C24.2056 47.3299 24.2532 48.0155 24.3636 48.7028C24.5145 49.5569 24.7604 50.4122 25.1493 51.2344C25.5354 52.0553 26.0816 52.8425 26.8087 53.4871C26.9991 53.6385 27.1757 53.8074 27.3832 53.9389C27.5919 54.0676 27.7909 54.2162 28.0134 54.3222C28.2377 54.4234 28.4569 54.544 28.6903 54.6214C28.9245 54.6946 29.1575 54.784 29.396 54.836C29.6348 54.8817 29.8757 54.9352 30.1158 54.9668L30.8362 55.0185C31.0712 55.0155 31.3047 55.0055 31.5394 54.9969C31.7736 54.9844 32.0078 54.9359 32.2418 54.9046C33.1761 54.7336 34.0745 54.3296 34.8449 53.7766C35.621 53.2279 36.2762 52.5344 36.787 51.7698C37.298 51.0012 37.6362 50.1583 37.8801 49.3135C38.1171 48.5247 38.2075 47.7247 38.2685 46.9328C38.795 46.9415 39.3215 46.9494 39.8481 46.9581C39.8534 47.7693 39.9072 48.5902 40.0316 49.4198C40.1934 50.4254 40.4811 51.4614 41.0378 52.4398C41.5847 53.4198 42.505 54.2825 43.568 54.7736C43.6985 54.8442 43.8331 54.8947 43.9692 54.9416L44.3769 55.0858C44.6491 55.1567 44.9251 55.2298 45.1986 55.2787C45.4693 55.3131 45.7473 55.371 46.0144 55.3807C46.2881 55.3916 46.5387 55.4268 46.845 55.4023C48.0288 55.3735 49.1889 54.9609 50.1391 54.3294C51.0978 53.6994 51.8586 52.8583 52.4394 51.9436C53.0131 51.0216 53.4229 50.0256 53.6752 49.0005C53.8264 48.3929 53.923 47.7762 53.9775 47.1569L55.7233 47.1773C55.7554 47.9711 55.8497 48.7691 56.0485 49.5564C56.2771 50.4858 56.6291 51.4046 57.1487 52.2604C57.6673 53.1119 58.3598 53.9142 59.2554 54.4994C60.1451 55.0861 61.2232 55.4309 62.2857 55.4727C63.3339 55.5259 64.3839 55.3103 65.3417 54.8727C66.2969 54.4344 67.1318 53.7674 67.7751 52.9827C68.4171 52.1937 68.8796 51.3032 69.2064 50.3915C69.5591 49.3899 69.7283 48.3608 69.7852 47.3424L75.1938 47.4056L83.0134 47.4711L98.6523 47.6003L112.555 47.6819C112.563 48.5973 112.647 49.5212 112.859 50.4351C113.088 51.4525 113.472 52.4608 114.071 53.3928C114.368 53.8581 114.742 54.2917 115.162 54.6875C115.374 54.8827 115.616 55.0567 115.85 55.2311L116.237 55.4548C116.366 55.5285 116.494 55.6037 116.637 55.6541C116.916 55.7658 117.191 55.8863 117.487 55.9416C117.633 55.9758 117.779 56.0107 117.925 56.0403L118.367 56.0805C118.664 56.119 118.952 56.0925 119.241 56.0754C119.543 56.068 119.779 56.0048 120.045 55.9648C121.078 55.7658 122.108 55.4051 123.019 54.8131C123.931 54.2274 124.712 53.4287 125.271 52.5176C125.836 51.607 126.177 50.6005 126.372 49.6002C126.497 48.9847 126.554 48.3675 126.568 47.7558C127.226 47.7588 127.885 47.7624 128.543 47.7655C128.548 48.6195 128.625 49.4863 128.778 50.3571C128.96 51.3539 129.268 52.3805 129.87 53.3229C130.178 53.7863 130.531 54.2399 130.977 54.6082C131.088 54.7005 131.195 54.797 131.311 54.8829L131.674 55.1161L131.858 55.2303C131.92 55.2647 131.986 55.293 132.05 55.3244L132.437 55.5053C132.699 55.6078 132.967 55.6952 133.233 55.7714C133.499 55.8241 133.77 55.9039 134.035 55.9284C134.301 55.959 134.569 56.0005 134.829 56.0013L135.223 56.0148C135.352 56.0209 135.502 56.0018 135.641 55.9954C136.775 55.9243 137.862 55.4869 138.744 54.8546C139.635 54.2228 140.332 53.3999 140.871 52.5158C141.745 51.0656 142.218 49.4442 142.353 47.8052C143.02 47.8057 143.686 47.8075 144.353 47.8073L144.413 54.3977L144.663 76.2236C143.872 76.2152 143.082 76.2068 142.291 76.1999ZM140.008 76.2866L140.01 76.9416C140.005 77.4174 139.98 77.8861 139.929 78.3441C139.887 78.7226 139.828 79.0944 139.738 79.4535C139.545 80.2458 139.247 80.9837 138.825 81.6142C138.403 82.245 137.854 82.7606 137.212 83.1594C136.567 83.5547 135.82 83.8213 135.027 83.9678C134.834 83.9925 134.612 84.054 134.452 84.0514C134.279 84.0624 134.103 84.0901 133.939 84.0644L133.686 84.0512L133.443 83.9981C133.275 83.98 133.124 83.9077 132.964 83.8547C132.336 83.6174 131.771 83.1079 131.316 82.4685C130.859 81.8265 130.519 81.0497 130.296 80.2285C130.138 79.6508 130.034 79.0506 129.973 78.4407C129.948 78.182 129.927 77.9223 129.917 77.6611C129.905 77.1424 129.922 76.6256 129.966 76.1138C129.998 75.7504 130.042 75.3892 130.108 75.0342C130.264 74.1794 130.543 73.3547 130.965 72.6317C131.396 71.916 131.961 71.2959 132.662 70.8864C133.354 70.473 134.158 70.2278 134.982 70.1598C135.794 70.0933 136.59 70.2143 137.269 70.5535C137.312 70.5737 137.356 70.5908 137.398 70.6129L137.517 70.6901L137.757 70.8405C137.911 70.9488 138.05 71.0811 138.198 71.1965C138.326 71.3416 138.463 71.4726 138.585 71.6211C138.695 71.7835 138.821 71.929 138.922 72.0985C139.337 72.7667 139.619 73.5489 139.782 74.3769C139.837 74.5773 139.855 74.7936 139.888 75.0034C139.919 75.2142 139.955 75.4224 139.962 75.6408L140 76.1821L140.008 76.2866ZM165.376 118.882L165.375 118.876L165.038 114.362C164.929 112.857 164.811 111.353 164.687 109.849L164.313 105.338C164.188 103.835 164.052 102.332 163.912 100.83L163.908 100.791C163.85 100.189 163.342 99.7193 162.725 99.7221L160.379 99.7321C159.597 99.7374 158.815 99.7344 158.033 99.7476C156.754 99.7665 155.476 99.7795 154.197 99.8032C154.229 98.4879 154.257 97.1723 154.281 95.8569C154.371 91.2486 154.406 86.6407 154.422 82.0326C154.432 72.8166 154.419 63.6004 154.328 54.3847L154.085 26.7375C154.055 22.1294 154.018 17.5215 154.009 12.9137L153.99 6.00162L153.989 5.56964L153.988 5.35377L153.988 5.24571L153.983 5.11344C153.977 4.93707 153.972 4.76046 153.943 4.58537L153.905 4.32261L153.845 4.06342C153.677 3.37478 153.363 2.71954 152.92 2.16012C152.051 1.02804 150.644 0.289456 149.17 0.232877C148.434 0.200255 147.677 0.332017 146.989 0.634281C146.298 0.930937 145.68 1.39427 145.186 1.96822C144.686 2.53936 144.334 3.23945 144.139 3.97651C144.083 4.16001 144.054 4.3486 144.025 4.53745C143.99 4.72605 143.988 4.91592 143.979 5.10605C143.968 5.31605 143.974 5.43481 143.975 5.58391L143.978 6.01589L144.039 12.9274L144.067 16.1613C143.002 16.1308 141.937 16.1012 140.872 16.0752C140.822 15.2049 140.697 14.3363 140.461 13.4879C140.187 12.511 139.781 11.5558 139.185 10.6966C138.592 9.84592 137.798 9.06682 136.789 8.63381C136.537 8.53263 136.288 8.42075 136.019 8.37105L135.623 8.27599L135.22 8.23419C134.95 8.19367 134.684 8.21559 134.418 8.2268C134.143 8.2296 133.909 8.28134 133.655 8.31065C132.661 8.46611 131.669 8.78061 130.777 9.31301C129.88 9.83267 129.092 10.5656 128.505 11.4283C127.906 12.2859 127.507 13.2608 127.262 14.2502C127.126 14.7782 127.042 15.3124 126.99 15.8461C126.29 15.8395 125.589 15.8331 124.889 15.8277C124.879 15.7227 124.871 15.6177 124.859 15.513C124.801 15.0619 124.719 14.6123 124.607 14.1678C124.497 13.7228 124.362 13.283 124.183 12.8556C123.838 12 123.351 11.1842 122.704 10.5024C122.493 10.2794 122.145 10.2356 121.883 10.4132C121.789 10.4767 121.72 10.5616 121.673 10.6559C121.573 10.8557 121.578 11.1016 121.712 11.3002L121.722 11.3152C122.571 12.5683 122.926 14.1212 122.976 15.6715C122.977 15.7189 122.976 15.7668 122.977 15.8142C122.983 16.156 122.982 16.4993 122.958 16.8416L122.915 17.4252L122.837 18.0022C122.83 18.0478 122.82 18.0924 122.812 18.1378C122.688 18.8544 122.515 19.5558 122.273 20.2195C122.01 20.9221 121.655 21.5715 121.231 22.1217C120.81 22.675 120.306 23.117 119.753 23.3848C119.62 23.4669 119.472 23.5041 119.329 23.5553C119.19 23.6183 119.036 23.6303 118.889 23.6624C118.744 23.7052 118.586 23.6942 118.433 23.7088C118.292 23.7291 118.104 23.7156 117.924 23.7082C117.206 23.6736 116.524 23.5316 115.931 23.2633C115.335 22.9964 114.837 22.6016 114.424 22.1006C114.011 21.597 113.702 20.9718 113.476 20.287L113.328 19.7594C113.28 19.5828 113.253 19.3935 113.211 19.2115C113.136 18.9151 113.107 18.5998 113.068 18.2874C113.059 18.2178 113.051 18.1485 113.04 18.0794C113.011 17.6936 112.985 17.2973 112.975 16.9104C112.981 16.535 112.972 16.1555 113.006 15.7857C113.007 15.7775 113.007 15.7691 113.008 15.761C113.019 15.3761 113.088 15.0076 113.14 14.6322C113.225 14.27 113.296 13.8984 113.426 13.5541C113.656 12.8535 113.98 12.1904 114.429 11.6225C115.305 10.4657 116.695 9.73455 118.261 9.56736L118.267 9.56685C118.453 9.54697 118.612 9.42541 118.683 9.25516C118.702 9.20877 118.717 9.15933 118.722 9.10658C118.749 8.82496 118.543 8.57494 118.261 8.54792C117.355 8.46076 116.407 8.56704 115.508 8.88485C114.613 9.20546 113.776 9.74016 113.099 10.4298C111.739 11.8213 111.017 13.6956 110.779 15.515C110.762 15.607 110.751 15.6985 110.739 15.7905C109.993 15.7921 109.246 15.7931 108.5 15.7951L108.448 15.3025C108.427 15.054 108.386 14.8032 108.341 14.5522C108.294 14.3011 108.266 14.0524 108.196 13.8001C107.972 12.8013 107.624 11.7765 106.99 10.8508C106.369 9.92391 105.423 9.15271 104.376 8.75411C104.116 8.65904 103.85 8.57953 103.586 8.51122C103.321 8.4656 103.055 8.39424 102.793 8.37564C102.53 8.35092 102.266 8.31524 102.009 8.31957L101.621 8.31447C101.493 8.3109 101.348 8.33257 101.213 8.34149C100.111 8.42916 99.0596 8.85274 98.1994 9.47052C97.3347 10.0908 96.6489 10.8898 96.1009 11.7482C95.3111 13.0097 94.7904 14.4107 94.5404 15.8632C93.6805 15.8693 92.8204 15.8749 91.9602 15.8818C91.8894 15.2436 91.7777 14.609 91.607 13.9848C91.3274 12.9899 90.9059 12.0217 90.3069 11.146C89.7136 10.2713 88.922 9.48836 87.9492 8.97023C87.4599 8.72199 86.9423 8.51734 86.403 8.41361L85.9985 8.33665C85.8632 8.31804 85.7269 8.31524 85.591 8.30479C85.4552 8.2974 85.3186 8.28567 85.1835 8.28389L84.7821 8.30249C83.713 8.35958 82.6408 8.69447 81.7289 9.27784C80.8147 9.85969 80.068 10.6643 79.5119 11.5573C78.9496 12.4491 78.5566 13.4272 78.3122 14.4242C78.1833 14.9574 78.0946 15.4954 78.0334 16.0347L56.7386 16.3234C56.7029 16.0186 56.6619 15.7141 56.6089 15.409C56.4496 14.5099 56.1991 13.6097 55.786 12.7727C55.6845 12.5673 55.4534 12.448 55.2191 12.4985C55.1473 12.5135 55.0828 12.5436 55.0267 12.5841C54.8669 12.6993 54.7808 12.9017 54.8246 13.1066L54.8277 13.1198C55.0514 14.1689 55.1182 15.2546 55.0994 16.3454C55.0897 16.9165 55.0578 17.4887 55.0102 18.0578C54.9967 18.19 54.9821 18.3213 54.9681 18.4533C54.8939 19.1394 54.803 19.8176 54.6297 20.4583C54.4388 21.2236 54.1679 21.9507 53.7886 22.5591C53.4074 23.1662 52.9361 23.6491 52.3734 23.9534C51.8135 24.2613 51.1524 24.3943 50.4416 24.3908C49.0673 24.3836 47.7046 23.7108 46.7209 22.6208C45.7295 21.5366 45.0951 20.091 44.9208 18.5731C44.9154 18.5267 44.9142 18.479 44.9096 18.4321C44.8497 17.7988 44.8576 17.1431 44.9269 16.4939C44.9358 16.4121 44.9412 16.3303 44.9519 16.249C45.061 15.473 45.2738 14.7135 45.5648 13.992C45.8602 13.2723 46.2519 12.5936 46.7412 12.0092C47.2321 11.4281 47.8221 10.9462 48.4817 10.6332C48.6458 10.5547 48.8176 10.4979 48.9858 10.4252C49.1578 10.3694 49.3357 10.3358 49.5116 10.2858C49.69 10.2542 49.8719 10.2448 50.0537 10.2193C50.2428 10.2043 50.4487 10.2048 50.6429 10.2104C51.4284 10.2346 52.1871 10.3888 52.8484 10.7344L52.8625 10.7415C53.0885 10.8587 53.3574 10.8259 53.5501 10.6729C53.6033 10.6309 53.6518 10.5812 53.6905 10.5213C53.8816 10.2254 53.7968 9.83089 53.5009 9.63974C53.0837 9.3701 52.6295 9.16112 52.1634 9.01253C51.6962 8.86726 51.2196 8.77781 50.7464 8.72938C50.5076 8.70517 50.2784 8.6881 50.034 8.68784C49.7832 8.69855 49.5292 8.69804 49.2784 8.72454C49.0306 8.76914 48.7776 8.80355 48.5324 8.86395C48.2931 8.94092 48.0469 9.00769 47.8127 9.1002C46.8776 9.48351 46.0623 10.0898 45.3938 10.8001C44.7266 11.5142 44.1975 12.3321 43.7864 13.1968C43.3758 14.0623 43.081 14.9788 42.9143 15.919C42.8796 16.1211 42.8523 16.3237 42.8279 16.5268C35.7311 16.6377 28.6345 16.7649 21.5382 16.9532C21.5463 16.0538 21.5542 15.1544 21.5604 14.2547L21.6103 7.43852L21.6111 7.0124L21.6088 6.77053C21.6078 6.67675 21.6024 6.58347 21.5948 6.49044C21.5662 6.11758 21.4982 5.74625 21.3881 5.38716C21.1707 4.66845 20.7937 4.00047 20.2942 3.44207C19.3033 2.31737 17.7884 1.66111 16.2901 1.71183C14.7811 1.74012 13.3067 2.47641 12.376 3.6564C11.9073 4.24335 11.5665 4.93554 11.3899 5.66827C11.3012 6.03373 11.2531 6.41067 11.2454 6.78226L11.2434 7.03176L11.2447 7.24457L11.2467 7.6707L11.2831 14.4867L11.3558 28.1186L11.5067 55.3819L11.7449 82.6453L11.8889 96.2769C11.9514 100.821 11.9381 105.365 12.1209 109.908L12.1229 109.962C12.1239 109.982 12.1262 110.003 12.13 110.024C12.1423 110.091 12.1476 110.106 12.1563 110.14L12.1805 110.223C12.1973 110.276 12.2144 110.326 12.2335 110.374C12.2702 110.471 12.312 110.56 12.3564 110.647C12.445 110.821 12.548 110.982 12.6601 111.132C12.8857 111.431 13.1497 111.689 13.4362 111.899C14.0122 112.32 14.6503 112.578 15.2832 112.737C15.919 112.892 16.5544 112.958 17.1791 112.963C17.8042 112.97 18.42 112.92 19.0253 112.834C19.2075 112.809 19.35 112.655 19.3548 112.465C19.3604 112.253 19.1932 112.077 18.9817 112.072L18.9776 112.071C18.394 112.056 17.8162 112.018 17.2532 111.94C16.6905 111.864 16.142 111.744 15.6364 111.557C15.1287 111.38 14.6659 111.128 14.3068 110.808C14.1258 110.65 13.9717 110.475 13.8529 110.288C13.794 110.195 13.7425 110.1 13.7033 110.005C13.6839 109.958 13.6658 109.91 13.6536 109.867C13.6503 109.857 13.6487 109.848 13.6465 109.839C13.7935 105.315 13.7487 100.793 13.778 96.2696L13.8236 82.6369L13.8649 55.371L13.8187 28.1058L13.7927 14.4732L13.7797 7.65693L13.7808 6.84113C13.7856 6.64514 13.8111 6.45553 13.8567 6.26922C13.9477 5.89789 14.1213 5.54746 14.3624 5.24724C14.8471 4.64602 15.5895 4.26526 16.3582 4.2464C17.1362 4.21633 17.9013 4.54485 18.4212 5.12185C18.6812 5.40882 18.8772 5.75186 18.9911 6.12013C19.0495 6.30414 19.0849 6.49478 19.101 6.68796C19.1053 6.73613 19.1089 6.78481 19.1091 6.83297L19.1114 6.91045L19.1117 7.01698L19.1134 7.44311L19.1795 14.2591C19.221 18.803 19.2954 23.3469 19.3229 27.891L19.3726 34.707L19.3854 41.5229L19.3963 48.3394L19.3841 55.1556L19.3703 68.7875C19.3624 73.3317 19.406 77.8758 19.4216 82.4197C19.4779 91.5078 19.6061 100.596 19.9726 109.684C19.9838 109.946 20.1953 110.163 20.4629 110.173C20.7445 110.184 20.9813 109.964 20.992 109.683C21.0957 106.947 21.1758 104.212 21.2413 101.477C26.2161 101.559 31.1912 101.606 36.1664 101.666C41.3943 101.736 46.6225 101.757 51.8504 101.797L67.5345 101.903L83.2185 101.959L98.9026 101.978L106.745 101.969C109.359 101.966 111.973 101.959 114.587 101.939C124.726 101.885 134.866 101.753 145.005 101.496L145.129 109.69L145.129 109.711C145.132 109.898 145.196 110.085 145.324 110.24L145.325 110.241C145.448 110.375 145.529 110.447 145.631 110.537C145.728 110.622 145.827 110.701 145.927 110.777C146.127 110.93 146.337 111.066 146.551 111.193C146.981 111.443 147.445 111.635 147.926 111.762C148.405 111.891 148.903 111.955 149.392 111.935C149.884 111.932 150.359 111.826 150.815 111.702C151.053 111.638 151.216 111.408 151.188 111.156C151.158 110.877 150.906 110.675 150.627 110.705L150.58 110.71C150.193 110.752 149.811 110.782 149.439 110.725C149.067 110.686 148.709 110.581 148.373 110.434C148.037 110.288 147.72 110.098 147.435 109.868C147.293 109.751 147.156 109.63 147.031 109.5C146.99 109.457 146.952 109.413 146.913 109.369L146.916 95.8521L146.901 82.0277L146.806 54.3801L146.65 26.7324L146.565 12.9088L146.523 5.99704L146.52 5.56505C146.52 5.42615 146.516 5.25641 146.525 5.17919C146.532 5.08158 146.527 4.98244 146.55 4.88763C146.566 4.79206 146.572 4.69394 146.602 4.60168C146.689 4.2227 146.873 3.87278 147.106 3.55599C147.344 3.24124 147.654 2.97822 148.004 2.77943C148.356 2.58523 148.753 2.46698 149.168 2.4369C149.999 2.3737 150.883 2.69406 151.468 3.35975C151.619 3.51955 151.739 3.70585 151.854 3.89419C151.956 4.08967 152.041 4.29508 152.096 4.50967L152.138 4.67049L152.164 4.83462C152.188 4.94345 152.19 5.05533 152.198 5.16645L152.204 5.25004L152.204 5.3581L152.205 5.57397L152.205 6.00596L152.221 12.918C152.234 17.5259 152.22 22.134 152.212 26.7418L152.105 54.3903C152.059 63.6062 152.092 72.8222 152.147 82.0379C152.186 86.6461 152.243 91.2537 152.356 95.8615C152.391 97.3568 152.432 98.8521 152.476 100.347C152.401 100.481 152.353 100.631 152.345 100.795C152.336 101.013 152.398 101.217 152.508 101.388C152.594 104.154 152.699 106.919 152.843 109.684C152.857 109.942 153.065 110.155 153.328 110.168C153.61 110.181 153.849 109.963 153.862 109.682C153.984 107.083 154.073 104.485 154.144 101.886C155.433 101.934 156.723 101.971 158.012 102.013C158.794 102.041 159.575 102.052 160.357 102.072L161.587 102.1C161.661 103.245 161.738 104.389 161.823 105.534L162.157 110.048C162.269 111.552 162.387 113.056 162.513 114.56L162.774 117.731C159.828 117.741 156.881 117.767 153.935 117.796L143.741 117.891C136.945 117.941 130.148 117.964 123.352 117.942L102.963 117.897L82.5745 117.806L62.1857 117.724L41.797 117.702C35.0009 117.697 28.2045 117.724 21.4082 117.779L11.2138 117.889L6.11663 117.972C4.75746 117.993 3.3983 118.022 2.03888 118.052V101.813L8.56073 101.593C8.95857 101.579 9.28581 101.258 9.29957 100.854C9.31384 100.432 8.98304 100.078 8.56073 100.064L1.01944 99.8091C1.00975 99.8088 0.995991 99.8083 0.986306 99.8083C0.441672 99.8083 0 100.25 0 100.795V100.828V118.973C0.000509719 119.459 0.387896 119.859 0.875952 119.871L1.01944 119.874C2.71859 119.916 4.41774 119.949 6.11663 119.975L11.2138 120.058L21.4082 120.168C28.2045 120.223 35.0009 120.25 41.797 120.244L62.1857 120.223L82.5745 120.141L102.963 120.05L123.352 120.005C130.148 119.983 136.945 120.006 143.741 120.056L153.935 120.151C157.007 120.181 160.078 120.209 163.15 120.218L162.66 127.348L82.8421 127.295L42.5039 127.283L22.3349 127.277C15.9578 127.273 9.58094 127.273 3.20435 127.384L2.41352 120.973C2.37555 120.663 2.11406 120.419 1.79217 120.413C1.43945 120.406 1.14789 120.686 1.14101 121.039L0.992423 128.637L0.992168 128.642C0.982993 129.246 1.46493 129.743 2.06895 129.752L2.17038 129.754C8.89358 129.858 15.6165 129.829 22.3395 129.799L42.5085 129.717L82.8462 129.552L163.522 129.192H163.53C164.008 129.189 164.41 128.816 164.44 128.331L164.966 119.896C165.24 119.646 165.405 119.281 165.376 118.882Z" fill="#0D0D0D"/>
</g>
</svg>
