<svg width="234" height="191" viewBox="0 0 234 191" fill="none" xmlns="http://www.w3.org/2000/svg">
<path fill-rule="evenodd" clip-rule="evenodd" d="M191.487 13.8381C211.476 27.3751 226.404 48.0249 233.318 71.1555C240.657 95.7051 185.246 104.435 171.388 125.987C157.663 147.332 188.223 171.394 164 178.96C145.89 184.616 127.452 183.29 108.534 184.727C88.7048 186.232 68.5299 195.208 50.1542 187.605C30.9751 179.67 21.5928 159.164 8.27384 143.245C-9.32613 122.21 16.4957 113.67 16.4975 86.2429C16.4994 59.284 -14.3186 31.4682 8.28248 16.7721C35.4554 20.1524 49.8843 4.27922 74.8468 4.06799C93.1318 1.59992 100.442 6.59886 128.96 0.483398C150.637 2.29913 173.475 1.64063 191.487 13.8381Z" fill="#FFF6F0"/>
</svg>
