<svg width="32" height="32" viewBox="0 0 32 32" fill="none" xmlns="http://www.w3.org/2000/svg">
<path d="M16 29.3332C8.63596 29.3332 2.66663 23.3638 2.66663 15.9998C2.66663 8.63584 8.63596 2.6665 16 2.6665C23.364 2.6665 29.3333 8.63584 29.3333 15.9998C29.3333 23.3638 23.364 29.3332 16 29.3332ZM16 26.6665C18.8289 26.6665 21.542 25.5427 23.5424 23.5423C25.5428 21.5419 26.6666 18.8288 26.6666 15.9998C26.6666 13.1709 25.5428 10.4578 23.5424 8.45737C21.542 6.45698 18.8289 5.33317 16 5.33317C13.171 5.33317 10.4579 6.45698 8.45749 8.45737C6.4571 10.4578 5.33329 13.1709 5.33329 15.9998C5.33329 18.8288 6.4571 21.5419 8.45749 23.5423C10.4579 25.5427 13.171 26.6665 16 26.6665ZM12 10.6665H20L23.3333 15.3332L16 22.6665L8.66663 15.3332L12 10.6665ZM13.3733 13.3332L12.1466 15.0532L16 18.9065L19.8533 15.0532L18.6266 13.3332H13.3733Z" fill="#A55954"/>
</svg>
