<svg width="40" height="40" viewBox="0 0 40 40" fill="none" xmlns="http://www.w3.org/2000/svg">
<path fill-rule="evenodd" clip-rule="evenodd" d="M26.1048 6.28903C23.1502 4.97253 19.8492 4.64639 16.6941 5.35924C13.539 6.0721 10.6989 7.78575 8.59726 10.2446C6.49565 12.7035 5.24518 15.7759 5.03235 19.0035C4.81953 22.2311 5.65574 25.4411 7.41628 28.1546C9.17682 30.8682 11.7674 32.9399 14.8015 34.0609C17.8357 35.1819 21.151 35.292 24.2529 34.3749C27.3548 33.4577 30.0771 31.5625 32.0138 28.9718C33.9506 26.381 34.998 23.2337 34.9998 19.999V18.4666C34.9998 17.5462 35.746 16.8 36.6665 16.8C37.587 16.8 38.3332 17.5462 38.3332 18.4666V20C38.3309 23.9534 37.0508 27.8012 34.6836 30.9676C32.3165 34.134 28.9892 36.4505 25.198 37.5714C21.4068 38.6924 17.3548 38.5577 13.6464 37.1877C9.93792 35.8176 6.7717 33.2854 4.61993 29.9689C2.46816 26.6523 1.44612 22.729 1.70624 18.7842C1.96637 14.8393 3.49472 11.0842 6.06335 8.0789C8.63198 5.0736 12.1033 2.97913 15.9595 2.10787C19.8158 1.2366 23.8503 1.63522 27.4615 3.24427C28.3023 3.6189 28.6802 4.60419 28.3056 5.44498C27.9309 6.28577 26.9456 6.66366 26.1048 6.28903Z" fill="#A55954"/>
<path fill-rule="evenodd" clip-rule="evenodd" d="M37.8443 5.48757C38.4955 6.13812 38.496 7.19339 37.8454 7.84459L21.1788 24.5279C20.8663 24.8407 20.4423 25.0166 20.0001 25.0167C19.5579 25.0168 19.1338 24.8412 18.8212 24.5285L13.8212 19.5285C13.1703 18.8776 13.1703 17.8224 13.8212 17.1715C14.472 16.5206 15.5273 16.5206 16.1782 17.1715L19.9991 20.9924L35.4872 5.48874C36.1378 4.83755 37.1931 4.83702 37.8443 5.48757Z" fill="#A55954"/>
</svg>
