<svg
  width="40"
  height="40"
  viewBox="0 0 40 40"
  fill="none"
  xmlns="http://www.w3.org/2000/svg"
>
<g clip-path="url(#clip0_390_12)">
<path
      d="M39.3638 7.23428C38.4751 7.62838 37.5525 7.93928 36.6058 8.16437C37.649 7.17313 38.4332 5.93331 38.8757 4.54944C39.002 4.15437 38.5729 3.81275 38.2162 4.02428C36.8992 4.80544 35.4806 5.39147 33.9997 5.76625C33.9138 5.788 33.8251 5.79902 33.7362 5.79902C33.4664 5.79902 33.2042 5.69886 32.9979 5.51708C31.4223 4.12843 29.3959 3.36365 27.292 3.36365C26.3816 3.36365 25.4624 3.50555 24.5599 3.78544C21.7637 4.65272 19.6062 6.95926 18.9293 9.80502C18.6753 10.8724 18.6066 11.9408 18.7248 12.9804C18.7383 13.0999 18.6819 13.1833 18.6471 13.2224C18.5859 13.2909 18.4992 13.3302 18.4092 13.3302C18.3992 13.3302 18.3888 13.3297 18.3786 13.3288C12.2578 12.7601 6.7383 9.81126 2.83684 5.02556C2.6379 4.78145 2.25638 4.81139 2.09781 5.08339C1.3338 6.39411 0.930053 7.89325 0.930053 9.41872C0.930053 11.7566 1.86931 13.9597 3.50079 15.5659C2.81471 15.4032 2.15067 15.147 1.53383 14.8044C1.2354 14.6386 0.868223 14.8517 0.864029 15.193C0.821314 18.6661 2.85469 21.7564 5.90076 23.148C5.83942 23.1494 5.77807 23.1501 5.71663 23.1501C5.23379 23.1501 4.7449 23.1035 4.26372 23.0115C3.92765 22.9474 3.64532 23.2662 3.74967 23.592C4.73837 26.6787 7.3961 28.954 10.5766 29.4706C7.93696 31.2425 4.8631 32.1771 1.66382 32.1771L0.666446 32.1766C0.359147 32.1766 0.0992454 32.3769 0.0209335 32.6745C-0.056208 32.9677 0.0858846 33.2769 0.347932 33.4294C3.95301 35.5274 8.06511 36.6362 12.2415 36.6362C15.8972 36.6362 19.3168 35.9108 22.4053 34.4801C25.2368 33.1685 27.7388 31.2936 29.8421 28.9075C31.8013 26.6847 33.3334 24.1187 34.3956 21.281C35.4082 18.5759 35.9435 15.6896 35.9435 12.934V12.8027C35.9434 12.3602 36.1435 11.9439 36.4926 11.6605C37.8175 10.5848 38.9712 9.31857 39.9216 7.89696C40.1725 7.52159 39.7767 7.05113 39.3638 7.23428Z"
      fill="#76A9EA"
    />
</g>
<defs>
<clipPath id="clip0_390_12">
<rect width="40" height="40" fill="white" />
</clipPath>
</defs>
</svg>
