<svg
  width="33"
  height="32"
  viewBox="0 0 33 32"
  fill="none"
  xmlns="http://www.w3.org/2000/svg"
>
<g clip-path="url(#clip0_2642_1233)">
<path
      d="M12.561 13.2213C13.7752 13.2213 14.7595 12.237 14.7595 11.0228C14.7595 9.80863 13.7752 8.82434 12.561 8.82434C11.3468 8.82434 10.3625 9.80863 10.3625 11.0228C10.3625 12.237 11.3468 13.2213 12.561 13.2213Z"
      fill="#632121"
    />
<path
      d="M30.6069 19.1143C29.5687 18.1373 28.2557 17.496 26.8206 17.3128V6.13725C26.8206 4.94641 26.3321 3.87771 25.5687 3.08382C24.7748 2.28992 23.7061 1.83191 22.5153 1.83191H4.80534C3.6145 1.83191 2.5458 2.32046 1.75191 3.08382C0.958015 3.87771 0.5 4.94641 0.5 6.13725V20.2136V21.5266V24.3663C0.5 25.5571 0.98855 26.6258 1.75191 27.4197C2.5458 28.2136 3.6145 28.6716 4.80534 28.6716H21.9351C23.0649 29.5876 24.4695 30.1678 26.0267 30.1678C27.8282 30.1678 29.4466 29.435 30.6069 28.2747C31.7672 27.1143 32.5 25.496 32.5 23.6945C32.5 21.893 31.7672 20.2747 30.6069 19.1143ZM2.11832 6.13725C2.11832 5.40443 2.42366 4.73267 2.91221 4.27466C3.40076 3.78611 4.07252 3.48076 4.80534 3.48076H22.5153C23.2481 3.48076 23.9198 3.78611 24.4084 4.27466C24.8969 4.76321 25.2023 5.43496 25.2023 6.16779V15.6945L20.6832 11.1754C20.3779 10.8701 19.8588 10.8395 19.5229 11.1754L12.7137 18.0151L8.10305 13.3739C7.79771 13.0685 7.27863 13.038 6.94275 13.3739L2.11832 18.2594V6.13725ZM4.77481 27.1143V27.0533C4.04198 27.0533 3.37023 26.7479 2.88168 26.2594C2.42366 25.7708 2.11832 25.0991 2.11832 24.3663V21.5266V20.58L7.5229 15.1449L12.1336 19.7556C12.4389 20.0609 12.958 20.0609 13.2939 19.7556L20.1031 12.9159L24.5611 17.4044C24.4695 17.435 24.3779 17.4655 24.2863 17.496C24.1641 17.5266 24.042 17.5571 23.8893 17.6182C23.7672 17.6487 23.645 17.7098 23.5229 17.7403C23.4313 17.7708 23.3702 17.8014 23.2786 17.8624C23.1565 17.9235 23.0649 17.954 22.9733 18.0151C22.8206 18.1067 22.6679 18.1983 22.5153 18.2899C22.4237 18.351 22.3626 18.3815 22.271 18.4426C22.2099 18.4731 22.1794 18.5037 22.1183 18.5342C21.8435 18.7174 21.5992 18.9311 21.3855 19.1754C20.2252 20.3357 19.4924 21.954 19.4924 23.7556C19.4924 24.2136 19.5534 24.6411 19.645 25.0991C19.6756 25.2212 19.7061 25.3128 19.7366 25.435C19.8282 25.7403 19.9198 26.0456 20.042 26.351V26.3815C20.1641 26.6258 20.2863 26.9006 20.4389 27.1143H4.77481ZM29.416 27.1143C28.5305 27.9998 27.3397 28.5189 25.9962 28.5189C24.7137 28.5189 23.5229 27.9998 22.6679 27.1754C22.5458 27.0533 22.4237 26.9006 22.3015 26.7785C22.2099 26.6869 22.1183 26.5647 22.0267 26.4731C21.9046 26.3205 21.813 26.1373 21.7214 25.954C21.6603 25.8319 21.5992 25.7403 21.5382 25.6182C21.4771 25.4655 21.416 25.2823 21.3855 25.0991C21.355 24.9769 21.2939 24.8243 21.2634 24.7021C21.2023 24.3968 21.1718 24.0609 21.1718 23.725C21.1718 22.3815 21.7214 21.1907 22.5763 20.3052C23.4313 19.4197 24.6527 18.9006 25.9962 18.9006C27.3397 18.9006 28.5305 19.4502 29.416 20.3052C30.3015 21.1907 30.8206 22.3815 30.8206 23.725C30.8206 25.038 30.271 26.2289 29.416 27.1143Z"
      fill="#632121"
    />
<path
      d="M26.5761 20.4273C26.5151 20.3662 26.4235 20.3051 26.3013 20.2441C26.2097 20.2135 26.1181 20.183 26.0265 20.183C25.996 20.183 25.996 20.183 25.996 20.183C25.9655 20.183 25.9655 20.183 25.9655 20.183C25.8739 20.183 25.7822 20.2135 25.6906 20.2441C25.599 20.2746 25.5074 20.3357 25.4158 20.4273L23.5227 22.3204C23.2174 22.6257 23.2174 23.1448 23.5227 23.4807C23.8281 23.786 24.3471 23.786 24.683 23.4807L25.1716 22.9921V26.3509C25.1716 26.8089 25.538 27.1754 25.996 27.1754C26.454 27.1754 26.8204 26.8089 26.8204 26.3509V22.9921L27.309 23.4807C27.6143 23.786 28.1334 23.786 28.4693 23.4807C28.7746 23.1754 28.7746 22.6563 28.4693 22.3204L26.5761 20.4273Z"
      fill="#632121"
    />
</g>
<defs>
<clipPath id="clip0_2642_1233">
<rect width="32" height="32" fill="white" transform="translate(0.5)" />
</clipPath>
</defs>
</svg>
