<svg width="32" height="32" viewBox="0 0 32 32" fill="none" xmlns="http://www.w3.org/2000/svg">
<path d="M16.0001 2.6665L21.6574 8.32384L19.7707 10.2092L16.0001 6.43717L12.2294 10.2092L10.3427 8.32384L16.0001 2.6665ZM2.66675 15.9998L8.32408 10.3425L10.2094 12.2292L6.43741 15.9998L10.2094 19.7705L8.32408 21.6572L2.66675 15.9998ZM29.3334 15.9998L23.6761 21.6572L21.7907 19.7705L25.5627 15.9998L21.7907 12.2292L23.6761 10.3425L29.3334 15.9998ZM16.0001 18.6665C15.2928 18.6665 14.6146 18.3856 14.1145 17.8855C13.6144 17.3854 13.3334 16.7071 13.3334 15.9998C13.3334 15.2926 13.6144 14.6143 14.1145 14.1142C14.6146 13.6141 15.2928 13.3332 16.0001 13.3332C16.7073 13.3332 17.3856 13.6141 17.8857 14.1142C18.3858 14.6143 18.6667 15.2926 18.6667 15.9998C18.6667 16.7071 18.3858 17.3854 17.8857 17.8855C17.3856 18.3856 16.7073 18.6665 16.0001 18.6665ZM16.0001 29.3332L10.3427 23.6758L12.2294 21.7905L16.0001 25.5625L19.7707 21.7905L21.6574 23.6758L16.0001 29.3332Z" fill="#632121"/>
</svg>
