<svg
  width="40"
  height="40"
  viewBox="0 0 40 40"
  fill="none"
  xmlns="http://www.w3.org/2000/svg"
>
<g clip-path="url(#clip0_390_6)">
<path
      d="M19.0296 0.0231325C8.46562 0.526128 0.129178 9.32386 0.161225 19.8998C0.170983 23.1209 0.948626 26.1613 2.32043 28.8477L0.214222 39.0715C0.100288 39.6245 0.599074 40.1088 1.14847 39.9787L11.1666 37.6052C13.7404 38.8872 16.6313 39.6278 19.6909 39.6744C30.4883 39.8394 39.4914 31.266 39.8279 20.4726C40.1887 8.90285 30.6398 -0.529799 19.0296 0.0231325ZM30.9833 30.8223C28.0494 33.7562 24.1486 35.3719 19.9995 35.3719C17.5701 35.3719 15.2441 34.8268 13.086 33.7519L11.6909 33.0569L5.54877 34.5121L6.84165 28.2359L6.15431 26.89C5.03401 24.6959 4.46596 22.3234 4.46596 19.8384C4.46596 15.6892 6.0817 11.7884 9.01559 8.85444C11.9233 5.94677 15.8877 4.30472 19.9998 4.30472C24.1489 4.30481 28.0495 5.92056 30.9834 8.85435C33.9173 11.7882 35.5331 15.689 35.5331 19.8381C35.5331 23.9502 33.891 27.9147 30.9833 30.8223Z"
      fill="#7AD06D"
    />
<path
      d="M29.6274 24.1407L25.7847 23.0373C25.2795 22.8923 24.7355 23.0356 24.3674 23.4107L23.4277 24.3681C23.0314 24.7718 22.4302 24.9015 21.9058 24.6893C20.088 23.9537 16.2641 20.5538 15.2876 18.8532C15.0059 18.3626 15.0525 17.7493 15.3984 17.3017L16.2188 16.2404C16.5402 15.8245 16.608 15.266 16.3955 14.7853L14.7788 11.1288C14.3915 10.253 13.2724 9.99806 12.5412 10.6164C11.4688 11.5235 10.1962 12.9019 10.0416 14.429C9.76882 17.1213 10.9235 20.5153 15.2898 24.5905C20.3341 29.2985 24.3736 29.9205 27.0036 29.2834C28.4954 28.9221 29.6876 27.4736 30.4399 26.2876C30.9529 25.4789 30.5479 24.405 29.6274 24.1407Z"
      fill="#7AD06D"
    />
</g>
<defs>
<clipPath id="clip0_390_6">
<rect width="40" height="40" fill="white" />
</clipPath>
</defs>
</svg>
