<svg width="22" height="22" viewBox="0 0 22 22" fill="none" xmlns="http://www.w3.org/2000/svg">
<g clip-path="url(#clip0_403_1805)">
<path fill-rule="evenodd" clip-rule="evenodd" d="M14.4644 12.805C14.1088 12.9003 13.7432 12.6893 13.6479 12.3336L12.6004 8.42417L8.69092 9.47171C8.33527 9.56701 7.96971 9.35595 7.87442 9.00031C7.77912 8.64466 7.99018 8.2791 8.34582 8.18381L12.8992 6.96373C13.2549 6.86843 13.6204 7.07949 13.7157 7.43513L14.9358 11.9885C15.0311 12.3442 14.8201 12.7097 14.4644 12.805Z" fill="#0D0D0D"/>
<path fill-rule="evenodd" clip-rule="evenodd" d="M12.131 16.8465C11.7754 16.9418 11.4098 16.7308 11.3145 16.3751L10.267 12.4657L6.35754 13.5132C6.0019 13.6085 5.63634 13.3975 5.54104 13.0418C5.44575 12.6862 5.6568 12.3206 6.01245 12.2253L10.5659 11.0052C10.9215 10.9099 11.2871 11.121 11.3824 11.4766L12.6024 16.0301C12.6977 16.3857 12.4867 16.7513 12.131 16.8465Z" fill="#0D0D0D"/>
</g>
<defs>
<clipPath id="clip0_403_1805">
<rect width="16" height="16" fill="white" transform="translate(14 22) rotate(-150)"/>
</clipPath>
</defs>
</svg>
