<svg
  width="24"
  height="24"
  viewBox="0 0 24 24"
  fill="none"
  xmlns="http://www.w3.org/2000/svg"
>
<rect width="24" height="24" rx="12" fill="#FFF6F0" />
<path
    d="M6 6H18C18.1768 6 18.3464 6.07024 18.4714 6.19526C18.5964 6.32029 18.6667 6.48986 18.6667 6.66667V17.3333C18.6667 17.5101 18.5964 17.6797 18.4714 17.8047C18.3464 17.9298 18.1768 18 18 18H6C5.82319 18 5.65362 17.9298 5.5286 17.8047C5.40357 17.6797 5.33333 17.5101 5.33333 17.3333V6.66667C5.33333 6.48986 5.40357 6.32029 5.5286 6.19526C5.65362 6.07024 5.82319 6 6 6ZM17.3333 11.3333H6.66667V16.6667H17.3333V11.3333ZM17.3333 10V7.33333H6.66667V10H17.3333ZM13.3333 14H16V15.3333H13.3333V14Z"
    fill="url(#paint0_linear_101_9)"
  />
<defs>
<linearGradient
      id="paint0_linear_101_9"
      x1="5.33333"
      y1="18"
      x2="18.6667"
      y2="18"
      gradientUnits="userSpaceOnUse"
    >
<stop stop-color="#0D0D0D" />
<stop offset="1" stop-color="#652222" />
</linearGradient>
</defs>
</svg>
